<svg width="142" height="130" viewBox="0 0 142 130" fill="none" xmlns="http://www.w3.org/2000/svg">
<path d="M0 6C0 2.68629 2.68629 0 6 0H136C139.314 0 142 2.68629 142 6V130H0V6Z" fill="#FF7373"/>
<path d="M100.71 126.371L102.468 120.8V113.894C102.468 100.224 92.802 88.812 79.9322 86.1177C77.2674 87.5329 74.2277 88.3358 71 88.3358C67.7723 88.3358 64.7326 87.5329 62.0678 86.1177C49.1981 88.8118 39.532 100.224 39.532 113.894V120.8L41.2899 126.371L71.683 128.129L100.71 126.371Z" fill="#B3E59F"/>
<path d="M46.1734 62.5518C46.1734 62.5518 40.6949 55.1709 40.4602 44.4951C40.4471 43.8979 40.9764 43.433 41.5682 43.5145C42.792 43.6828 44.8356 43.8264 46.7188 43.3186C52.4736 41.7668 58.1359 30.3496 68.1119 30.017C78.0881 29.6844 80.0227 34.3401 80.0227 34.3401C80.0227 34.3401 83.6926 32.1584 89.1727 32.899C97.3752 34.0074 104.58 46.5039 97.2574 63.6707L46.1734 62.5518Z" fill="#565E75"/>
<path d="M43.4147 65.9217C43.4147 69.6234 46.4235 71.8045 49.0709 71.8045L51.9293 69.3117C51.9293 69.2959 54.4227 65.9377 54.4227 65.9217L51.9281 62.5287C51.0803 62.0625 50.1067 61.7969 49.0707 61.7969C46.4235 61.7967 44.1817 63.5291 43.4147 65.9217Z" fill="#EBBAA1"/>
<path d="M49.0709 70.0466C46.4237 70.0466 44.1819 68.3142 43.4149 65.9216C43.2315 66.4937 43.1315 67.1031 43.1315 67.7361C43.1315 71.0164 45.7907 73.6755 49.0709 73.6755C50.2399 73.6755 51.3289 73.3365 52.2479 72.7535L53.8051 70.6773L51.9295 69.3117C51.0811 69.7789 50.1076 70.0466 49.0709 70.0466Z" fill="#E8A990"/>
<path d="M98.5854 65.9217C98.5854 69.6234 95.5766 71.8045 92.9291 71.8045L90.0707 69.3117C90.0707 69.2959 87.5774 65.9377 87.5774 65.9217L90.0719 62.5287C90.9198 62.0625 91.8934 61.7969 92.9293 61.7969C95.5766 61.7967 97.8184 63.5291 98.5854 65.9217Z" fill="#EBBAA1"/>
<path d="M92.9293 70.0466C95.5766 70.0466 97.8186 68.3142 98.5855 65.9216C98.7689 66.4937 98.8689 67.1031 98.8689 67.7361C98.8689 71.0164 96.2098 73.6755 92.9295 73.6755C91.7605 73.6755 90.6715 73.3365 89.7525 72.7535L88.1953 70.6773L90.0709 69.3117C90.9189 69.7789 91.8924 70.0466 92.9293 70.0466V70.0466Z" fill="#E8A990"/>
<path d="M71 86.4648C81.533 86.4648 90.0719 79.0646 90.0719 65.6353V60.1595C90.0719 58.4899 89.3922 56.8837 88.1652 55.7517C84.6041 52.4665 80.6399 46.7831 79.0475 44.4097C78.6818 43.8648 77.9061 43.814 77.4629 44.298C69.4297 53.0716 59.024 55.9954 54.368 56.905C52.9494 57.1821 51.9285 58.4267 51.9285 59.872V65.6353C51.9281 78.3081 60.467 86.4648 71 86.4648V86.4648Z" fill="#FDD4BB"/>
<path d="M62.008 86.0859C61.9898 86.3205 61.9775 86.5566 61.9775 86.7957C61.9775 91.7787 66.017 95.8182 71 95.8182C75.983 95.8182 80.0225 91.7787 80.0225 86.7957C80.0225 86.5566 80.0104 86.3203 79.992 86.0859H62.008Z" fill="#EBBAA1"/>
<path d="M102.468 126.371L95.2383 128.129L88.0086 126.371V120.8H102.468V126.371Z" fill="#FDD4BB"/>
<path d="M89.5205 130H101.491C102.031 130 102.468 129.563 102.468 129.023V126.371H89.5205L88.0084 128.185L89.5205 130Z" fill="#F7C4A8"/>
<path d="M86.4963 126.371H66.2408L60.3824 128.129L61.4041 130H86.4963L88.0084 128.185L86.4963 126.371Z" fill="#95D6A4"/>
<path d="M89.5205 126.371V112.154C89.5205 111.319 88.8436 110.642 88.0084 110.642C87.1733 110.642 86.4963 111.319 86.4963 112.154V126.371L88.0084 128.185L89.5205 126.371Z" fill="#95D6A4"/>
<path d="M86.4963 126.371H89.5205V130H86.4963V126.371Z" fill="#78C2A4"/>
<path d="M71 84.7067C60.467 84.7067 51.9282 76.168 51.9282 65.635V69.2641C51.9282 79.7971 60.4668 88.3358 70.9998 88.3358C81.5328 88.3358 90.0715 79.7971 90.0715 69.2641V65.635C90.0717 76.1678 81.533 84.7067 71 84.7067V84.7067Z" fill="#F7C4A8"/>
<path d="M46.265 126.371L53.5979 123.585L53.8994 120.8H39.532V126.371L42.1139 127.819L46.265 126.371Z" fill="#EBBAA1"/>
<path d="M39.532 126.371V130H41.292L47.3719 128.129L46.265 126.371H39.532Z" fill="#E8A990"/>
<path d="M46.265 126.371L56.6932 128.129L66.2408 126.371L70.6994 123.026C86.7533 123.026 85.7961 105.756 76.7008 104.102C69.8928 102.864 66.1233 109.11 66.1233 109.11C66.1233 109.11 62.5145 105.123 59.9342 107.703C57.3539 110.283 61.1609 115.501 61.1609 115.501L46.265 126.371Z" fill="#FDD4BB"/>
<path d="M46.2651 126.371L41.292 130H61.4041L66.2408 126.371H46.2651Z" fill="#F7C4A8"/>
<path d="M71 72.1501C67.9967 72.1501 65.4951 74.298 64.9475 77.1414C64.8305 77.7482 65.2873 78.314 65.9053 78.314H76.0947C76.7127 78.314 77.1693 77.7482 77.0525 77.1414C76.5049 74.298 74.0031 72.1501 71 72.1501V72.1501Z" fill="#F4594E"/>
<path d="M59.0799 67.5625C59.3584 68.0575 59.8729 68.3356 60.4027 68.3354C60.6547 68.3354 60.91 68.2725 61.1451 68.1403L65.0535 65.9405C65.5395 65.667 65.8359 65.1489 65.826 64.5914C65.8156 64.0338 65.5006 63.527 65.0049 63.2713L61.0965 61.2547C60.3527 60.8709 59.4379 61.1627 59.0537 61.9071C58.6697 62.6512 58.9617 63.5659 59.7061 63.95L61.1149 64.677L59.6574 65.4973C58.9279 65.908 58.6692 66.8327 59.0799 67.5625V67.5625Z" fill="#565E75"/>
<path d="M76.9463 65.9403L80.8547 68.1401C81.0899 68.2723 81.3451 68.3352 81.5971 68.3352C82.127 68.3352 82.6416 68.0571 82.9199 67.5624C83.3307 66.8327 83.0719 65.9079 82.3422 65.4969L80.8848 64.6766L82.2936 63.9497C83.0379 63.5657 83.3301 62.651 82.9459 61.9067C82.5617 61.1622 81.6471 60.8704 80.9029 61.2544L76.9945 63.271C76.4988 63.5266 76.1838 64.0335 76.1735 64.5911C76.1637 65.1487 76.4604 65.6669 76.9463 65.9403V65.9403Z" fill="#565E75"/>
<path d="M86.9455 105.973C87.1902 106.12 87.4592 106.19 87.7252 106.19C88.24 106.19 88.742 105.928 89.0264 105.454L91.4082 101.491C91.6897 101.022 91.6973 100.438 91.4281 99.9629C91.1592 99.4873 90.6549 99.1932 90.1084 99.1932H88.6504L89.8762 97.1473C90.3066 96.4289 90.0733 95.4975 89.3547 95.0672C88.6367 94.6367 87.7049 94.8701 87.2744 95.5887L84.673 99.9303C84.3922 100.399 84.3852 100.982 84.6545 101.457C84.9238 101.932 85.4277 102.226 85.9738 102.226H87.4277L86.4264 103.892C85.9953 104.61 86.2277 105.542 86.9455 105.973V105.973Z" fill="#FFDE91"/>
<path d="M54.8377 104.621C55.0824 104.767 55.3514 104.837 55.6174 104.837C56.132 104.837 56.634 104.575 56.9186 104.102L59.3004 100.138C59.582 99.6694 59.5895 99.0856 59.3203 98.61C59.0512 98.1344 58.5471 97.8403 58.0006 97.8403H56.5428L57.7684 95.7946C58.1988 95.0762 57.9654 94.1448 57.2469 93.7143C56.5289 93.284 55.5971 93.5173 55.1666 94.2358L52.5654 98.5772C52.2846 99.0456 52.2776 99.629 52.5469 100.104C52.8162 100.58 53.3201 100.873 53.8662 100.873H55.3201L54.3188 102.539C53.8875 103.257 54.1199 104.189 54.8377 104.621V104.621Z" fill="#FFDE91"/>
</svg>
