<svg width="100" height="120" viewBox="0 0 100 120" fill="none" xmlns="http://www.w3.org/2000/svg">
<g clip-path="url(#clip0)">
<rect width="100" height="120" rx="6" fill="white"/>
<rect x="-1" width="100" height="120" rx="6" fill="#FFAA39"/>
<g clip-path="url(#clip1)">
<path d="M77.9843 58.1182C78.1925 60.812 76.2974 63.2034 73.753 63.4587C71.805 63.654 70.0429 62.54 69.2289 60.8002L66.9197 61.0037L65.1764 61.8448C64.7777 62.0365 64.5095 62.4176 64.4483 62.8552C64.2836 64.0351 63.9848 65.1714 63.5696 66.2513C63.4284 66.6171 63.4531 67.0253 63.6449 67.3664L64.266 68.4769L65.9928 69.6356C66.9033 69.2874 67.9631 69.3709 68.8348 69.9555C70.3123 70.9472 70.6663 72.9881 69.5677 74.4244C68.6219 75.6619 66.8633 76.0019 65.5246 75.2067C64.6718 74.7008 64.1566 73.861 64.0307 72.9634L62.1168 71.68L60.9122 71.533C60.4982 71.4824 60.0865 71.6248 59.7853 71.913C58.769 72.8811 57.6209 73.7127 56.3728 74.3785C55.9529 74.602 55.6835 75.0314 55.6541 75.5055L55.5011 77.9452L56.2587 80.9507C57.5479 81.3106 58.6137 82.3329 58.9642 83.7233C59.4936 85.8254 58.1879 87.9581 56.0587 88.4321C54.1378 88.8603 52.1674 87.7404 51.5569 85.8689C51.0817 84.4079 51.5181 82.8975 52.5227 81.9106L51.7616 78.8874L50.5864 76.9982C50.2712 76.4912 49.7136 76.1913 49.116 76.1924C49.1125 76.1924 49.1102 76.1924 49.1066 76.1924C48.0773 76.1924 47.0704 76.0901 46.0964 75.8984C45.5165 75.7831 44.9177 75.9666 44.5107 76.3959L42.958 78.0346L41.2194 81.6412C41.6264 82.4681 41.6628 83.4668 41.2323 84.362C40.4583 85.9665 38.4844 86.6041 36.9069 85.7172C35.5565 84.9561 34.9719 83.2763 35.56 81.8412C35.9612 80.8625 36.7928 80.2084 37.7339 79.9896L39.4831 76.3595L39.8266 73.9233C39.8889 73.4739 39.7172 73.0211 39.3643 72.7364C37.9727 71.6071 36.7799 70.2437 35.8471 68.7051C35.6153 68.3228 35.1989 68.0911 34.7519 68.0875L32.3193 68.064L29.6561 68.9016C29.469 70.5578 28.335 72.0294 26.6435 72.5611C24.3708 73.2763 21.9499 72.0271 21.2124 69.7685C20.4748 67.5111 21.7206 65.042 23.9756 64.2962C25.5542 63.7739 27.2128 64.208 28.335 65.2749L31.1618 64.3856L33.2262 62.914C33.5332 62.6964 33.6967 62.3318 33.6662 61.9577C33.632 61.5425 33.6144 61.1237 33.6144 60.7002C33.6144 58.3993 34.1202 56.2149 35.0236 54.2504C35.1554 53.9622 35.1519 53.6305 35.0131 53.3458L34.4014 52.0954L32.7416 50.8426C31.8123 51.1402 30.7595 50.9979 29.9219 50.3662C28.5009 49.2934 28.2609 47.236 29.4373 45.8632C30.4501 44.681 32.2252 44.4387 33.5179 45.3068C34.3414 45.8597 34.8096 46.7254 34.8848 47.6289L36.7246 49.0169L38.5785 49.3475C39.9278 48.0947 41.5005 47.0795 43.2285 46.3678L43.6638 43.7234L43.1144 40.992C41.4887 40.5732 40.1689 39.3275 39.8136 37.6665C39.3125 35.3198 40.9253 33.0342 43.4167 32.5624C45.907 32.0907 48.3326 33.6094 48.8337 35.9562C49.209 37.7124 48.4008 39.4334 46.9257 40.3862L47.4445 42.9624L48.7184 44.9951C48.802 45.128 48.9478 45.208 49.1043 45.208H49.1066C52.0239 45.208 54.7554 46.0196 57.088 47.4289C57.2162 47.5053 57.3739 47.5159 57.5091 47.4524L59.5042 46.5278L61.8333 44.0081C61.6933 43.1047 61.9509 42.1472 62.6203 41.4237C63.8295 40.1168 65.8999 40.0839 67.1491 41.3908C68.2443 42.5377 68.2866 44.3669 67.2468 45.5644C66.5739 46.3396 65.6081 46.6972 64.6647 46.6266L62.3356 49.1463L61.5792 51.1814C61.5263 51.3225 61.5498 51.4801 61.638 51.6025C62.5568 52.8635 63.2896 54.268 63.7954 55.7761C63.9354 56.1902 64.2648 56.5125 64.6859 56.6313L66.5798 57.1618L69.0407 56.9442C69.6441 55.2044 71.151 53.8881 73.0014 53.7022C75.5458 53.447 77.7772 55.4244 77.9843 58.1182V58.1182Z" fill="white"/>
<path d="M49.1067 72.1719C55.4423 72.1719 60.5783 67.0359 60.5783 60.7003C60.5783 54.3647 55.4423 49.2288 49.1067 49.2288C42.7711 49.2288 37.6352 54.3647 37.6352 60.7003C37.6352 67.0359 42.7711 72.1719 49.1067 72.1719Z" fill="#FAF4FB"/>
<path d="M41.1317 60.7003C41.1317 54.959 45.349 50.203 50.855 49.3611C50.2849 49.2739 49.7011 49.2288 49.1067 49.2288C42.771 49.2288 37.6352 54.3646 37.6352 60.7003C37.6352 67.036 42.771 72.1719 49.1067 72.1719C49.7011 72.1719 50.2849 72.1267 50.855 72.0395C45.3492 71.1975 41.1317 66.4415 41.1317 60.7003Z" fill="white"/>
<path d="M29.8052 39.8451C31.6094 39.8451 33.072 38.3825 33.072 36.5783C33.072 34.7741 31.6094 33.3115 29.8052 33.3115C28.001 33.3115 26.5384 34.7741 26.5384 36.5783C26.5384 38.3825 28.001 39.8451 29.8052 39.8451Z" fill="white"/>
<path d="M28.9122 81.7972C30.1039 81.7972 31.07 80.8311 31.07 79.6394C31.07 78.4477 30.1039 77.4817 28.9122 77.4817C27.7205 77.4817 26.7545 78.4477 26.7545 79.6394C26.7545 80.8311 27.7205 81.7972 28.9122 81.7972Z" fill="white"/>
<path d="M68.5296 86.362C70.2849 86.362 71.7078 84.9391 71.7078 83.1838C71.7078 81.4285 70.2849 80.0056 68.5296 80.0056C66.7744 80.0056 65.3514 81.4285 65.3514 83.1838C65.3514 84.9391 66.7744 86.362 68.5296 86.362Z" fill="white"/>
<path d="M45.5855 60.4996C47.2219 60.4996 48.5485 59.173 48.5485 57.5365C48.5485 55.9001 47.2219 54.5735 45.5855 54.5735C43.949 54.5735 42.6224 55.9001 42.6224 57.5365C42.6224 59.173 43.949 60.4996 45.5855 60.4996Z" fill="white"/>
<path d="M47.964 68.757C49.0779 68.757 49.9808 67.8541 49.9808 66.7402C49.9808 65.6263 49.0779 64.7234 47.964 64.7234C46.8502 64.7234 45.9472 65.6263 45.9472 66.7402C45.9472 67.8541 46.8502 68.757 47.964 68.757Z" fill="white"/>
<path d="M54.2969 62.394C55.2322 62.394 55.9905 61.6357 55.9905 60.7004C55.9905 59.7651 55.2322 59.0068 54.2969 59.0068C53.3616 59.0068 52.6033 59.7651 52.6033 60.7004C52.6033 61.6357 53.3616 62.394 54.2969 62.394Z" fill="white"/>
</g>
</g>
<defs>
<clipPath id="clip0">
<rect width="100" height="120" rx="6" fill="white"/>
</clipPath>
<clipPath id="clip1">
<rect width="57" height="57" fill="white" transform="translate(21 32)"/>
</clipPath>
</defs>
</svg>
