<svg width="155" height="130" viewBox="0 0 155 130" fill="none" xmlns="http://www.w3.org/2000/svg">
<rect width="155" height="130" rx="8" fill="#FF97C3"/>
<circle cx="77.5" cy="64.5" r="47.5" fill="#FFA1C9"/>
<path d="M72.2734 102.606C73.5701 100.517 75.0022 98.5143 76.5605 96.6119V91.3762C71.8084 92.5051 71.1912 92.8652 69.6816 92.8652C68.0696 92.8568 66.5025 92.3328 65.2096 91.3699C63.9166 90.407 62.9657 89.0557 62.4957 87.5137C62.3898 87.1611 62.4118 86.7825 62.5578 86.4446C62.7038 86.1067 62.9645 85.8311 63.2937 85.6666L66.7969 83.9162C66.2621 82.6293 65.7484 81.7861 62.3162 82.2809C61.9458 82.3341 61.5685 82.2526 61.2531 82.0512C60.9377 81.8498 60.705 81.5418 60.5975 81.1834L59.6094 77.8939C55.4357 75.1477 54.5313 75.2 54.3193 74.0283C54.102 72.8281 54.8762 72.7353 59.3725 66.6846V55H101.56C101.252 96.7061 102.287 96.14 100.756 96.9908C100.173 97.315 86.3185 104.932 73.6051 104.999C73.3253 105 73.0503 104.926 72.8088 104.785C72.5673 104.644 72.3681 104.441 72.2321 104.196C72.096 103.952 72.0281 103.675 72.0353 103.396C72.0426 103.116 72.1248 102.843 72.2734 102.606V102.606Z" fill="#FFDFC5"/>
<path d="M76.5661 91.5745V96.6122C75.0077 98.5145 73.5756 100.517 72.279 102.606C72.1305 102.843 72.0484 103.116 72.0412 103.396C72.0341 103.675 72.1021 103.952 72.2382 104.196C72.3743 104.44 72.5735 104.644 72.815 104.785C73.0565 104.926 73.3315 105 73.6112 104.998C86.3247 104.932 100.179 97.3151 100.763 96.9903C101.006 96.855 101.209 96.6571 101.35 96.4171C101.491 96.1771 101.566 95.9036 101.566 95.6251V62.1392C99.818 68.5812 96.6715 74.5587 92.3505 79.6464C88.0295 84.734 82.6402 88.8067 76.5661 91.5745V91.5745Z" fill="#FFD5C7"/>
<path d="M112.467 130H64.0992C63.624 118.856 68.348 108.884 72.2797 102.607C76.566 103.437 98.9488 98.75 101.761 94.6875C109.379 103.437 112.677 114.948 112.503 124.383L112.467 130Z" fill="#96E0D7"/>
<path d="M106.975 102.238C103.213 110.089 97.0304 116.525 89.3362 120.599C81.642 124.672 72.8432 126.168 64.2352 124.866C64.0731 126.572 64.0274 128.288 64.0985 130H112.467L112.504 124.383C112.631 117.481 110.896 109.468 106.975 102.238V102.238Z" fill="#97D0DD"/>
<path d="M100.003 89.0953C99.8157 89.0952 99.6297 89.0614 99.4541 88.9955C85.9411 83.9198 85.9411 70.2737 85.9411 62.1205C85.9411 61.5616 85.8176 60.7838 85.2288 60.2532C84.7106 59.786 83.911 59.5823 82.9778 59.6793C82.9241 59.685 82.8701 59.6878 82.8161 59.6877H68.2387C63.6465 59.6106 59.8934 58.0155 57.0834 54.9463C50.8125 48.0967 51.5735 36.3555 51.609 35.8594C51.6305 35.5113 51.7668 35.1801 51.9965 34.9176C52.2262 34.6551 52.5364 34.4761 52.8786 34.4086C53.2141 34.343 53.562 34.3915 53.8668 34.5464C54.1716 34.7013 54.4158 34.9537 54.5606 35.2635C54.6682 35.4528 55.8344 37.3553 59.177 37.3553C62.8653 37.3553 68.2553 35.7707 73.9622 34.0936C80.2477 32.2461 86.7469 30.3346 92.4094 30.0391C98.8575 29.7031 103.254 31.6629 105.494 35.869C109.004 36.3377 111.883 38.6672 113.669 42.5156C115.993 47.525 116.268 54.5619 114.441 62.3303C112.39 71.0506 107.822 80.0991 101.233 88.4973C101.087 88.6837 100.9 88.8344 100.687 88.938C100.474 89.0416 100.24 89.0954 100.003 89.0953V89.0953Z" fill="#68676B"/>
<path d="M113.669 42.5156C112.573 40.1542 111.064 38.3679 109.252 37.2292C108.691 44.4596 106.31 51.4305 102.33 57.4928C98.3501 63.5552 92.9008 68.5118 86.4895 71.9011C87.537 78.6404 90.5848 85.664 99.4541 88.9957C99.7651 89.1124 100.105 89.1271 100.425 89.0374C100.745 88.9478 101.028 88.7586 101.233 88.4972C107.822 80.0988 112.389 71.0505 114.441 62.3302C116.268 54.5619 115.994 47.525 113.669 42.5156V42.5156Z" fill="#58575B"/>
<path d="M89.066 76.5951H82.816V64.0951H86.0863C87.4112 57.3082 96.8785 58.0478 96.8785 67.2201C96.8785 72.4941 94.2221 76.5951 89.066 76.5951V76.5951Z" fill="#FFDFC5"/>
<path d="M89.8473 45.625C92.8676 45.625 95.316 43.1766 95.316 40.1562C95.316 37.1359 92.8676 34.6875 89.8473 34.6875C86.827 34.6875 84.3785 37.1359 84.3785 40.1562C84.3785 43.1766 86.827 45.625 89.8473 45.625Z" fill="#8A8A8C"/>
<path d="M99.2223 48.75C100.517 48.75 101.566 47.7007 101.566 46.4063C101.566 45.1118 100.517 44.0625 99.2223 44.0625C97.9279 44.0625 96.8785 45.1118 96.8785 46.4063C96.8785 47.7007 97.9279 48.75 99.2223 48.75Z" fill="#8A8A8C"/>
<path d="M103.129 130H81.2535V116.104C81.2535 110.101 86.0192 105.093 92.0215 105.001C93.4715 104.981 94.9112 105.248 96.257 105.788C97.6028 106.328 98.828 107.13 99.8613 108.147C100.895 109.165 101.716 110.377 102.276 111.715C102.837 113.052 103.127 114.487 103.129 115.938V130Z" fill="#AFEFDE"/>
<path d="M93.7524 60.374C93.7524 60.4057 93.7535 60.4371 93.7535 60.4688C93.7541 63.826 92.8141 67.1163 91.0401 69.9666C89.2661 72.8169 86.7291 75.1131 83.7166 76.5951H89.066C94.2223 76.5951 96.8785 72.4936 96.8785 67.2201C96.8785 63.7408 95.5158 61.476 93.7524 60.374V60.374Z" fill="#FFD5C7"/>
<path d="M90.6285 117.5C92.3544 117.5 93.7535 116.101 93.7535 114.375C93.7535 112.649 92.3544 111.25 90.6285 111.25C88.9026 111.25 87.5035 112.649 87.5035 114.375C87.5035 116.101 88.9026 117.5 90.6285 117.5Z" fill="#D5F7ED"/>
<path d="M95.316 120.625C96.179 120.625 96.8785 119.925 96.8785 119.062C96.8785 118.2 96.179 117.5 95.316 117.5C94.4531 117.5 93.7535 118.2 93.7535 119.062C93.7535 119.925 94.4531 120.625 95.316 120.625Z" fill="#D5F7ED"/>
<path d="M54.6852 83.125H51.5625C51.1481 83.125 50.7507 82.9604 50.4576 82.6674C50.1646 82.3743 50 81.9769 50 81.5625C50 81.1481 50.1646 80.7507 50.4576 80.4576C50.7507 80.1646 51.1481 80 51.5625 80H54.6852C55.0996 80 55.497 80.1646 55.79 80.4576C56.083 80.7507 56.2477 81.1481 56.2477 81.5625C56.2477 81.9769 56.083 82.3743 55.79 82.6674C55.497 82.9604 55.0996 83.125 54.6852 83.125Z" fill="#F27C6D"/>
<path d="M60.9352 97.1875C60.5208 97.1875 60.1234 97.0229 59.8303 96.7299C59.5373 96.4368 59.3727 96.0394 59.3727 95.625V92.5C59.3727 92.0856 59.5373 91.6882 59.8303 91.3951C60.1234 91.1021 60.5208 90.9375 60.9352 90.9375C61.3496 90.9375 61.747 91.1021 62.04 91.3951C62.3331 91.6882 62.4977 92.0856 62.4977 92.5V95.625C62.4977 96.0394 62.3331 96.4368 62.04 96.7299C61.747 97.0229 61.3496 97.1875 60.9352 97.1875Z" fill="#F27C6D"/>
<path d="M53.1227 92.5001C52.8136 92.5001 52.5115 92.4085 52.2546 92.2368C51.9976 92.0651 51.7973 91.8211 51.6791 91.5356C51.5608 91.25 51.5299 90.9359 51.5901 90.6328C51.6504 90.3297 51.7993 90.0512 52.0178 89.8327L55.1428 86.7077C55.4358 86.4147 55.8333 86.25 56.2477 86.25C56.6621 86.25 57.0596 86.4146 57.3527 86.7076C57.6457 87.0007 57.8104 87.3981 57.8104 87.8125C57.8104 88.227 57.6458 88.6244 57.3528 88.9175L54.2278 92.0425C54.0828 92.1878 53.9105 92.303 53.7209 92.3816C53.5312 92.4601 53.3279 92.5004 53.1227 92.5001V92.5001Z" fill="#F27C6D"/>
<path d="M39.0625 119.24V130H53.944C53.7252 127.32 53.4631 123.901 53.1647 119.518C58.9571 111.389 57.6276 103.384 57.8131 101.875C57.8131 100.632 57.3192 99.4396 56.4402 98.5605C55.5611 97.6814 54.3688 97.1875 53.1256 97.1875C51.8824 97.1875 50.6901 97.6814 49.811 98.5605C48.932 99.4396 48.4381 100.632 48.4381 101.875V105.401C48.4382 105.677 48.34 105.944 48.1613 106.154C47.9826 106.364 47.7349 106.504 47.4627 106.548C47.1904 106.592 46.9113 106.538 46.6753 106.395C46.4393 106.252 46.2618 106.03 46.1746 105.768L43.8137 98.6875L45.6912 91.1766C47.0076 85.9133 40.1752 82.9999 39.1621 85.7014C34.3283 98.8504 34.225 98.278 34.4151 99.1016L39.0625 119.24Z" fill="#FFDFC5"/>
<path d="M57.8125 101.875C57.8125 101.84 57.8105 101.806 57.8097 101.771C54.1107 109.94 47.3918 116.359 39.0625 119.682V130H53.9439C53.7252 127.32 53.4631 123.9 53.1646 119.518C58.957 111.389 57.6275 103.383 57.8125 101.875V101.875Z" fill="#FFD5C7"/>
</svg>
