<svg width="100" height="120" viewBox="0 0 100 120" fill="none" xmlns="http://www.w3.org/2000/svg">
<rect width="100" height="120" rx="6" fill="#FF3D39"/>
<path d="M33.9062 50.5C33.9062 41.8156 40.7195 34.75 49.0938 34.75C57.468 34.75 64.2812 41.8156 64.2812 50.5V79.375H33.9062V50.5Z" fill="white"/>
<path fill-rule="evenodd" clip-rule="evenodd" d="M69.3438 82H67.6562V80.25C67.6562 80.0179 67.5674 79.7954 67.4091 79.6313C67.2509 79.4672 67.0363 79.375 66.8125 79.375H65.9688V50.5C65.9688 40.8509 58.3982 33 49.0938 33C39.7893 33 32.2188 40.8509 32.2188 50.5V79.375H31.375C31.1512 79.375 30.9366 79.4672 30.7784 79.6313C30.6201 79.7954 30.5312 80.0179 30.5312 80.25V82H28.8438C28.62 82 28.4054 82.0922 28.2471 82.2563C28.0889 82.4204 28 82.6429 28 82.875V86.375C28 86.6071 28.0889 86.8296 28.2471 86.9937C28.4054 87.1578 28.62 87.25 28.8438 87.25H69.3438C69.5675 87.25 69.7821 87.1578 69.9404 86.9937C70.0986 86.8296 70.1875 86.6071 70.1875 86.375V82.875C70.1875 82.6429 70.0986 82.4204 69.9404 82.2563C69.7821 82.0922 69.5675 82 69.3438 82ZM49.0938 34.75C40.7195 34.75 33.9062 41.8156 33.9062 50.5V79.375H64.2812V50.5C64.2812 41.8156 57.468 34.75 49.0938 34.75ZM65.9688 81.125H32.2188V82H65.9688V81.125ZM29.6875 85.5H68.5V83.75H29.6875V85.5Z" fill="white"/>
<path d="M55.8438 48.75H50.7812C50.5575 48.75 50.3429 48.8422 50.1846 49.0063C50.0264 49.1704 49.9375 49.3929 49.9375 49.625V61H48.25V49.625C48.25 49.3929 48.1611 49.1704 48.0029 49.0063C47.8446 48.8422 47.63 48.75 47.4062 48.75H42.3438V47H47.4062C47.63 47 47.8446 46.9078 48.0029 46.7437C48.1611 46.5796 48.25 46.3571 48.25 46.125V41.75H49.9375V46.125C49.9375 46.3571 50.0264 46.5796 50.1846 46.7437C50.3429 46.9078 50.5575 47 50.7812 47H55.8438V48.75Z" fill="#FF3D39"/>
<path d="M55.8438 74.125H42.3438V68.875H55.8438V74.125Z" fill="#FF3D39"/>
</svg>
