<svg width="140" height="140" viewBox="0 0 140 140" fill="none" xmlns="http://www.w3.org/2000/svg">
<circle cx="70" cy="70" r="70" fill="#C9DFF7"/>
<path d="M21 65.5372V69.742H27.4074V84.7592H45.4281V69.742H51.8355V65.5372C51.8355 60.2292 47.5326 55.926 42.2244 55.926H30.6111C25.3029 55.926 21 60.2292 21 65.5372Z" fill="#00D7DF"/>
<path d="M41.4234 84.7594H45.4281V67.7399C45.4281 66.634 44.5316 65.7375 43.4258 65.7375C42.3199 65.7375 41.4234 66.634 41.4234 67.7399V84.7594Z" fill="#6BBEF6"/>
<path d="M42.2244 55.926H38.2197C43.5277 55.926 47.8309 60.229 47.8309 65.5372V69.742H51.8355V65.5372C51.8353 60.2291 47.5324 55.926 42.2244 55.926Z" fill="#6BBEF6"/>
<path d="M51.8353 69.7422H45.4279V84.7596C45.4279 86.5289 46.8623 87.9633 48.6316 87.9633C50.401 87.9633 51.8353 86.5289 51.8353 84.7596V69.7422Z" fill="#FFD0BC"/>
<path d="M27.4074 69.7422H21V84.7596C21 86.5289 22.4344 87.9633 24.2037 87.9633C25.973 87.9633 27.4074 86.5289 27.4074 84.7596V69.7422Z" fill="#FFD0BC"/>
<path d="M36.4178 55.9261C40.8411 55.9261 44.427 52.3402 44.427 47.9169C44.427 43.4935 40.8411 39.9077 36.4178 39.9077C31.9944 39.9077 28.4086 43.4935 28.4086 47.9169C28.4086 52.3402 31.9944 55.9261 36.4178 55.9261Z" fill="#FFDAAA"/>
<path d="M40.0527 40.7808C40.6098 41.872 40.9258 43.1065 40.9258 44.4157C40.9258 48.8392 37.3398 52.4249 32.9166 52.4249C31.6074 52.4249 30.3729 52.1087 29.2816 51.5519C30.6065 54.1476 33.3035 55.9261 36.4178 55.9261C40.8412 55.9261 44.427 52.3401 44.427 47.9169C44.427 44.8026 42.6482 42.1058 40.0527 40.7808V40.7808Z" fill="#FFCE8D"/>
<path d="M27.4074 84.7593H45.4281V113.592H27.4074V84.7593Z" fill="#E7A561"/>
<path d="M41.4234 84.7593H45.4281V113.592H41.4234V84.7593Z" fill="#E49542"/>
<path d="M45.4281 120H36.4178V113.593H45.4281C46.534 113.593 47.4305 114.489 47.4305 115.595V117.998C47.4303 119.103 46.534 120 45.4281 120Z" fill="#6BBEF6"/>
<path d="M27.4074 120H36.4178V113.593H27.4074C26.3016 113.593 25.4051 114.489 25.4051 115.595V117.998C25.4051 119.103 26.3016 120 27.4074 120Z" fill="#90D8F9"/>
<path d="M88.6787 65.5372V69.742H95.0861V84.7592H113.107V69.742H119.514V65.5372C119.514 60.2292 115.211 55.926 109.903 55.926H98.2898C92.9816 55.926 88.6787 60.2292 88.6787 65.5372V65.5372Z" fill="#FF3D39"/>
<path d="M109.101 84.7594H113.106V67.7399C113.106 66.634 112.21 65.7375 111.104 65.7375C109.998 65.7375 109.101 66.634 109.101 67.7399V84.7594Z" fill="#DD636E"/>
<path d="M109.902 55.926H105.898C111.206 55.926 115.509 60.229 115.509 65.5372V69.742H119.513V65.5372C119.513 60.2291 115.21 55.926 109.902 55.926Z" fill="#DD636E"/>
<path d="M119.513 69.7422H113.106V84.7596C113.106 86.5289 114.54 87.9633 116.31 87.9633C118.079 87.9633 119.513 86.5289 119.513 84.7596V69.7422Z" fill="#FFD0BC"/>
<path d="M95.0852 69.7422H88.6777V84.7596C88.6777 86.5289 90.1121 87.9633 91.8814 87.9633C93.6508 87.9633 95.0852 86.5289 95.0852 84.7596V69.7422Z" fill="#FFD0BC"/>
<path d="M104.096 55.9261C108.519 55.9261 112.105 52.3402 112.105 47.9169C112.105 43.4935 108.519 39.9077 104.096 39.9077C99.6722 39.9077 96.0863 43.4935 96.0863 47.9169C96.0863 52.3402 99.6722 55.9261 104.096 55.9261Z" fill="#FFD0BC"/>
<path d="M107.73 40.7808C108.287 41.872 108.603 43.1065 108.603 44.4157C108.603 48.8392 105.018 52.4249 100.594 52.4249C99.2851 52.4249 98.0506 52.1087 96.9594 51.5519C98.2842 54.1476 100.981 55.9261 104.095 55.9261C108.519 55.9261 112.105 52.3401 112.105 47.9169C112.105 44.8026 110.326 42.1058 107.73 40.7808Z" fill="#FFB29F"/>
<path d="M95.0851 84.7593H113.106V113.592H95.0851V84.7593Z" fill="#00D7DF"/>
<path d="M109.101 84.7593H113.106V113.592H109.101V84.7593Z" fill="#6BBEF6"/>
<path d="M113.106 120H104.096V113.593H113.106C114.212 113.593 115.108 114.489 115.108 115.595V117.998C115.108 119.103 114.212 120 113.106 120Z" fill="#26457D"/>
<path d="M95.0852 120H104.096V113.593H95.0852C93.9793 113.593 93.0828 114.489 93.0828 115.595V117.998C93.083 119.103 93.9793 120 95.0852 120Z" fill="#30579D"/>
<path d="M27.4072 69.7422V65.7377C27.4072 64.9167 26.7416 64.2512 25.9207 64.2512C25.0998 64.2512 24.4342 64.9168 24.4342 65.7377V69.7422H27.4072Z" fill="#6BBEF6"/>
<path d="M39.0207 90.0806H33.8146C32.9936 90.0806 32.3281 90.7462 32.3281 91.5673C32.3281 92.3884 32.9937 93.0538 33.8146 93.0538H34.9311V113.592H37.9043V93.0538H39.0207C39.8418 93.0538 40.5072 92.3882 40.5072 91.5673C40.5072 90.7464 39.8418 90.0806 39.0207 90.0806V90.0806Z" fill="#E49542"/>
<path d="M95.0852 69.7422V69.7424V69.7422V65.7377C95.0852 64.9167 94.4195 64.2512 93.5984 64.2512C92.7773 64.2512 92.1119 64.9168 92.1119 65.7377V69.7422H95.0852Z" fill="#DD636E"/>
<path d="M106.699 90.0806H101.493C100.671 90.0806 100.006 90.7462 100.006 91.5673C100.006 92.3884 100.671 93.0538 101.493 93.0538H102.609V113.592H105.582V93.0538H106.699C107.52 93.0538 108.185 92.3882 108.185 91.5673C108.185 90.7464 107.519 90.0806 106.699 90.0806Z" fill="#6BBEF6"/>
<path d="M90.7303 46.8658L85.7246 41.8602C85.1442 41.2797 84.2027 41.2797 83.6223 41.8602C83.0416 42.4406 83.0416 43.382 83.6223 43.9625L86.0902 46.4305H54.4233L56.8912 43.9625C57.4719 43.382 57.4719 42.4406 56.8912 41.8602C56.3108 41.2797 55.3693 41.2797 54.7889 41.8602L49.7832 46.8658C49.2026 47.4463 49.2026 48.3877 49.7832 48.9682L54.7889 53.974C55.0791 54.2645 55.4596 54.4094 55.8401 54.4094C56.2203 54.4094 56.601 54.2643 56.8912 53.974C57.4719 53.3936 57.4719 52.4521 56.8912 51.8717L54.4233 49.4037H86.09L83.6221 51.8717C83.0414 52.4521 83.0414 53.3936 83.6221 53.974C83.9123 54.2643 84.2928 54.4094 84.6733 54.4094C85.0537 54.4094 85.4342 54.2643 85.7244 53.974L90.7301 48.9682C91.3108 48.3877 91.3108 47.4463 90.7303 46.8658Z" fill="#58D775"/>
<path d="M76.9263 35.7881C76.1621 35.7881 75.4863 35.3025 75.2428 34.5775C75.2369 34.56 75.2314 34.5426 75.2262 34.5248L72.9943 26.9603L71.6398 34.4654C71.4941 35.2736 70.7197 35.8096 69.9129 35.6644C69.1049 35.5185 68.568 34.7453 68.7139 33.9375L70.9662 21.4584C71.1217 20.6496 71.79 20.059 72.5945 20.0051C73.3976 19.9535 74.1402 20.4475 74.3971 21.2117C74.4029 21.2291 74.4084 21.2467 74.4137 21.2644L76.9066 29.7141L79.3109 21.2797C79.3158 21.2625 79.3211 21.2453 79.3265 21.2283C79.5754 20.4617 80.3111 19.9602 81.116 20.0033C81.9207 20.0488 82.5953 20.6322 82.7562 21.4219L85.1455 33.9227C85.2996 34.7291 84.7709 35.5078 83.9642 35.6619C83.1578 35.816 82.3791 35.2873 82.225 34.4807L80.7859 26.9506L78.6312 34.5092C78.6263 34.5264 78.6211 34.5436 78.6156 34.5605C78.3785 35.291 77.7033 35.7844 76.9353 35.7883C76.9324 35.7881 76.9295 35.7881 76.9263 35.7881V35.7881Z" fill="#E28086"/>
<path d="M59.7098 35.7906C57.24 35.7906 57.0527 35.7281 56.8572 35.6629C56.3683 35.4998 56.0025 35.1291 55.8539 34.6459C55.6017 33.8256 55.967 33.3471 56.7678 32.2988C57.4058 31.4635 58.5932 29.9086 60.5834 27.0652C61.2205 26.1123 61.6123 25.4518 61.7113 24.6227C61.6691 23.7061 60.9103 22.9734 59.9836 22.9734C59.1588 22.9734 58.4451 23.5592 58.2865 24.366C58.1283 25.1715 57.3471 25.6965 56.5412 25.5383C55.7355 25.3801 55.2107 24.5986 55.3689 23.793C55.8008 21.5951 57.7414 20 59.9836 20C62.5767 20 64.6863 22.1096 64.6863 24.7027C64.6795 24.9182 64.6246 25.3125 64.5857 25.5248C64.3539 26.5242 63.8268 27.6162 63.0191 28.7699C61.7488 30.585 60.7984 31.8859 60.1058 32.8141C61.1957 32.8115 62.4912 32.8012 63.7139 32.7857C64.5342 32.7693 65.2088 33.4326 65.2191 34.2535C65.2295 35.0744 64.5723 35.7484 63.7514 35.7588C61.9711 35.7812 60.6684 35.7906 59.7098 35.7906V35.7906Z" fill="#E28086"/>
</svg>
