<svg width="142" height="130" viewBox="0 0 142 130" fill="none" xmlns="http://www.w3.org/2000/svg">
<path d="M0 6C0 2.68629 2.68629 0 6 0H136C139.314 0 142 2.68629 142 6V130H0V6Z" fill="#C9DFF7"/>
<path d="M34.389 40.887C31.9486 40.887 29.9701 42.8653 29.9701 45.3059V52.119L34.389 53.8768L38.808 52.119V45.3059C38.808 42.8655 36.8297 40.887 34.389 40.887V40.887Z" fill="#EBF2F8"/>
<path d="M27.306 73.9154C27.306 78.4764 30.9791 81.166 34.3892 81.166C37.7994 81.166 41.4724 78.0621 41.4724 73.9154C41.0586 72.2926 40.1031 70.8861 38.8082 69.902V52.1191H29.9703V69.9021C28.6752 70.8861 27.7199 72.2926 27.306 73.9154V73.9154Z" fill="#F4594E"/>
<path d="M89.7008 86.1176C87.0359 87.533 83.9963 88.3359 80.7686 88.3359C77.5408 88.3359 74.5012 87.533 71.8363 86.1176C58.9664 88.8119 49.3006 100.223 49.3006 113.894V120.8L51.0584 126.371L80.7686 128.129L110.479 126.371L112.237 120.8V113.894C112.237 100.223 102.571 88.8117 89.7008 86.1176Z" fill="#976ECA"/>
<path d="M55.9603 62.5516C55.9603 62.5516 50.4818 55.1708 50.2471 44.495C50.234 43.8977 50.7633 43.4329 51.3551 43.5143C52.5789 43.6827 54.6227 43.8263 56.5057 43.3184C62.2605 41.7667 67.9228 30.3495 77.899 30.0169C87.8752 29.6843 89.8098 34.3399 89.8098 34.3399C89.8098 34.3399 93.4797 32.1583 98.9598 32.8989C107.162 34.0073 114.367 46.5036 107.044 63.6706L55.9603 62.5516Z" fill="#E5907B"/>
<path d="M53.2233 65.9216C53.2233 69.6233 56.2321 71.8044 58.8795 71.8044L61.7379 69.3116C61.7379 69.2956 64.2313 65.9376 64.2313 65.9216L61.7367 62.5286C60.8889 62.0624 59.9153 61.7968 58.8793 61.7968C56.2321 61.7966 53.9903 63.529 53.2233 65.9216Z" fill="#EBBAA1"/>
<path d="M58.8793 70.0465C56.2321 70.0465 53.9901 68.3141 53.2231 65.9215C53.0397 66.4936 52.9397 67.103 52.9397 67.736C52.9397 71.0162 55.5988 73.6754 58.8791 73.6754C60.0481 73.6754 61.1371 73.3364 62.0561 72.7533L63.6133 70.677L61.7377 69.3114C60.8897 69.7787 59.9162 70.0465 58.8793 70.0465Z" fill="#E8A990"/>
<path d="M108.394 65.9216C108.394 69.6233 105.385 71.8044 102.738 71.8044L99.8793 69.3116C99.8793 69.2956 97.3859 65.9376 97.3859 65.9216L99.8805 62.5286C100.728 62.0624 101.702 61.7968 102.738 61.7968C105.385 61.7966 107.627 63.529 108.394 65.9216Z" fill="#EBBAA1"/>
<path d="M102.738 70.0465C105.385 70.0465 107.627 68.3141 108.394 65.9215C108.577 66.4936 108.677 67.103 108.677 67.736C108.677 71.0162 106.018 73.6754 102.738 73.6754C101.569 73.6754 100.48 73.3364 99.5609 72.7533L98.0037 70.677L99.8793 69.3114C100.728 69.7787 101.701 70.0465 102.738 70.0465V70.0465Z" fill="#E8A990"/>
<path d="M80.7871 86.4646C91.3201 86.4646 99.859 78.3445 99.859 65.6351V60.1594C99.859 58.4898 99.1793 56.8834 97.9524 55.7515C94.3912 52.4664 90.427 46.783 88.8346 44.4096C88.469 43.8646 87.6932 43.8139 87.25 44.2978C79.2168 53.0715 68.8111 55.9953 64.1551 56.9051C62.7365 57.1822 61.7156 58.4267 61.7156 59.8721V65.6353C61.7152 78.199 70.2541 86.4646 80.7871 86.4646V86.4646Z" fill="#FDD4BB"/>
<path d="M65.3121 130H96.3051L97.8172 128.185L96.3051 126.371H65.3121L63.8 128.185L65.3121 130Z" fill="#8665C6"/>
<path d="M112.255 126.371L105.025 128.129L97.7957 126.371V120.8H112.255V126.371Z" fill="#FDD4BB"/>
<path d="M49.3192 126.371L56.5488 128.129L63.7785 126.371V120.8H49.3192V126.371Z" fill="#FDD4BB"/>
<path d="M112.255 126.371H99.3291L97.817 128.185L99.3291 130H111.279C111.818 130 112.255 129.562 112.255 129.023V126.371Z" fill="#F7C4A8"/>
<path d="M49.3192 126.371H62.2881L63.8002 128.185L62.2881 130H50.2957C49.7565 130 49.3192 129.562 49.3192 129.023V126.371Z" fill="#F7C4A8"/>
<path d="M71.7951 86.0858C71.7768 86.3204 71.7646 86.5565 71.7646 86.7956C71.7646 91.7786 75.8041 95.818 80.7871 95.818C85.7701 95.818 89.8096 91.7786 89.8096 86.7956C89.8096 86.5565 89.7975 86.3202 89.7791 86.0858H71.7951Z" fill="#EBBAA1"/>
<path d="M80.7871 84.7067C70.2541 84.7067 61.7152 76.168 61.7152 65.635V69.2641C61.7152 79.7971 70.2539 88.3358 80.7869 88.3358C91.3199 88.3358 99.8586 79.7971 99.8586 69.2641V65.635C99.8588 76.1678 91.3201 84.7067 80.7871 84.7067V84.7067Z" fill="#F7C4A8"/>
<path d="M99.3291 126.371V112.154C99.3291 111.319 98.6522 110.642 97.817 110.642C96.9819 110.642 96.3049 111.319 96.3049 112.154V126.371L97.817 128.185L99.3291 126.371Z" fill="#755AB7"/>
<path d="M96.3051 126.371H99.3293V130H96.3051V126.371Z" fill="#6753A5"/>
<path d="M65.3121 126.371V112.154C65.3121 111.319 64.6352 110.642 63.8 110.642C62.9649 110.642 62.2879 111.319 62.2879 112.154V126.371L63.8 128.185L65.3121 126.371Z" fill="#755AB7"/>
<path d="M62.2879 126.371H65.3121V130H62.2879V126.371Z" fill="#6753A5"/>
<path d="M71.6156 54.9686H89.9215C91.5848 54.9686 92.9457 52.8219 92.9457 50.1866V46.9893C92.9457 45.326 91.5848 43.9651 89.9215 43.9651H71.6156C69.9523 43.9651 68.5914 45.326 68.5914 46.9893V50.1866C68.5914 53.8157 69.9521 54.9686 71.6156 54.9686V54.9686Z" fill="#ADF0FF"/>
<path d="M34.3891 79.4083C30.9789 79.4083 28.1143 77.0735 27.3059 73.9155C27.1582 74.4946 27.0777 75.1007 27.0777 75.7261C27.0777 79.764 30.3512 83.0374 34.3891 83.0374C38.4269 83.0374 41.7004 79.764 41.7004 75.7261C41.7004 75.1009 41.6199 74.4948 41.4723 73.9155C40.6639 77.0735 37.7992 79.4083 34.3891 79.4083V79.4083Z" fill="#E84642"/>
<path d="M89.9213 53.2107H71.6154C69.9522 53.2107 68.5912 51.8498 68.5912 50.1865V53.8156C68.5912 55.4789 69.9522 56.8398 71.6154 56.8398H89.9213C91.5846 56.8398 92.9455 55.4789 92.9455 53.8156V50.1865C92.9455 51.8498 91.5848 53.2107 89.9213 53.2107V53.2107Z" fill="#8DEAF5"/>
<path d="M69.6076 66.677C69.7096 66.6647 72.1293 66.3647 74.2597 65.4381C75.0271 65.1043 75.3785 64.2118 75.0449 63.4446C74.7111 62.6772 73.8183 62.3254 73.0513 62.6594C71.3355 63.4055 69.2635 63.6664 69.2428 63.669C68.4129 63.7702 67.8217 64.5245 67.9219 65.3547C68.0148 66.1237 68.6685 66.6881 69.424 66.6881C69.4848 66.6881 69.5459 66.6844 69.6076 66.677V66.677Z" fill="#565E75"/>
<path d="M87.3142 65.4378C89.4445 66.3644 91.8644 66.6644 91.9666 66.6767C92.0283 66.6841 92.0894 66.6878 92.1502 66.6878C92.9057 66.6878 93.5596 66.1232 93.6523 65.3542C93.7525 64.5236 93.1605 63.7687 92.3299 63.6685C92.3094 63.666 90.2518 63.4111 88.5226 62.6591C87.7545 62.325 86.8627 62.6769 86.5291 63.4443C86.1955 64.2115 86.5469 65.1041 87.3142 65.4378V65.4378Z" fill="#565E75"/>
<path d="M77.835 78.6081C78.6719 78.6081 79.35 77.9298 79.35 77.093C79.35 76.0552 80.0082 75.1784 80.7871 75.1784C81.5662 75.1784 82.2242 76.0552 82.2242 77.093C82.2242 77.9298 82.9025 78.6081 83.7393 78.6081C84.576 78.6081 85.2543 77.9298 85.2543 77.093C85.2543 74.3665 83.2504 72.1483 80.7871 72.1483C78.3238 72.1483 76.3199 74.3665 76.3199 77.093C76.3199 77.9298 76.998 78.6081 77.835 78.6081Z" fill="#F4594E"/>
<path d="M56.1115 79.3888C56.7234 78.8261 56.768 77.8745 56.2092 77.257C55.6475 76.6365 54.6895 76.589 54.0693 77.1501C53.9693 77.2406 51.6303 79.3984 52.1969 82.4513C52.4816 83.987 53.1758 84.8363 53.6826 85.4562C54.1986 86.0876 54.483 86.4355 54.483 87.5839C54.483 88.4206 55.1611 89.099 55.998 89.099C56.835 89.099 57.5131 88.4206 57.5131 87.5839C57.5131 85.3548 56.69 84.3478 56.0287 83.5386C55.6016 83.0161 55.3195 82.6708 55.1764 81.8988C54.9244 80.5433 56.0707 79.4279 56.1115 79.3888V79.3888Z" fill="#F4594E"/>
<path d="M105.546 83.5387C104.884 84.3479 104.061 85.3549 104.061 87.584C104.061 88.4207 104.74 89.099 105.576 89.099C106.413 89.099 107.091 88.4207 107.091 87.584C107.091 86.4356 107.376 86.0877 107.892 85.4563C108.399 84.8363 109.093 83.9871 109.378 82.4516C109.944 79.3985 107.605 77.2406 107.505 77.1502C106.884 76.5887 105.921 76.6318 105.36 77.2524C104.798 77.8729 104.841 78.8264 105.462 79.3877C105.474 79.399 106.653 80.5258 106.398 81.8988C106.255 82.6709 105.973 83.0162 105.546 83.5387V83.5387Z" fill="#F4594E"/>
<path d="M115.1 78.6381C115.025 78.5418 114.933 78.4567 114.841 78.3789C114.584 78.1797 114.261 78.0621 113.911 78.0621C113.072 78.0621 112.392 78.742 112.392 79.5807C112.392 79.9906 112.555 80.3621 112.819 80.6354C112.819 80.6354 112.842 80.659 112.854 80.6705C113.06 80.8785 114.097 82.0322 113.855 83.9043C113.701 85.0987 113.088 85.8608 112.312 86.8254C111.311 88.0695 110.066 89.6178 110.066 92.2426C110.066 93.0793 110.744 93.7576 111.581 93.7576C112.418 93.7576 113.096 93.0793 113.096 92.2426C113.096 90.6854 113.792 89.8201 114.673 88.7246C115.574 87.6039 116.596 86.3334 116.86 84.2932C117.246 81.308 115.729 79.3199 115.1 78.6381V78.6381Z" fill="#F4594E"/>
<path d="M49.9935 93.7576C50.8305 93.7576 51.5086 93.0793 51.5086 92.2426C51.5086 89.618 50.2633 88.0695 49.2627 86.8254C48.4867 85.8608 47.8736 85.0987 47.7193 83.9043C47.4769 82.0322 48.5144 80.8785 48.7201 80.6705C48.732 80.659 48.7551 80.6354 48.7551 80.6354C49.0191 80.3621 49.1824 79.9906 49.1824 79.5807C49.1824 78.742 48.5025 78.0621 47.6639 78.0621C47.3137 78.0621 46.9904 78.1797 46.7334 78.3789C46.6408 78.4567 46.549 78.5418 46.4746 78.6381C45.8453 79.3199 44.3279 81.308 44.7144 84.2932C44.9783 86.3334 46.0002 87.6037 46.9017 88.7246C47.7828 89.8201 48.4787 90.6854 48.4787 92.2426C48.4783 93.0793 49.1566 93.7576 49.9935 93.7576Z" fill="#F4594E"/>
</svg>
