<svg width="100" height="120" viewBox="0 0 100 120" fill="none" xmlns="http://www.w3.org/2000/svg">
<rect width="100" height="120" rx="6" fill="#4FC0FF"/>
<path d="M61.6664 61.1934C60.1571 62.1676 58.3961 62.6797 56.5998 62.6667C54.2645 62.7184 52.0066 61.8296 50.3331 60.2001C48.4012 58.3091 45.7892 57.2758 43.0865 57.3334C40.9113 57.3102 38.7831 57.9676 36.9998 59.2134V44.28C38.6648 42.7734 40.8415 41.9581 43.0865 42C45.426 41.9462 47.6889 42.8351 49.3665 44.4666C51.2947 46.3549 53.9016 47.388 56.5998 47.3333C58.3653 47.3456 60.1062 46.9195 61.6665 46.0933L61.6664 61.1934Z" fill="white"/>
<path fill-rule="evenodd" clip-rule="evenodd" d="M62.333 44.8266C61.9724 44.6169 61.5269 44.6169 61.1664 44.8266C59.7704 45.6038 58.1975 46.008 56.5998 46C54.2645 46.0516 52.0066 45.1629 50.3331 43.5334C48.4012 41.6423 45.7892 40.6091 43.0865 40.6667C40.9098 40.6479 38.7817 41.3098 36.9998 42.5601V42C36.9998 40.8955 36.1045 40 34.9998 40C33.8952 40 32.9998 40.8954 32.9998 42V78C32.9998 79.1045 33.8952 80 34.9998 80C36.1044 80 36.9998 79.1046 36.9998 78V60.6666C37.2208 60.6459 37.4313 60.5627 37.6065 60.4266C39.1926 59.2586 41.1169 58.6406 43.0865 58.6666C45.426 58.6129 47.6889 59.5017 49.3665 61.1333C51.2947 63.0216 53.9016 64.0547 56.5998 63.9999C58.6677 64.024 60.696 63.4323 62.4265 62.2999C62.7968 62.0433 63.0125 61.617 62.9998 61.1666V46C63.0065 45.517 62.7514 45.0681 62.333 44.8266ZM34.9998 78.6666C35.368 78.6666 35.6664 78.3682 35.6664 78V42C35.6664 41.6318 35.368 41.3334 34.9998 41.3334C34.6316 41.3334 34.3331 41.6318 34.3331 42V78C34.3331 78.3682 34.6316 78.6666 34.9998 78.6666ZM56.5998 62.6667C58.3961 62.6797 60.1571 62.1676 61.6664 61.1934L61.6665 46.0933C60.1062 46.9195 58.3653 47.3456 56.5998 47.3333C53.9016 47.388 51.2947 46.3549 49.3665 44.4666C47.6889 42.8351 45.426 41.9462 43.0865 42C40.8415 41.9581 38.6648 42.7734 36.9998 44.28V59.2134C38.7831 57.9676 40.9113 57.3102 43.0865 57.3334C45.7892 57.2758 48.4012 58.3091 50.3331 60.2001C52.0066 61.8296 54.2645 62.7184 56.5998 62.6667Z" fill="white"/>
<path d="M35.6664 78C35.6664 78.3682 35.368 78.6666 34.9998 78.6666C34.6316 78.6666 34.3331 78.3682 34.3331 78V42C34.3331 41.6318 34.6316 41.3334 34.9998 41.3334C35.368 41.3334 35.6664 41.6318 35.6664 42V78Z" fill="white"/>
</svg>
