<svg width="155" height="130" viewBox="0 0 155 130" fill="none" xmlns="http://www.w3.org/2000/svg">
<rect width="155" height="130" rx="8" fill="#4FC0FF"/>
<circle cx="77.5" cy="64.5" r="47.5" fill="#70CBFF"/>
<path fill-rule="evenodd" clip-rule="evenodd" d="M91.3001 56.8652L111.049 75.8623L114.901 79.5697L116.318 80.933C116.772 81.3652 117.497 81.3486 117.929 80.8998L121.82 76.8432L125.384 73.1303C126.945 71.501 126.895 68.8908 125.268 67.3281L121.82 64.0141L102.697 45.6154C101.069 44.0527 98.4624 44.1025 96.9016 45.7318L89.4462 53.5014C89.0089 53.9559 89.0255 54.6818 89.4794 55.1141L91.3001 56.8652Z" fill="#FE636E"/>
<path fill-rule="evenodd" clip-rule="evenodd" d="M63.8858 58.0787L42.6651 78.4889C43.3348 84.1248 44.3921 89.4006 47.879 92.3543L76.6548 115.724L80.1362 118.401C85.3778 122.43 90.3424 116.799 86.3575 112.637C86.3022 112.576 86.2413 112.515 86.1803 112.454C87.5253 113.585 89.0364 113.906 90.3592 113.69C93.2706 113.219 95.2631 110.138 92.5842 107.262C97.8202 111.44 102.292 104.784 98.1911 101.132C102.763 102.573 107.744 96.6492 102.995 91.6172C102.962 91.5783 102.923 91.534 102.885 91.4953L90.9792 73.7838L75.011 63.5592L63.8858 58.0787Z" fill="#FFBC85"/>
<path fill-rule="evenodd" clip-rule="evenodd" d="M76.2231 116.223C80.6511 111.507 74.1919 106.081 70.6217 109.279L66.7971 112.914C66.7528 112.959 66.7141 112.998 66.6698 113.031C63.4596 116.256 69.2932 123.605 74.1198 118.462L76.2231 116.223Z" fill="#FFE5C1"/>
<path fill-rule="evenodd" clip-rule="evenodd" d="M63.9522 102.701L59.9118 106.935L59.8952 106.957C57.8694 109.107 59.2753 112.405 61.6719 113.69C63.1553 114.488 65.0149 114.522 66.67 113.031L70.9983 112.965L70.6219 109.279L71.1755 108.758C75.5038 104.646 69.255 97.5417 64.3786 102.252L63.9522 102.701Z" fill="#FFE5C1"/>
<path fill-rule="evenodd" clip-rule="evenodd" d="M56.7348 96.8987L52.9489 100.916L52.4174 101.487C48.6813 105.449 55.3731 111.69 59.2309 107.644L59.8952 106.957C59.9505 106.896 64.0077 106.475 64.4505 106.425L64.3786 102.252L65.6737 100.894C70.1294 96.2225 63.1665 90.0711 58.9266 94.5766L56.7348 96.8987Z" fill="#FFE5C1"/>
<path fill-rule="evenodd" clip-rule="evenodd" d="M47.879 92.3546L46.5948 93.7456C42.6428 98.0348 48.5319 104.874 52.9489 100.917L56.5743 100.357L56.7348 96.8989C60.3159 92.8479 54.0725 85.638 49.1577 90.9692L47.879 92.3546Z" fill="#FFE5C1"/>
<path fill-rule="evenodd" clip-rule="evenodd" d="M53.3032 46.042L35.7299 62.9498L30.7319 67.7545C29.1045 69.3172 29.0547 71.9273 30.6157 73.5566L38.0711 81.3262C38.5028 81.775 39.228 81.7916 39.6819 81.3594L42.6651 78.4887L63.8858 58.0783L66.5204 55.5402C66.9743 55.108 66.9909 54.382 66.5536 53.9275L59.0981 46.158C57.5374 44.5291 54.9303 44.4793 53.3032 46.042V46.042Z" fill="#7BACDF"/>
<path fill-rule="evenodd" clip-rule="evenodd" d="M86.7228 75.4357L81.3872 76.6548L83.4794 78.7773L99.6413 94.8372L99.7521 94.9591C101.7 97.0206 102.01 99.2263 101.39 101.022C104.584 99.8027 106.615 95.4523 102.995 91.6175L102.885 91.4956L98.036 86.6798L86.7228 75.4357Z" fill="#F5A96C"/>
<path fill-rule="evenodd" clip-rule="evenodd" d="M63.8858 58.0787L60.4874 61.3428L71.1089 66.5797L75.011 63.5594L63.8858 58.0787Z" fill="#F5A96C"/>
<path fill-rule="evenodd" clip-rule="evenodd" d="M75.011 63.5593L71.1088 66.5796L67.4336 69.4169C58.1516 76.599 65.8506 83.6925 71.3579 81.2597L77.5514 77.53L81.3872 76.6544L86.7227 75.4353L98.036 86.6794L102.885 91.4952C105.934 90.3536 110.246 87.0618 114.901 79.5695L91.3 56.865L87.0604 60.2509C86.3629 60.805 86.5733 60.6998 85.6932 60.672C82.5106 60.5722 78.4647 60.8882 76.0903 62.7224L75.011 63.5593Z" fill="#FFE5C1"/>
<path fill-rule="evenodd" clip-rule="evenodd" d="M74.9944 75.064L68.8008 78.7937C67.1127 79.5418 65.2143 79.3922 63.6645 78.6164C65.0094 81.1988 68.4854 82.5289 71.358 81.2597L77.5516 77.5301L81.3873 76.6545L86.6565 75.4519C84.2157 73.3627 83.7784 73.058 78.8246 74.1939L74.9944 75.064Z" fill="#FED1A3"/>
<path fill-rule="evenodd" clip-rule="evenodd" d="M111.049 75.8621C106.903 82.5289 103.034 85.8705 100.084 87.3335C99.7518 87.4998 99.4307 87.6384 99.1208 87.7546L102.884 91.4953C105.934 90.3537 110.246 87.0619 114.901 79.5695L111.049 75.8621Z" fill="#FED1A3"/>
<path fill-rule="evenodd" clip-rule="evenodd" d="M120.364 62.6062V62.6117V62.6062ZM116.899 72.1048L113.008 76.1669C112.571 76.6158 111.851 76.6324 111.397 76.1947L114.901 79.5697L116.318 80.933C116.772 81.3652 117.497 81.3486 117.928 80.8998L121.819 76.8431L125.384 73.1302C126.945 71.5009 126.895 68.8908 125.268 67.3281L120.906 63.1328L121.277 63.4929L120.364 62.6119C121.969 64.1746 122.019 66.7738 120.463 68.3919L116.899 72.1048Z" fill="#FB2A39"/>
<path fill-rule="evenodd" clip-rule="evenodd" d="M47.2922 51.8275C48.9196 50.2814 51.5098 50.3423 53.0651 51.9605L60.5206 59.73C60.9522 60.1845 60.9413 60.9105 60.4874 61.3427L63.8858 58.0787L66.5204 55.5406C66.9743 55.1084 66.9909 54.3824 66.5536 53.9279L59.0981 46.1584C57.5374 44.5291 54.9303 44.4793 53.3032 46.0419L47.2922 51.8275Z" fill="#3987D0"/>
<path fill-rule="evenodd" clip-rule="evenodd" d="M45.2942 97.0263C45.3329 100.656 49.5727 103.942 52.9489 100.917L55.3233 98.4005L56.7346 96.8987C58.2123 95.2251 58.0131 93.0194 56.9338 91.3735C56.9284 92.3378 56.6073 93.3021 55.8711 94.139L53.3582 96.8046L52.0907 98.1567C49.628 100.357 46.7112 99.2097 45.2942 97.0263V97.0263Z" fill="#FED1A3"/>
<path fill-rule="evenodd" clip-rule="evenodd" d="M51.4932 105.261C52.3788 108.232 56.5133 110.498 59.2309 107.644L59.8952 106.957C59.9006 106.946 59.9063 106.941 59.9118 106.935L63.9522 102.701C64.0962 102.54 64.2344 102.391 64.3784 102.252L65.6735 100.894C68.0756 98.3784 67.1624 95.4302 65.1421 93.9507C65.5073 95.3085 65.2139 96.8767 63.8524 98.3009L62.5573 99.6587C62.4133 99.7972 62.2751 99.9468 62.1311 100.102V100.108L58.0907 104.342C58.0852 104.347 58.0796 104.353 58.0686 104.358L57.41 105.051C55.6057 106.946 53.1813 106.586 51.4932 105.261V105.261Z" fill="#FED1A3"/>
<path fill-rule="evenodd" clip-rule="evenodd" d="M66.7971 112.914L69.7471 110.116L70.6215 109.279L71.1751 108.758C73.4776 106.569 72.7858 103.532 70.8928 101.881C71.2969 103.327 70.9979 104.962 69.6032 106.286L69.0551 106.807L67.4944 108.287L65.2251 110.448L65.0977 110.559C63.4428 112.05 61.5831 112.016 60.0997 111.224C59.7344 111.025 59.3913 110.781 59.0813 110.498C59.4465 111.811 60.4262 113.025 61.6715 113.69C63.1549 114.488 65.0145 114.521 66.6696 113.031L66.7971 112.914Z" fill="#FED1A3"/>
<path fill-rule="evenodd" clip-rule="evenodd" d="M76.2231 116.223C78.437 113.862 77.9278 111.33 76.4223 109.783C76.3891 110.831 75.9463 111.956 74.928 113.036L72.8247 115.281C70.2399 118.029 67.3672 117.204 65.751 115.347C65.7731 118.711 70.2674 122.568 74.1198 118.462L76.2231 116.223Z" fill="#FED1A3"/>
<path d="M86.3737 114.124C86.0141 114.124 85.6534 113.994 85.3694 113.729L82.3639 110.937C81.7667 110.382 81.7325 109.448 82.2876 108.851C82.8425 108.253 83.7764 108.219 84.3735 108.774L87.379 111.567C87.9762 112.122 88.0104 113.056 87.4555 113.653C87.1645 113.966 86.7696 114.124 86.3737 114.124V114.124Z" fill="black"/>
<path d="M126.291 66.2641L103.719 44.5509C102.646 43.5202 101.23 42.9727 99.7392 43.001C98.2486 43.0321 96.8625 43.6393 95.8365 44.71L88.376 52.4848C87.3814 53.5317 87.4197 55.1907 88.4558 56.1778L89.0637 56.7626L86.0015 59.2085C85.9252 59.2044 85.8387 59.2005 85.7396 59.1971C80.9578 59.0483 77.4072 59.8407 75.1875 61.5553L74.8353 61.8278L66.4224 57.6833L67.5381 56.61C68.0443 56.128 68.3314 55.4766 68.3469 54.7757C68.3621 54.0741 68.1029 53.4096 67.6185 52.9065L60.164 45.1374C59.1377 44.0659 57.7515 43.4589 56.2609 43.4276C54.7625 43.3915 53.3539 43.9466 52.2801 44.9782L29.7097 66.6901C27.4939 68.8182 27.4222 72.3567 29.551 74.579L37.0076 82.3497C37.5185 82.8809 38.2037 83.1487 38.8914 83.1487C39.5427 83.1487 40.1963 82.9083 40.7053 82.4235L41.5896 81.5727C42.215 85.5528 43.29 89.5712 45.8236 92.4051L45.5095 92.7454C42.8322 95.6516 43.665 99.5292 45.8082 101.702C46.9894 102.9 48.4254 103.525 49.8724 103.57C49.6791 105.426 50.5297 107.283 51.8937 108.577C53.0906 109.712 54.6912 110.439 56.3191 110.439C56.7238 110.439 57.1303 110.392 57.5326 110.298C57.7615 111.615 58.4486 112.867 59.383 113.804C60.5054 114.929 62.0847 115.714 63.7668 115.714C63.9388 115.714 64.1121 115.705 64.2859 115.688C64.3084 116.011 64.3586 116.34 64.4404 116.673C65.0115 118.995 66.8928 120.947 69.1217 121.531C69.4939 121.628 69.9738 121.711 70.5277 121.711C71.8224 121.711 73.5215 121.257 75.1959 119.473L76.8369 117.726L79.2369 119.571C80.8074 120.778 82.365 121.271 83.7635 121.271C85.5197 121.271 87.0252 120.494 87.9892 119.38C88.9057 118.32 89.451 116.817 89.2488 115.21C91.0933 115.304 92.8332 114.592 93.9568 113.407C94.7883 112.531 95.3308 111.337 95.3211 110.028C97.2324 110.229 98.901 109.413 99.933 108.189C101.122 106.779 101.653 104.678 100.978 102.685C102.742 102.304 104.358 101.188 105.39 99.5093C106.548 97.6251 106.975 94.8165 105.204 92.0419C107.856 90.5798 111.33 87.6612 115.172 81.8792L115.3 82.002C115.805 82.4835 116.456 82.7227 117.106 82.7227C117.794 82.7227 118.481 82.4544 118.993 81.9217L126.45 74.1514C128.578 71.9298 128.506 68.3913 126.291 66.2641V66.2641ZM47.6795 94.7466L50.2429 91.9694C51.2916 90.8313 52.4387 90.3657 53.5619 90.6225C54.7396 90.8921 55.789 91.9235 56.173 93.1893C56.3582 93.7993 56.5242 94.976 55.5562 96.0018C55.5551 96.003 55.5543 96.0044 55.5531 96.0055L51.9586 99.8218C50.4457 101.173 48.8754 100.608 47.9095 99.6292C46.7322 98.4352 46.1584 96.3977 47.6795 94.7466V94.7466ZM53.9246 106.434C53.7008 106.222 51.7865 104.308 53.4916 102.5L53.4922 102.499L60.0015 95.5882C60.8101 94.729 61.642 94.4811 62.3324 94.4811C62.5888 94.4811 62.826 94.5155 63.0347 94.5651C64.1961 94.8417 65.1949 95.7661 65.5203 96.8657C65.8232 97.8897 65.507 98.9305 64.606 99.8755L63.2324 101.315C63.1625 101.384 63.0939 101.458 63.0254 101.531L58.1629 106.626C56.6496 108.213 54.7867 107.252 53.9246 106.434V106.434ZM61.473 111.719C60.6336 110.878 59.8094 109.18 60.9795 107.954C60.9926 107.941 61.0035 107.926 61.016 107.912L64.9926 103.746C65.0152 103.723 65.0381 103.701 65.0596 103.677C65.0734 103.661 65.0877 103.647 65.1017 103.632L65.3588 103.362C66.3482 102.383 67.4289 101.996 68.5056 102.247C69.6916 102.523 70.7123 103.531 71.0455 104.756C71.2515 105.513 71.2652 106.637 70.1592 107.688L69.6738 108.149C69.6617 108.159 69.6494 108.169 69.6373 108.18C69.6058 108.208 69.5767 108.238 69.5482 108.268L65.8363 111.792C65.8238 111.802 65.8105 111.812 65.7982 111.823C65.7726 111.846 65.7496 111.871 65.7246 111.895C63.7004 113.752 61.8303 112.078 61.473 111.719ZM73.0435 117.452C72.0166 118.546 70.9474 118.957 69.8693 118.675C68.6945 118.367 67.6168 117.229 67.3064 115.967C67.1705 115.415 67.14 114.644 67.7316 114.059C67.7588 114.034 67.7861 114.01 67.8133 113.985L71.6414 110.35C72.7943 109.356 74.4133 109.839 75.3623 110.811C75.8308 111.291 77.2 113.026 75.1472 115.212L73.0435 117.452ZM102.875 97.9634C102.127 99.1803 100.561 100.155 98.9264 99.8007L93.2965 94.5602C92.6996 94.0048 91.7658 94.0384 91.2103 94.635C90.6551 95.2317 90.6885 96.1657 91.2851 96.7212L97.1853 102.213C97.191 102.218 97.1971 102.223 97.2027 102.228C97.2053 102.23 97.207 102.233 97.2096 102.235C98.6652 103.531 98.5463 105.254 97.6762 106.286C96.6887 107.457 95.1437 107.398 93.5381 106.133L87.6842 100.684C87.0873 100.128 86.1535 100.162 85.598 100.759C85.0428 101.355 85.0762 102.289 85.6728 102.845L91.5305 108.298C92.5476 109.403 92.6498 110.496 91.8146 111.376C90.8217 112.423 88.842 112.761 87.1291 111.324C86.5205 110.813 85.6174 110.876 85.0851 111.465C84.5527 112.055 84.5822 112.959 85.1519 113.513C86.7598 115.075 86.4826 116.609 85.7568 117.448C84.8742 118.468 83.0726 118.796 81.0361 117.231L78.6096 115.365C79.825 112.868 79.0547 110.366 77.4748 108.749C76.5515 107.804 75.2846 107.114 73.9375 106.904C74.1715 105.967 74.1646 104.975 73.8939 103.98C73.2742 101.703 71.4217 99.894 69.1744 99.3716C68.8959 99.3067 68.6162 99.2635 68.3369 99.2409C68.6531 98.1927 68.6674 97.0956 68.3513 96.028C67.7263 93.9157 65.9078 92.2145 63.7187 91.6934C62.0859 91.3053 60.4502 91.6169 59.056 92.5454C59.0371 92.4743 59.0199 92.4034 58.9984 92.3323C58.3062 90.0514 56.4308 88.2509 54.2209 87.7452C52.0379 87.246 49.8549 88.0354 48.0736 89.9682L47.8367 90.2249C45.7584 87.7528 44.8406 83.9249 44.2166 79.0462L50.4414 73.0581C51.0289 72.493 51.0471 71.5587 50.4818 70.9712C49.917 70.3837 48.9826 70.3655 48.3949 70.9307L41.7148 77.3569C41.6631 77.4003 41.6148 77.4469 41.5695 77.4967L38.9033 80.0616L31.682 72.5364C30.6787 71.4889 30.7115 69.8216 31.7556 68.8186L54.3256 47.1065C54.8297 46.6225 55.4969 46.3635 56.1994 46.3788C56.901 46.3934 57.5519 46.6778 58.0334 47.1801L65.2568 54.7079L53.066 66.4358C52.4785 67.001 52.4603 67.9354 53.0256 68.5227C53.5906 69.1102 54.525 69.1282 55.1125 68.5632L64.1601 59.8591L72.2359 63.8376L66.5306 68.2497C59.6902 73.5425 61.7513 78.3061 62.5461 79.6399C63.9019 81.9159 66.4213 83.2298 68.9914 83.2298C69.9933 83.2298 71.0031 83.03 71.9545 82.6096C72.0111 82.5846 72.0662 82.5561 72.1193 82.5241L78.1103 78.9163L86.259 77.0553L101.836 92.5344C104.258 95.0196 103.37 97.1585 102.875 97.9634V97.9634ZM124.319 72.1083L117.096 79.6348L115.989 78.5741C115.948 78.5288 115.903 78.486 115.855 78.4456L105.682 68.7007C105.093 68.1362 104.159 68.1571 103.595 68.7452C103.031 69.3339 103.052 70.2682 103.64 70.8321L113.003 79.8014C108.888 86.1253 105.362 88.7009 103.218 89.7456L87.7633 74.3885C87.7592 74.3844 87.7547 74.3811 87.7508 74.3772C87.7285 74.3555 87.7053 74.3352 87.6816 74.3151C87.6674 74.3028 87.6533 74.2903 87.6387 74.2786C87.6172 74.2616 87.5947 74.246 87.5724 74.2301C87.5547 74.2176 87.5371 74.2046 87.5189 74.1928C87.4986 74.1798 87.4773 74.1682 87.4564 74.1561C87.4357 74.1442 87.4152 74.1317 87.3939 74.121C87.3721 74.1098 87.3496 74.1003 87.3271 74.0903C87.3064 74.0809 87.2861 74.071 87.265 74.0628C87.2377 74.052 87.2098 74.043 87.1816 74.0339C87.1652 74.0286 87.149 74.0223 87.1324 74.0175C87.0982 74.0075 87.0635 73.9999 87.0285 73.9925C87.0176 73.9901 87.0068 73.9872 86.9961 73.985C86.9594 73.978 86.9221 73.9733 86.8846 73.9692C86.8748 73.9682 86.8652 73.9665 86.8555 73.9655C86.8215 73.9624 86.7871 73.9616 86.7525 73.961C86.7385 73.9608 86.7246 73.9598 86.7103 73.9598C86.682 73.96 86.6535 73.9622 86.625 73.9641C86.6039 73.9655 86.583 73.9665 86.5619 73.9688C86.5396 73.9714 86.5174 73.9751 86.4951 73.9786C86.4674 73.9829 86.4398 73.9874 86.4125 73.9932C86.4064 73.9946 86.4004 73.995 86.3943 73.9964L77.223 76.0911C77.0703 76.126 76.9242 76.1848 76.7902 76.2655L70.6828 79.9432C68.7105 80.7632 66.1642 79.9456 65.082 78.129C63.7986 75.9749 65.0156 73.1542 68.3369 70.5844L75.918 64.7217C75.9312 64.7114 75.9449 64.7018 75.9578 64.6909L76.993 63.8903C78.609 62.6417 81.6844 62.0227 85.6471 62.1471C85.7764 62.1512 85.8793 62.1573 85.9639 62.162C86.826 62.2134 87.1709 62.0544 87.8344 61.5221L91.2098 58.8262L98.7844 66.1135C99.3719 66.6788 100.306 66.6604 100.871 66.0733C101.437 65.4858 101.419 64.5514 100.831 63.9862L90.7435 54.2809L97.9678 46.7524C98.4484 46.2507 99.0994 45.9665 99.8012 45.9518C99.8201 45.9514 99.8389 45.9512 99.858 45.9512C100.541 45.9512 101.184 46.2085 101.674 46.6786L124.246 68.3921C125.289 69.3944 125.321 71.0618 124.319 72.1083V72.1083Z" fill="black"/>
</svg>
