<svg width="142" height="130" viewBox="0 0 142 130" fill="none" xmlns="http://www.w3.org/2000/svg">
<path d="M0 6C0 2.68629 2.68629 0 6 0H136C139.314 0 142 2.68629 142 6V130H0V6Z" fill="#FF97C3"/>
<g clip-path="url(#clip0)">
<path d="M100.71 126.371L102.468 120.8V113.894C102.468 100.224 92.802 88.812 79.9322 86.1177C77.2674 87.5329 74.2277 88.3358 71 88.3358C67.7723 88.3358 64.7326 87.5329 62.0678 86.1177C49.1981 88.8118 39.532 100.224 39.532 113.894V120.8L41.2899 126.371L71.6828 128.129L100.71 126.371Z" fill="#ADF0FF"/>
<path d="M46.1734 62.5518C46.1734 62.5518 40.6949 55.1709 40.4602 44.4951C40.4471 43.8979 40.9764 43.433 41.5682 43.5145C42.792 43.6828 44.8356 43.8264 46.7188 43.3186C52.4736 41.7668 58.1359 30.3496 68.1119 30.017C78.0881 29.6844 80.0227 34.3401 80.0227 34.3401C80.0227 34.3401 83.6926 32.1584 89.1727 32.899C97.3752 34.0074 104.58 46.5039 97.2572 63.6707L46.1734 62.5518Z" fill="#565E75"/>
<path d="M43.4147 65.9217C43.4147 69.6234 46.4235 71.8045 49.0709 71.8045L51.9293 69.3117C51.9293 69.2959 54.4227 65.9377 54.4227 65.9217L51.9281 62.5287C51.0803 62.0625 50.1067 61.7969 49.0707 61.7969C46.4235 61.7967 44.1817 63.5291 43.4147 65.9217Z" fill="#EBBAA1"/>
<path d="M49.0709 70.0466C46.4237 70.0466 44.1819 68.3142 43.4149 65.9216C43.2315 66.4937 43.1315 67.1031 43.1315 67.7361C43.1315 71.0164 45.7907 73.6755 49.0709 73.6755C50.2399 73.6755 51.3289 73.3365 52.2479 72.7535L53.8051 70.6773L51.9295 69.3117C51.0811 69.7789 50.1076 70.0466 49.0709 70.0466Z" fill="#E8A990"/>
<path d="M98.5854 65.9217C98.5854 69.6234 95.5766 71.8045 92.9291 71.8045L90.0707 69.3117C90.0707 69.2959 87.5774 65.9377 87.5774 65.9217L90.0719 62.5287C90.9198 62.0625 91.8934 61.7969 92.9293 61.7969C95.5766 61.7967 97.8184 63.5291 98.5854 65.9217Z" fill="#EBBAA1"/>
<path d="M92.9293 70.0466C95.5766 70.0466 97.8186 68.3142 98.5855 65.9216C98.7689 66.4937 98.8689 67.1031 98.8689 67.7361C98.8689 71.0164 96.2098 73.6755 92.9295 73.6755C91.7605 73.6755 90.6715 73.3365 89.7525 72.7535L88.1953 70.6773L90.0709 69.3117C90.9189 69.7789 91.8924 70.0466 92.9293 70.0466V70.0466Z" fill="#E8A990"/>
<path d="M71 86.4648C81.533 86.4648 90.0719 79.0646 90.0719 65.6353V60.1595C90.0719 58.4899 89.3922 56.8837 88.1652 55.7517C84.6041 52.4665 80.6399 46.7831 79.0475 44.4097C78.6818 43.8648 77.9061 43.814 77.4629 44.298C69.4297 53.0716 59.024 55.9954 54.368 56.905C52.9494 57.1821 51.9285 58.4267 51.9285 59.872V65.6353C51.9281 78.3081 60.467 86.4648 71 86.4648V86.4648Z" fill="#FDD4BB"/>
<path d="M55.5033 130H86.4963L88.0084 128.185L86.4963 126.371H55.5033L53.9914 128.185L55.5033 130Z" fill="#8DEAF5"/>
<path d="M62.008 86.0859C61.9898 86.3205 61.9775 86.5566 61.9775 86.7957C61.9775 91.7787 66.017 95.8182 71 95.8182C75.983 95.8182 80.0225 91.7787 80.0225 86.7957C80.0225 86.5566 80.0104 86.3203 79.992 86.0859H62.008Z" fill="#EBBAA1"/>
<path d="M102.468 126.371L95.2383 128.129L88.0086 126.371V120.8H102.468V126.371Z" fill="#FDD4BB"/>
<path d="M39.532 126.371L46.7617 128.129L53.9914 126.371V120.8H39.532V126.371Z" fill="#FDD4BB"/>
<path d="M89.5205 130H101.491C102.031 130 102.468 129.563 102.468 129.023V126.371H89.5205L88.0084 128.185L89.5205 130Z" fill="#F7C4A8"/>
<path d="M40.5086 130H52.4793L53.9914 128.186L52.4793 126.371H39.532V129.023C39.532 129.563 39.9692 130 40.5086 130V130Z" fill="#F7C4A8"/>
<path d="M89.5205 126.371V112.154C89.5205 111.319 88.8436 110.642 88.0084 110.642C87.1733 110.642 86.4963 111.319 86.4963 112.154V126.371L88.0084 128.185L89.5205 126.371Z" fill="#85E1E5"/>
<path d="M86.4963 126.371H89.5205V130H86.4963V126.371Z" fill="#6ED6D6"/>
<path d="M55.5033 126.371V112.154C55.5033 111.319 54.8264 110.642 53.9912 110.642C53.1561 110.642 52.4791 111.319 52.4791 112.154V126.371L53.9912 128.185L55.5033 126.371Z" fill="#85E1E5"/>
<path d="M52.4801 126.371H55.5043V130H52.4801V126.371Z" fill="#6ED6D6"/>
<path d="M71 84.7067C60.467 84.7067 51.9282 76.168 51.9282 65.635V69.2641C51.9282 79.7971 60.4668 88.3358 70.9998 88.3358C81.5328 88.3358 90.0715 79.7971 90.0715 69.2641V65.635C90.0717 76.1678 81.533 84.7067 71 84.7067V84.7067Z" fill="#F7C4A8"/>
<path d="M66.6674 78.906C67.5049 78.906 68.1838 78.227 68.1838 77.3895C68.1838 75.8368 69.4471 74.5733 71 74.5733C72.553 74.5733 73.8162 75.8366 73.8162 77.3895C73.8162 78.227 74.4952 78.906 75.3327 78.906C76.1702 78.906 76.8491 78.227 76.8491 77.3895C76.8491 74.1644 74.2252 71.5405 71 71.5405C67.7748 71.5405 65.151 74.1644 65.151 77.3895C65.151 78.227 65.8299 78.906 66.6674 78.906Z" fill="#F4594E"/>
<path d="M59.0799 67.5626C59.3582 68.0573 59.8728 68.3356 60.4027 68.3354C60.6545 68.3354 60.91 68.2725 61.1451 68.1403L65.0535 65.9405C65.5394 65.6671 65.8359 65.1489 65.8258 64.5915C65.8156 64.0339 65.5004 63.527 65.0049 63.2714L61.0965 61.2548C60.352 60.8708 59.4375 61.163 59.0535 61.9071C58.6695 62.6513 58.9615 63.5659 59.7059 63.9499L61.1148 64.677L59.6574 65.4972C58.9277 65.9081 58.6691 66.8327 59.0799 67.5626Z" fill="#565E75"/>
<path d="M82.3424 65.4971L80.8848 64.677L82.2938 63.9498C83.0381 63.5658 83.3301 62.6512 82.9461 61.907C82.5621 61.1625 81.6475 60.8705 80.9031 61.2547L76.9945 63.2713C76.499 63.527 76.1838 64.0338 76.1737 64.5914C76.1635 65.1488 76.4602 65.667 76.9459 65.9404L80.8545 68.1402C81.0897 68.2725 81.3449 68.3353 81.5969 68.3353C82.1268 68.3353 82.6414 68.0572 82.9197 67.5625C83.3309 66.8326 83.0721 65.908 82.3424 65.4971Z" fill="#565E75"/>
<path d="M91.1016 38.4425C90.383 38.0118 89.4518 38.2456 89.0213 38.964L86.4201 43.3056C86.1395 43.7741 86.1324 44.3573 86.4016 44.8325C86.6709 45.3077 87.1748 45.6015 87.7209 45.6015H89.1746L88.1733 47.2677C87.742 47.9856 87.974 48.9173 88.692 49.3487C88.9365 49.4956 89.2059 49.5655 89.4717 49.5655C89.9863 49.5655 90.4885 49.3034 90.7731 48.83L93.1551 44.8663C93.4365 44.3979 93.4443 43.8142 93.1752 43.3384C92.9061 42.8628 92.402 42.5686 91.8553 42.5686H90.3973L91.6229 40.5228C92.0535 39.8042 91.8199 38.8729 91.1016 38.4425V38.4425Z" fill="#F4594E"/>
<path d="M59.3141 40.3677C58.5957 39.9368 57.6643 40.1706 57.234 40.8891L54.6328 45.2306C54.3521 45.6991 54.3451 46.2823 54.6142 46.7575C54.8836 47.2327 55.3875 47.5264 55.9336 47.5264H57.3875L56.3861 49.1929C55.9549 49.9108 56.1869 50.8425 56.9049 51.2739C57.1494 51.4208 57.4187 51.4907 57.6846 51.4907C58.1994 51.4907 58.7014 51.2284 58.9859 50.7552L61.368 46.7913C61.6494 46.3227 61.6572 45.7391 61.3881 45.2634C61.1189 44.7876 60.6148 44.4936 60.0682 44.4936H58.6101L59.8357 42.4479C60.266 41.7296 60.0326 40.7981 59.3141 40.3677V40.3677Z" fill="#F4594E"/>
<path d="M111.367 61.2041C111.098 60.7286 110.594 60.4344 110.047 60.4344H108.589L109.815 58.3885C110.246 57.6702 110.012 56.7387 109.294 56.3084C108.575 55.8778 107.644 56.1116 107.213 56.8299L104.612 61.1715C104.331 61.6401 104.324 62.2233 104.594 62.6985C104.863 63.1737 105.367 63.4674 105.913 63.4674H107.367L106.365 65.1336C105.934 65.8516 106.166 66.7832 106.884 67.2147C107.129 67.3616 107.398 67.4315 107.664 67.4315C108.178 67.4315 108.68 67.1694 108.965 66.6959L111.347 62.7323C111.629 62.2637 111.636 61.6797 111.367 61.2041V61.2041Z" fill="#F4594E"/>
<path d="M36.0871 60.4344H34.6291L35.8547 58.3885C36.2852 57.67 36.0516 56.7387 35.3332 56.3084C34.6147 55.8778 33.6834 56.1116 33.2531 56.8299L30.6521 61.1715C30.3715 61.6401 30.3645 62.2233 30.6336 62.6985C30.9027 63.1737 31.4068 63.4674 31.9529 63.4674H33.4066L32.4053 65.1336C31.974 65.8516 32.2061 66.7832 32.924 67.2147C33.1686 67.3616 33.4379 67.4315 33.7037 67.4315C34.2186 67.4315 34.7205 67.1694 35.0051 66.6959L37.3871 62.7323C37.6686 62.2639 37.6764 61.6801 37.4072 61.2043C37.1377 60.7284 36.6336 60.4344 36.0871 60.4344V60.4344Z" fill="#F4594E"/>
<path d="M81.8436 59.0497C82.6811 59.0497 83.36 58.3708 83.36 57.5333V56.0677C83.36 55.23 82.6811 54.5513 81.8436 54.5513C81.0061 54.5513 80.3271 55.2302 80.3271 56.0677V57.5333C80.3271 58.3708 81.0061 59.0497 81.8436 59.0497Z" fill="#B3E59F"/>
<path d="M77.4104 54.9347C78.2479 54.9347 78.9268 54.2558 78.9268 53.4183V51.9527C78.9268 51.115 78.2479 50.4363 77.4104 50.4363C76.5729 50.4363 75.894 51.1152 75.894 51.9527V53.4183C75.8938 54.2558 76.5729 54.9347 77.4104 54.9347Z" fill="#B3E59F"/>
<path d="M72.4576 58.3168C73.2951 58.3168 73.974 57.6379 73.974 56.8004V55.3348C73.974 54.4971 73.2951 53.8184 72.4576 53.8184C71.6201 53.8184 70.9412 54.4973 70.9412 55.3348V56.8004C70.9412 57.6381 71.6201 58.3168 72.4576 58.3168Z" fill="#B3E59F"/>
</g>
<defs>
<clipPath id="clip0">
<rect width="100" height="100" fill="white" transform="translate(21 30)"/>
</clipPath>
</defs>
</svg>
