<svg width="140" height="140" viewBox="0 0 140 140" fill="none" xmlns="http://www.w3.org/2000/svg">
<circle cx="70" cy="70" r="70" fill="#FF706D"/>
<path d="M105.338 80.8125C107.41 80.8125 109.397 81.6356 110.862 83.1007C112.328 84.5659 113.151 86.553 113.151 88.625C113.151 90.697 112.328 92.6841 110.862 94.1493C109.397 95.6144 107.41 96.4375 105.338 96.4375C104.807 96.4182 104.281 96.3235 103.776 96.1562C102.695 95.8316 101.648 95.4025 100.651 94.875C99.8695 96.375 99.3226 98 97.5257 98C96.2825 98 95.0902 97.5061 94.2112 96.6271C93.3321 95.748 92.8382 94.5557 92.8382 93.3125L91.2601 87.5L88.1507 76.125L95.9632 80.8125C95.9632 79.5693 96.4571 78.377 97.3362 77.4979C98.2152 76.6189 99.4075 76.125 100.651 76.125C101.894 76.125 103.086 76.6189 103.965 77.4979C104.844 78.377 105.338 79.5693 105.338 80.8125V80.8125Z" fill="#FFDE55"/>
<path d="M103.776 102.687V105.812C103.776 108.299 102.788 110.683 101.03 112.441C99.2717 114.2 96.8871 115.187 94.4007 115.187H86.4632L84.4476 112.297L72.3851 95.078L66.307 86.3905C65.815 85.7195 65.4619 84.957 65.2685 84.1478C65.0751 83.3385 65.0452 82.4988 65.1806 81.6779C65.316 80.8569 65.6139 80.0712 66.0569 79.367C66.5 78.6627 67.0791 78.054 67.7605 77.5765C68.4419 77.099 69.2118 76.7623 70.025 76.5863C70.8382 76.4103 71.6783 76.3984 72.4962 76.5513C73.3141 76.7043 74.0931 77.019 74.7878 77.477C75.4824 77.935 76.0786 78.5271 76.5414 79.2186L85.2757 91.703L92.9632 102.687H103.776Z" fill="#FFDAAA"/>
<path d="M103.776 96.1562V102.687H92.9632L85.2757 91.7031L84.0882 85.9688L91.2601 87.5L92.8382 93.3125C92.8382 94.5557 93.3321 95.748 94.2112 96.6271C95.0902 97.5061 96.2825 98 97.5257 98C99.3226 98 99.8695 96.375 100.651 94.875C101.648 95.4025 102.695 95.8316 103.776 96.1562V96.1562Z" fill="#00D7DF"/>
<path d="M91.2757 54.25V57.375C91.2733 58.203 90.9432 58.9965 90.3577 59.582C89.7722 60.1675 88.9788 60.4975 88.1507 60.5H85.0257V51.125H88.1507C88.9788 51.1275 89.7722 51.4575 90.3577 52.043C90.9432 52.6285 91.2733 53.422 91.2757 54.25V54.25Z" fill="#FFDAAA"/>
<path d="M91.2757 24.5625V33.9375C91.2784 36.1305 90.7018 38.2853 89.6043 40.184C88.5069 42.0826 86.9274 43.6578 85.0257 44.75V43.3125L74.0882 37.0625L50.6507 43.3125V46.4375C48.9931 46.4375 47.4034 45.779 46.2313 44.6069C45.0592 43.4348 44.4007 41.8451 44.4007 40.1875V37.0625C44.4007 33.7473 45.7177 30.5679 48.0619 28.2237C50.4061 25.8795 53.5855 24.5625 56.9007 24.5625H91.2757Z" fill="#57565C"/>
<path d="M91.2757 24.5625V33.9375C91.2784 36.1305 90.7018 38.2853 89.6043 40.184C88.5069 42.0826 86.9274 43.6578 85.0257 44.75V43.3125L82.2914 41.75C84.062 39.5311 85.0262 36.7763 85.0257 33.9375V24.5625H91.2757Z" fill="#3E3D42"/>
<path d="M85.2757 91.7033L76.5414 79.2189C75.5749 77.9008 74.1306 77.0138 72.518 76.7478C70.9054 76.4819 69.2528 76.8582 67.9143 77.7962C66.5758 78.7341 65.658 80.1591 65.3575 81.7656C65.0571 83.3722 65.3979 85.0325 66.307 86.3908L72.3851 95.0783C71.2601 96.5626 70.1038 98.0001 67.8538 98.0001C63.1663 98.0001 63.1664 91.7501 58.4632 91.7501C53.7601 91.7501 53.7757 98.0001 49.0882 98.0001L51.5882 85.9689L54.6039 71.4845L54.6664 71.2033C55.2999 68.1788 56.955 65.4646 59.3536 63.5164C61.7522 61.5683 64.7482 60.5049 67.8382 60.5049C70.9283 60.5049 73.9242 61.5683 76.3228 63.5164C78.7214 65.4646 80.3765 68.1788 81.0101 71.2033L81.0726 71.4845L84.0882 85.9689L85.2757 91.7033Z" fill="#C0AB91"/>
<path d="M85.2757 91.703L76.5414 79.2186L76.4007 79.0311L74.8226 71.4842L74.7601 71.2029C74.1367 68.1743 72.4796 65.4566 70.0726 63.5154C68.5063 62.2452 66.6748 61.3429 64.7132 60.8748C65.7356 60.6224 66.7851 60.4965 67.8382 60.4998C70.9285 60.5018 73.9241 61.5665 76.3224 63.5153C78.7207 65.4641 80.3758 68.1785 81.0101 71.2029L81.0726 71.4842L84.0882 85.9686L85.2757 91.703Z" fill="#A78966"/>
<path d="M85.0258 51.125V60.5C85.0309 64.5107 83.6323 68.3967 81.0726 71.4844L81.0101 71.2031C80.378 68.1775 78.7235 65.4616 76.3248 63.5122C73.926 61.5628 70.9292 60.4987 67.8382 60.4987C64.7473 60.4987 61.7505 61.5628 59.3517 63.5122C56.953 65.4616 55.2985 68.1775 54.6664 71.2031L54.6039 71.4844C52.0442 68.3967 50.6456 64.5107 50.6507 60.5V43.3125L74.0883 37.0625L85.0258 43.3125V51.125Z" fill="#FFDAAA"/>
<path d="M85.0257 43.3125V60.5C85.0309 64.5107 83.6323 68.3967 81.0726 71.4844L81.0101 71.2031C80.6789 69.6046 80.0594 68.0798 79.182 66.7031C79.9504 64.7255 80.3426 62.6217 80.3382 60.5V43.3125L70.8851 37.9219L74.0882 37.0625L85.0257 43.3125Z" fill="#FFC477"/>
<path d="M84.4476 112.297L67.8382 115.187L31.9007 108.937V96.1562C32.9815 95.8316 34.0281 95.4025 35.0257 94.875C35.807 96.375 36.3539 98 38.1507 98C39.3939 98 40.5862 97.5061 41.4653 96.6271C42.3444 95.748 42.8382 94.5557 42.8382 93.3125L44.4164 87.5L51.5882 85.9688L49.0882 98C53.7757 98 53.7757 91.75 58.4632 91.75C63.1507 91.75 63.1663 98 67.8538 98C70.1038 98 71.2601 96.5625 72.3851 95.0781L84.4476 112.297Z" fill="#00D7DF"/>
<path d="M50.6507 51.125V60.5H47.5257C46.6977 60.4975 45.9043 60.1675 45.3187 59.582C44.7332 58.9965 44.4032 58.203 44.4007 57.375V54.25C44.4032 53.422 44.7332 52.6285 45.3187 52.043C45.9043 51.4575 46.6977 51.1275 47.5257 51.125H50.6507Z" fill="#FFDAAA"/>
<path d="M47.5257 76.125L44.4164 87.5L42.8382 93.3125C42.8382 94.5557 42.3444 95.748 41.4653 96.6271C40.5862 97.5061 39.3939 98 38.1507 98C36.3539 98 35.807 96.375 35.0257 94.875C34.0281 95.4025 32.9815 95.8316 31.9007 96.1562C31.3958 96.3235 30.8698 96.4182 30.3382 96.4375C28.2662 96.4375 26.2791 95.6144 24.814 94.1493C23.3488 92.6841 22.5257 90.697 22.5257 88.625C22.5257 86.553 23.3488 84.5659 24.814 83.1007C26.2791 81.6356 28.2662 80.8125 30.3382 80.8125C30.3382 79.5693 30.8321 78.377 31.7112 77.4979C32.5902 76.6189 33.7825 76.125 35.0257 76.125C36.2689 76.125 37.4612 76.6189 38.3403 77.4979C39.2194 78.377 39.7132 79.5693 39.7132 80.8125L47.5257 76.125Z" fill="#FFDE55"/>
<path d="M73.221 52.425L77.9085 55.55L79.6429 52.95L76.9007 51.125L79.6382 49.3L77.9039 46.7L73.2164 49.825C73.0024 49.9676 72.8269 50.161 72.7055 50.3877C72.5842 50.6145 72.5207 50.8677 72.5207 51.125C72.5207 51.3822 72.5842 51.6354 72.7055 51.8622C72.8269 52.0889 73.0024 52.2823 73.2164 52.425H73.221Z" fill="black"/>
<path d="M57.7679 55.55L62.4554 52.425C62.6694 52.2823 62.8449 52.0889 62.9662 51.8622C63.0876 51.6354 63.1511 51.3822 63.1511 51.125C63.1511 50.8677 63.0876 50.6145 62.9662 50.3877C62.8449 50.161 62.6694 49.9676 62.4554 49.825L57.7679 46.7L56.0335 49.3L58.7757 51.125L56.0382 52.95L57.7679 55.55Z" fill="black"/>
<path d="M66.2757 44.875H69.4007V51.125H66.2757V44.875Z" fill="black"/>
<path d="M106.729 79.3594C106.423 78.0804 105.722 76.9303 104.725 76.0728C103.729 75.2153 102.487 74.6941 101.176 74.5833C99.866 74.4725 98.5542 74.7778 97.4275 75.4558C96.3007 76.1337 95.4166 77.1498 94.9007 78.3594L88.9476 74.7812C88.6805 74.6257 88.3732 74.5528 88.0647 74.5719C87.7561 74.591 87.4602 74.7012 87.2143 74.8886C86.9684 75.0759 86.7836 75.332 86.6833 75.6244C86.583 75.9168 86.5716 76.2324 86.6507 76.5312L89.0726 85.4375L85.4007 84.6562L82.7445 71.8594C84.9068 69.0175 86.218 65.6202 86.5257 62.0625H88.1507C89.3928 62.0588 90.5829 61.5637 91.4612 60.6855C92.3395 59.8072 92.8345 58.6171 92.8382 57.375V54.25C92.8345 53.0079 92.3395 51.8178 91.4612 50.9395C90.5829 50.0613 89.3928 49.5662 88.1507 49.5625H86.5882V45.5781C88.5056 44.3 90.0787 42.5695 91.1688 40.5393C92.2588 38.5091 92.8321 36.2418 92.8382 33.9375V24.5625C92.8382 24.1481 92.6736 23.7507 92.3806 23.4576C92.0876 23.1646 91.6901 23 91.2757 23H56.9007C53.1729 23.0058 49.5994 24.4892 46.9634 27.1252C44.3275 29.7612 42.844 33.3347 42.8382 37.0625V40.1875C42.8428 41.9872 43.4666 43.7305 44.6047 45.1247C45.7427 46.5188 47.3259 47.4789 49.0882 47.8437V49.5625H47.5257C46.2837 49.5662 45.0935 50.0613 44.2153 50.9395C43.337 51.8178 42.8419 53.0079 42.8382 54.25V57.375C42.8419 58.6171 43.337 59.8072 44.2153 60.6855C45.0935 61.5637 46.2837 62.0588 47.5257 62.0625H49.1507C49.4585 65.6202 50.7697 69.0175 52.932 71.8594L50.2757 84.6562L46.6039 85.4375L49.0257 76.5312C49.1048 76.2324 49.0935 75.9168 48.9932 75.6244C48.8929 75.332 48.7081 75.0759 48.4622 74.8886C48.2163 74.7012 47.9204 74.591 47.6118 74.5719C47.3033 74.5528 46.996 74.6257 46.7289 74.7812L40.7757 78.3594C40.2599 77.1498 39.3757 76.1337 38.249 75.4558C37.1223 74.7778 35.8104 74.4725 34.5002 74.5833C33.1899 74.6941 31.9479 75.2153 30.951 76.0728C29.9541 76.9303 29.253 78.0804 28.9476 79.3594C26.6158 79.7186 24.5052 80.9438 23.0368 82.7905C21.5685 84.6373 20.8505 86.9697 21.026 89.3225C21.2015 91.6753 22.2577 93.8754 23.9838 95.4838C25.7099 97.0923 27.9789 97.9907 30.3382 98V108.938C30.339 109.306 30.4693 109.663 30.7063 109.946C30.9433 110.229 31.272 110.419 31.6351 110.484L67.5726 116.734C67.7491 116.755 67.9274 116.755 68.1039 116.734L83.7289 114.016L85.182 116.078C85.3256 116.285 85.5171 116.454 85.7402 116.571C85.9633 116.688 86.2113 116.75 86.4632 116.75H94.4007C97.3005 116.747 100.081 115.593 102.131 113.543C104.182 111.492 105.335 108.712 105.338 105.812V98C107.698 97.9907 109.967 97.0923 111.693 95.4838C113.419 93.8754 114.475 91.6753 114.65 89.3225C114.826 86.9697 114.108 84.6373 112.64 82.7905C111.171 80.9438 109.061 79.7186 106.729 79.3594V79.3594ZM49.0882 58.9375H47.5257C47.1113 58.9375 46.7139 58.7729 46.4209 58.4799C46.1279 58.1868 45.9632 57.7894 45.9632 57.375V54.25C45.9632 53.8356 46.1279 53.4382 46.4209 53.1451C46.7139 52.8521 47.1113 52.6875 47.5257 52.6875H49.0882V58.9375ZM88.1507 52.6875C88.5651 52.6875 88.9626 52.8521 89.2556 53.1451C89.5486 53.4382 89.7132 53.8356 89.7132 54.25V57.375C89.7132 57.7894 89.5486 58.1868 89.2556 58.4799C88.9626 58.7729 88.5651 58.9375 88.1507 58.9375H86.5882V52.6875H88.1507ZM49.0882 43.3125V44.5937C48.1777 44.2694 47.3892 43.6724 46.83 42.884C46.2709 42.0956 45.9682 41.1541 45.9632 40.1875V37.0625C45.9665 34.1627 47.1199 31.3826 49.1704 29.3322C51.2209 27.2817 54.0009 26.1283 56.9007 26.125H89.7132V33.9375C89.709 35.4855 89.3752 37.015 88.734 38.424C88.0928 39.833 87.1589 41.0893 85.9945 42.1094C85.932 42.0625 85.8695 42 85.807 41.9531L74.8695 35.7031C74.5072 35.504 74.0834 35.4482 73.682 35.5469L50.2445 41.7969C49.9115 41.8865 49.6176 42.0838 49.4084 42.3579C49.1993 42.6321 49.0867 42.9677 49.0882 43.3125V43.3125ZM52.2132 60.5V44.5156L73.8695 38.7344L83.4632 44.2187V60.5C83.4615 63.0909 82.8172 65.641 81.5882 67.9219C80.4183 65.2494 78.4944 62.9762 76.0522 61.3804C73.61 59.7847 70.7555 58.9357 67.8382 58.9375C64.9259 58.9492 62.0793 59.8038 59.6421 61.3981C57.2049 62.9924 55.2814 65.2582 54.1039 67.9219C52.8629 65.645 52.2128 63.0931 52.2132 60.5V60.5ZM56.1976 71.5156C56.615 69.5188 57.5393 67.6631 58.8816 66.127C60.2239 64.5909 61.939 63.4262 63.8618 62.745C65.7847 62.0637 67.8505 61.8889 69.8605 62.2373C71.8704 62.5858 73.7569 63.4457 75.3382 64.7344C77.466 66.4436 78.9304 68.842 79.4789 71.5156L82.1976 84.5781L77.8226 78.3281C76.6347 76.6319 74.8221 75.4767 72.7829 75.1164C70.7437 74.756 68.6449 75.2199 66.9476 76.4063C66.1062 76.9932 65.389 77.7404 64.8368 78.605C64.2847 79.4697 63.9086 80.4347 63.7301 81.445C63.5516 82.4552 63.5741 83.4907 63.7964 84.4922C64.0188 85.4937 64.4365 86.4415 65.0257 87.2812L70.432 95.0156C70.1505 95.4446 69.7685 95.7983 69.3192 96.0461C68.8699 96.2939 68.3669 96.4283 67.8539 96.4375C66.3695 96.4375 65.6195 95.5313 64.4164 93.9375C63.1664 92.2656 61.6039 90.1875 58.4632 90.1875C55.3226 90.1875 53.7757 92.2656 52.5257 93.9375C52.1271 94.504 51.6829 95.037 51.1976 95.5312L56.1976 71.5156ZM30.3382 94.875C28.6806 94.875 27.0909 94.2165 25.9188 93.0444C24.7467 91.8723 24.0882 90.2826 24.0882 88.625C24.0882 86.9674 24.7467 85.3777 25.9188 84.2056C27.0909 83.0335 28.6806 82.375 30.3382 82.375C30.7526 82.375 31.1501 82.2104 31.4431 81.9174C31.7361 81.6243 31.9007 81.2269 31.9007 80.8125C31.9007 79.9837 32.23 79.1888 32.816 78.6028C33.4021 78.0167 34.1969 77.6875 35.0257 77.6875C35.8545 77.6875 36.6494 78.0167 37.2354 78.6028C37.8215 79.1888 38.1507 79.9837 38.1507 80.8125C38.1508 81.0883 38.2238 81.3591 38.3624 81.5976C38.5011 81.836 38.7003 82.0335 38.94 82.17C39.1796 82.3064 39.4511 82.3771 39.7269 82.3747C40.0027 82.3723 40.2729 82.2969 40.5101 82.1563L44.9945 79.4687L41.3382 92.9063C41.2935 93.0369 41.2723 93.1745 41.2757 93.3125C41.2733 94.1405 40.9432 94.934 40.3577 95.5195C39.7722 96.105 38.9788 96.435 38.1507 96.4375C37.6507 96.4375 37.4007 96.1562 36.7132 94.75L36.4164 94.1563C36.2192 93.7823 35.8822 93.5015 35.4789 93.375C35.3321 93.3302 35.1791 93.3091 35.0257 93.3125C34.764 93.3112 34.5061 93.3757 34.2757 93.5C33.0596 94.198 31.7245 94.6643 30.3382 94.875V94.875ZM67.8382 113.594L33.4632 107.625V97.2813C33.7601 97.1719 34.057 97.0625 34.3226 96.9375C34.635 97.7008 35.1639 98.3561 35.8441 98.8225C36.5243 99.289 37.3261 99.5462 38.1507 99.5625C39.7698 99.5592 41.3248 98.9294 42.4899 97.8051C43.655 96.6808 44.3398 95.1492 44.4007 93.5312L45.682 88.8281L49.5726 88L47.557 97.6875C47.5093 97.9133 47.5127 98.1469 47.5667 98.3712C47.6208 98.5956 47.7242 98.8051 47.8695 98.9844C48.0181 99.1638 48.2043 99.3086 48.4148 99.4084C48.6254 99.5083 48.8552 99.5609 49.0882 99.5625C52.2132 99.5625 53.7757 97.4844 55.0257 95.8125C56.2289 94.2187 56.9789 93.3125 58.4632 93.3125C59.9476 93.3125 60.7132 94.2187 61.9164 95.8125C63.1664 97.4844 64.7289 99.5625 67.8539 99.5625C68.6839 99.5664 69.5057 99.3976 70.267 99.0667C71.0282 98.7359 71.7123 98.2502 72.2757 97.6406L81.7445 111.187L67.8382 113.594ZM102.213 105.812C102.213 107.885 101.39 109.872 99.925 111.337C98.4599 112.802 96.4727 113.625 94.4007 113.625H87.2757L67.5882 85.5C67.2054 84.9978 66.928 84.4235 66.7726 83.8115C66.6172 83.1994 66.5871 82.5623 66.684 81.9384C66.7809 81.3144 67.003 80.7164 67.3367 80.1804C67.6705 79.6444 68.1091 79.1813 68.6263 78.819C69.1434 78.4566 69.7284 78.2025 70.3462 78.0719C70.964 77.9413 71.6018 77.9368 72.2214 78.0588C72.841 78.1808 73.4295 78.4267 73.9517 78.7817C74.4738 79.1368 74.9189 79.5937 75.2601 80.125L91.682 103.578C91.8265 103.784 92.0182 103.953 92.2411 104.07C92.464 104.186 92.7116 104.248 92.9632 104.25H102.213V105.812ZM102.213 101.125H93.7757L86.7445 91.0625L86.1039 88L89.9945 88.8281L91.2757 93.5312C91.3367 95.1492 92.0214 96.6808 93.1865 97.8051C94.3516 98.9294 95.9066 99.5592 97.5257 99.5625C98.3503 99.5462 99.1522 99.289 99.8324 98.8225C100.513 98.3561 101.041 97.7008 101.354 96.9375C101.619 97.0625 101.916 97.1719 102.213 97.2813V101.125ZM105.338 94.875C103.952 94.6643 102.617 94.198 101.401 93.5C101.031 93.3044 100.6 93.2596 100.198 93.375C99.7942 93.5015 99.4573 93.7823 99.2601 94.1563L98.9632 94.75C98.2757 96.1562 98.0257 96.4375 97.5257 96.4375C96.6977 96.435 95.9043 96.105 95.3188 95.5195C94.7332 94.934 94.4032 94.1405 94.4007 93.3125C94.4041 93.1745 94.383 93.0369 94.3382 92.9063L90.682 79.4687L95.1664 82.1563C95.4036 82.2969 95.6738 82.3723 95.9496 82.3747C96.2254 82.3771 96.4969 82.3064 96.7365 82.17C96.9762 82.0335 97.1754 81.836 97.314 81.5976C97.4526 81.3591 97.5257 81.0883 97.5257 80.8125C97.5257 79.9837 97.855 79.1888 98.441 78.6028C99.0271 78.0167 99.8219 77.6875 100.651 77.6875C101.48 77.6875 102.274 78.0167 102.86 78.6028C103.446 79.1888 103.776 79.9837 103.776 80.8125C103.776 81.2269 103.94 81.6243 104.233 81.9174C104.526 82.2104 104.924 82.375 105.338 82.375C106.996 82.375 108.586 83.0335 109.758 84.2056C110.93 85.3777 111.588 86.9674 111.588 88.625C111.588 90.2826 110.93 91.8723 109.758 93.0444C108.586 94.2165 106.996 94.875 105.338 94.875V94.875Z" fill="black"/>
<path d="M91.2757 68.3125H103.776V71.4375H91.2757V68.3125Z" fill="black"/>
<path d="M90.5367 63.7878L99.9069 59.1027L101.304 61.8965L91.9336 66.5816L90.5367 63.7878Z" fill="black"/>
<path d="M31.9007 68.3125H44.4007V71.4375H31.9007V68.3125Z" fill="black"/>
<path d="M34.3062 61.8989L35.7031 59.1052L45.0734 63.7903L43.6765 66.584L34.3062 61.8989Z" fill="black"/>
</svg>
