<svg width="142" height="130" viewBox="0 0 142 130" fill="none" xmlns="http://www.w3.org/2000/svg">
<path d="M0 6C0 2.68629 2.68629 0 6 0H136C139.314 0 142 2.68629 142 6V130H0V6Z" fill="#8598FF"/>
<path d="M35.875 111H50.875V129.75H35.875V111Z" fill="#FDC9A6"/>
<path d="M94 43.5C94 37.5326 91.6295 31.8097 87.4099 27.5901C83.1903 23.3705 77.4674 21 71.5 21C65.5326 21 59.8097 23.3705 55.5901 27.5901C51.3705 31.8097 49 37.5326 49 43.5V66.1584C49 69.7355 48.0278 73.2452 46.1875 76.3125C44.3472 79.3798 43.375 82.8895 43.375 86.4666V94.125H101.5V86.3032C101.5 84.6219 101.169 82.957 100.525 81.4036C99.882 79.8503 98.9389 78.4389 97.75 77.25C96.5611 76.0611 95.618 74.6497 94.9746 73.0964C94.3312 71.543 94 69.8781 94 68.1968V43.5Z" fill="#55300B"/>
<path d="M79.213 75.192L79.0122 75.3033C76.7144 76.5799 74.1291 77.2498 71.5005 77.2498C68.8718 77.2498 66.2866 76.5799 63.9887 75.3033L63.7879 75.192C61.0109 73.6494 58.6969 71.3922 57.0858 68.6544C55.4747 65.9166 54.6251 62.7977 54.625 59.621V41.9766C56.3406 41.9766 58.027 41.5323 59.5199 40.687C61.0128 39.8417 62.2614 38.6243 63.1441 37.1531L65.875 32.6016C69.4909 41.0386 76.1608 47.798 84.5488 51.5262L88.375 53.2266V59.6208C88.375 62.7974 87.5256 65.9163 85.9146 68.6541C84.3037 71.392 81.9899 73.6492 79.213 75.192V75.192Z" fill="#FDC9A6"/>
<path d="M56.5 62.25H52.75C51.2582 62.25 49.8274 61.6574 48.7725 60.6025C47.7176 59.5476 47.125 58.1168 47.125 56.625C47.125 55.1332 47.7176 53.7024 48.7725 52.6475C49.8274 51.5926 51.2582 51 52.75 51H54.625V60.375L56.5 62.25Z" fill="#FDC9A6"/>
<path d="M86.5 62.25H90.25C91.7418 62.25 93.1726 61.6574 94.2275 60.6025C95.2824 59.5476 95.875 58.1168 95.875 56.625C95.875 55.1332 95.2824 53.7024 94.2275 52.6475C93.1726 51.5926 91.7418 51 90.25 51H88.375V60.375L86.5 62.25Z" fill="#FDC9A6"/>
<path d="M50.875 86.625H47.125C43.644 86.625 40.3056 88.0078 37.8442 90.4692C35.3828 92.9306 34 96.269 34 99.75V111H50.875V86.625Z" fill="#F16465"/>
<path d="M91.8906 86.625H95.6406C99.1216 86.625 102.46 88.0078 104.921 90.4692C107.383 92.9306 108.766 96.269 108.766 99.75V111H91.8906V86.625Z" fill="#F16465"/>
<path d="M94 111H107.125V129.75H94V111Z" fill="#FDC9A6"/>
<path d="M103.375 129.75H94V111H95.3383L103.375 129.75Z" fill="#F6BB92"/>
<path d="M93.6684 102.451L92.125 99.75V86.625H50.875V99.75L49.3317 102.451C47.5747 105.526 46.7824 109.057 47.0576 112.588C47.3328 116.118 48.6628 119.485 50.875 122.25V129.75H92.125V122.25C94.3372 119.485 95.6673 116.118 95.9425 112.588C96.2177 109.057 95.4254 105.526 93.6684 102.451V102.451Z" fill="#F1746A"/>
<path d="M71.5 67.8749C71.2537 67.8752 71.0098 67.8269 70.7822 67.7326C70.5547 67.6384 70.348 67.5001 70.1741 67.3258L68.2991 65.4508C68.0529 65.2045 67.8801 64.8946 67.8001 64.5557C67.7201 64.2168 67.7361 63.8623 67.8463 63.5319L69.7213 57.9069C69.7973 57.6711 69.9194 57.4527 70.0803 57.2643C70.2413 57.076 70.438 56.9214 70.6591 56.8095C70.8802 56.6976 71.1212 56.6306 71.3684 56.6125C71.6155 56.5943 71.8637 56.6253 72.0988 56.7037C72.3339 56.782 72.5511 56.9062 72.7378 57.069C72.9246 57.2318 73.0773 57.43 73.187 57.6522C73.2967 57.8744 73.3613 58.1161 73.377 58.3634C73.3928 58.6106 73.3593 58.8586 73.2786 59.0929L71.7702 63.6184L72.8249 64.6731C73.0874 64.9352 73.2663 65.2693 73.3388 65.6331C73.4114 65.9969 73.3744 66.3741 73.2326 66.7168C73.0907 67.0596 72.8504 67.3526 72.542 67.5587C72.2336 67.7649 71.8709 67.8749 71.5 67.8749V67.8749Z" fill="#55300B"/>
<path d="M67.75 56.625H60.25C59.7527 56.625 59.2758 56.4275 58.9242 56.0759C58.5725 55.7242 58.375 55.2473 58.375 54.75C58.375 54.2528 58.5725 53.7759 58.9242 53.4242C59.2758 53.0726 59.7527 52.875 60.25 52.875H63.2235L60.7991 50.4509C60.625 50.2768 60.4869 50.0701 60.3927 49.8426C60.2985 49.6151 60.25 49.3713 60.25 49.125C60.25 48.8788 60.2985 48.635 60.3927 48.4075C60.4869 48.18 60.625 47.9733 60.7991 47.7992C60.9733 47.6251 61.18 47.487 61.4075 47.3927C61.6349 47.2985 61.8788 47.25 62.125 47.25C62.3712 47.25 62.6151 47.2985 62.8426 47.3927C63.07 47.487 63.2767 47.6251 63.4509 47.7992L69.0759 53.4242C69.3381 53.6864 69.5167 54.0205 69.589 54.3842C69.6614 54.748 69.6243 55.125 69.4823 55.4676C69.3404 55.8102 69.1001 56.1031 68.7917 56.3091C68.4834 56.5151 68.1209 56.6251 67.75 56.625V56.625Z" fill="#55300B"/>
<path d="M82.7499 56.625H75.25C74.8791 56.6251 74.5166 56.5151 74.2082 56.3091C73.8999 56.1031 73.6596 55.8102 73.5176 55.4676C73.3757 55.125 73.3386 54.748 73.4109 54.3842C73.4833 54.0205 73.6619 53.6864 73.9241 53.4242L79.5491 47.7992C79.7232 47.6251 79.9299 47.487 80.1574 47.3927C80.3849 47.2985 80.6287 47.25 80.8749 47.25C81.1212 47.25 81.365 47.2985 81.5925 47.3927C81.82 47.487 82.0267 47.6251 82.2008 47.7992C82.3749 47.9733 82.513 48.18 82.6073 48.4075C82.7015 48.635 82.75 48.8788 82.75 49.125C82.75 49.3713 82.7015 49.6151 82.6073 49.8426C82.513 50.0701 82.3749 50.2768 82.2008 50.4509L79.7764 52.875H82.7499C83.2472 52.875 83.7241 53.0726 84.0757 53.4242C84.4274 53.7759 84.6249 54.2528 84.6249 54.75C84.6249 55.2473 84.4274 55.7242 84.0757 56.0759C83.7241 56.4275 83.2472 56.625 82.7499 56.625V56.625Z" fill="#55300B"/>
<path d="M82.75 90.375L97.75 129.75H82.75L70.6861 87.5625L82.75 90.375Z" fill="#FDC9A6"/>
<path d="M71.5 88.5L56.5 96L58.375 86.625H52.75L65.5443 69.0328C66.2275 68.0934 67.1232 67.3289 68.1583 66.8018C69.1934 66.2748 70.3384 66 71.5 66C72.6616 66 73.8066 66.2748 74.8417 66.8018C75.8768 67.3289 76.7725 68.0934 77.4557 69.0328L90.25 86.625H84.625L86.5 96L71.5 88.5Z" fill="#EAEAE8"/>
</svg>
