<svg width="512" height="502" viewBox="0 0 512 502" fill="none" xmlns="http://www.w3.org/2000/svg">
<path d="M499.031 254.007C507.733 255.72 513.401 264.154 511.697 272.846L505.349 305.178C503.594 314.129 494.716 319.868 485.755 317.669C477.363 315.615 472.273 307.037 473.935 298.561L474.111 297.694L432.261 299.604C431.001 299.656 429.907 300.492 429.515 301.699C425.427 314.046 420.049 325.814 413.535 336.819C412.874 337.934 412.977 339.348 413.813 340.339L432.323 362.327C435.998 358.828 440.798 357.011 445.65 357.011C449.738 357.011 453.867 358.301 457.367 360.985C465.842 367.468 467.452 379.598 460.969 388.083L455.601 395.093C449.304 403.331 437.567 405.54 429.019 399.645C421.659 394.577 418.996 385.461 421.659 377.543L394.994 365.827C393.787 365.3 392.393 365.61 391.516 366.58C379.169 380.135 364.799 391.8 348.881 401.111C347.787 401.751 347.198 402.99 347.405 404.239L354.228 445.862L360.133 443.498C368.609 440.112 378.25 444.448 381.275 453.171C384.104 461.336 379.665 470.266 371.643 473.466L341.469 485.544C333.004 488.93 323.362 484.594 320.338 475.871C317.509 467.706 321.948 458.776 329.969 455.566L330.785 455.246L306.443 421.138C305.71 420.106 304.419 419.651 303.191 419.972C288.646 423.739 273.388 425.763 257.656 425.763C245.206 425.763 233.066 424.493 221.329 422.098C220.09 421.85 218.82 422.377 218.139 423.44L193.786 461.646L194.643 461.956C202.571 464.846 207.485 472.33 207.485 480.3C207.485 482.53 207.103 484.79 206.298 487C206.298 498.427 197.513 504.58 186.777 500.657L156.85 489.745C146.837 486.101 141.613 475.107 145.072 465.063C148.623 454.709 160.422 449.485 170.704 453.233L171.396 453.48L176.351 408.709C176.495 407.45 175.835 406.252 174.709 405.664C155.756 395.877 138.754 382.839 124.436 367.282C123.569 366.343 122.216 366.033 121.039 366.518L84.5162 381.497C88.6455 389.219 86.3228 399.005 78.7869 403.96C70.9207 409.132 60.2982 406.727 54.9302 399.005L45.5774 385.534C40.3436 378.008 41.5617 367.52 48.7673 361.842C56.4477 355.793 67.4005 357.362 73.1505 364.97L98.8757 335.9C99.7325 334.93 99.877 333.526 99.2473 332.4C88.6868 313.365 81.4606 292.223 78.3533 269.77C78.1778 268.511 77.2591 267.489 76.0306 267.21L34.9239 257.713L34.8827 262.534C34.8414 267.354 32.8593 271.721 29.6695 274.87C26.49 278.029 22.1129 279.969 17.2817 279.969C7.68123 279.969 -0.0920838 272.134 0.000824253 262.534L0.269225 232.669C0.35181 222.903 8.42449 214.676 18.1798 214.934C27.6461 215.181 35.2027 222.965 35.1511 232.462L75.9584 222.893C77.1971 222.604 78.1159 221.582 78.2811 220.322C81.4812 196.579 89.2958 174.292 100.785 154.389C101.425 153.274 101.312 151.88 100.476 150.889L81.0167 128.034L79.3237 130.263C74.0796 137.201 64.0661 138.408 57.3045 132.782C50.9661 127.497 50.1918 118.02 55.1676 111.444L68.1334 94.308C71.1478 90.3336 75.7209 88.238 80.356 88.238C83.5665 88.238 86.808 89.2496 89.5746 91.3349C95.9852 96.1765 97.4924 105.075 93.2599 111.744L120.472 123.512C121.669 124.028 123.052 123.719 123.94 122.758C136.782 108.678 151.823 96.641 168.526 87.1747C169.62 86.545 170.229 85.3165 170.043 84.0674L163.777 42.3517L157.831 44.6434C149.325 47.9159 139.735 43.446 136.834 34.6919C134.108 26.4851 138.671 17.6175 146.734 14.5206L177.063 2.85544C185.58 -0.416988 195.159 4.0426 198.06 12.8069C200.786 21.0035 196.233 29.8711 188.16 32.9783L187.345 33.288L211.212 67.7053C211.935 68.7479 213.215 69.2228 214.443 68.9234C228.297 65.5271 242.759 63.7309 257.656 63.7309H257.676C258.977 63.7309 260.143 62.936 260.577 61.7076L268.485 39.5954C259.328 36.7256 253.227 27.6929 254.394 17.8446C255.725 6.68532 266.41 -1.24284 277.569 0.161107L288.429 1.52376C299.495 2.91738 307.795 12.8276 306.587 23.9249C305.637 32.5654 299.423 39.2961 291.536 41.3607L294.282 65.331C294.427 66.6214 295.387 67.6743 296.667 67.953C315.021 71.9894 332.333 78.813 348.127 87.9489C349.232 88.5786 350.595 88.4857 351.575 87.6805L384.331 61.0985L379.355 57.1447C372.201 51.467 371.189 40.9478 377.259 34.0003C382.937 27.4864 392.899 26.9083 399.66 32.2867L425.107 52.489C432.261 58.1564 433.273 68.686 427.203 75.6334C421.525 82.137 411.563 82.7151 404.801 77.3471L404.11 76.8L386.571 114.882C386.034 116.028 386.282 117.38 387.169 118.289C399.516 130.934 410.025 145.387 418.263 161.202C418.861 162.348 420.111 162.998 421.391 162.823L446.259 159.344C442.605 149.144 448.024 137.841 458.451 134.424C468.392 131.162 479.107 136.684 482.762 146.491L488.491 161.852C492.104 171.566 487.768 182.684 478.271 186.813C469.166 190.767 458.895 187.195 454.001 179.123L433.365 193.121C432.282 193.854 431.796 195.196 432.147 196.455C436.39 211.837 438.661 228.023 438.661 244.747C438.661 247.544 438.599 250.321 438.465 253.078C438.413 254.347 439.126 255.514 440.282 256.02L478.973 272.919L480.191 266.673C481.905 257.971 490.339 252.303 499.031 254.007V254.007Z" fill="#FF886D"/>
<path d="M336.256 176.995C350.37 176.995 361.812 167.428 361.812 155.627C361.812 143.826 350.37 134.26 336.256 134.26C322.142 134.26 310.7 143.826 310.7 155.627C310.7 167.428 322.142 176.995 336.256 176.995Z" fill="#FF3D39"/>
<path d="M244.032 316.627C259.459 316.627 271.966 304.121 271.966 288.693C271.966 273.266 259.459 260.76 244.032 260.76C228.605 260.76 216.099 273.266 216.099 288.693C216.099 304.121 228.605 316.627 244.032 316.627Z" fill="#FF3D39"/>
<path d="M352.897 294.141C363.942 294.141 372.897 285.187 372.897 274.141C372.897 263.095 363.942 254.141 352.897 254.141C341.851 254.141 332.897 263.095 332.897 274.141C332.897 285.187 341.851 294.141 352.897 294.141Z" fill="#FF633F"/>
<path d="M279.033 391.189C289.772 391.189 298.477 382.483 298.477 371.744C298.477 361.005 289.772 352.299 279.033 352.299C268.294 352.299 259.588 361.005 259.588 371.744C259.588 382.483 268.294 391.189 279.033 391.189Z" fill="#FF633F"/>
<path d="M147.574 236.077C147.574 166.491 180.77 104.645 232.168 65.5106C226.167 66.3571 220.243 67.5009 214.443 68.9234C213.215 69.2228 211.935 68.7479 211.212 67.7053L187.345 33.288L188.16 32.9783C196.233 29.871 200.786 21.0035 198.06 12.8069C195.159 4.04259 185.58 -0.417003 177.063 2.85543L146.734 14.5206C138.671 17.6175 134.108 26.4851 136.834 34.6919C139.735 43.4459 149.325 47.9159 157.831 44.6434L163.777 42.3517L170.043 84.0674C170.229 85.3165 169.62 86.545 168.526 87.1747C151.823 96.641 136.782 108.678 123.94 122.758C123.052 123.719 121.669 124.028 120.472 123.512L93.2599 111.744C97.4924 105.075 95.9852 96.1765 89.5746 91.3349C86.808 89.2496 83.5665 88.238 80.356 88.238C75.7209 88.238 71.1478 90.3336 68.1334 94.308L55.1676 111.444C50.1918 118.02 50.9661 127.497 57.3045 132.782C64.0661 138.408 74.0796 137.201 79.3237 130.263L81.0167 128.034L100.476 150.889C101.312 151.88 101.425 153.274 100.785 154.389C89.2958 174.292 81.4812 196.579 78.2811 220.322C78.1159 221.582 77.1971 222.604 75.9584 222.893L35.1511 232.462C35.2027 222.965 27.6461 215.181 18.1798 214.934C8.42449 214.676 0.35181 222.903 0.269225 232.669L0.000824253 262.534C-0.0920838 272.134 7.68123 279.969 17.2817 279.969C22.1129 279.969 26.49 278.029 29.6695 274.87C32.8593 271.721 34.8414 267.354 34.8827 262.534L34.9239 257.713L76.0306 267.21C77.2591 267.489 78.1778 268.511 78.3533 269.77C81.4606 292.223 88.6868 313.365 99.2473 332.4C99.877 333.526 99.7325 334.93 98.8757 335.9L73.1505 364.97C67.4005 357.362 56.4477 355.793 48.7673 361.842C41.5617 367.52 40.3436 378.008 45.5774 385.534L54.9302 399.005C60.2982 406.727 70.9207 409.132 78.7869 403.96C86.3228 399.005 88.6455 389.219 84.5162 381.497L121.039 366.518C122.216 366.033 123.569 366.343 124.436 367.282C138.754 382.839 155.756 395.877 174.709 405.664C175.835 406.252 176.495 407.45 176.351 408.709L171.396 453.48L170.704 453.233C160.422 449.485 148.623 454.709 145.072 465.063C141.613 475.107 146.837 486.101 156.85 489.745L186.777 500.657C197.513 504.58 206.298 498.427 206.298 487C207.103 484.79 207.485 482.53 207.485 480.3C207.485 472.33 202.571 464.846 194.643 461.956L193.786 461.646L218.139 423.44C218.82 422.377 220.09 421.85 221.329 422.098C233.066 424.493 245.206 425.763 257.656 425.763C259.12 425.763 260.609 425.744 262.066 425.71C194.008 389.822 147.574 318.365 147.574 236.077V236.077Z" fill="#FF5E39"/>
<path d="M157.363 345.487C168.55 345.487 177.619 336.418 177.619 325.231C177.619 314.044 168.55 304.975 157.363 304.975C146.176 304.975 137.107 314.044 137.107 325.231C137.107 336.418 146.176 345.487 157.363 345.487Z" fill="#FF3D39"/>
<path d="M307.278 236.077H300.434C296.157 236.077 292.691 232.611 292.691 228.335C292.691 224.059 296.157 220.593 300.434 220.593H307.278C311.555 220.593 315.02 224.059 315.02 228.335C315.02 232.611 311.555 236.077 307.278 236.077Z" fill="#FF633F"/>
<path d="M216.098 371.414H209.066C204.789 371.414 201.323 367.947 201.323 363.671C201.323 359.395 204.789 355.929 209.066 355.929H216.098C220.375 355.929 223.84 359.395 223.84 363.671C223.84 367.947 220.375 371.414 216.098 371.414Z" fill="#FF633F"/>
<path d="M143.88 258.662H137.106C132.829 258.662 129.364 255.196 129.364 250.92C129.364 246.644 132.829 243.178 137.106 243.178H143.88C148.157 243.178 151.623 246.644 151.623 250.92C151.623 255.196 148.157 258.662 143.88 258.662Z" fill="#FF3D39"/>
<path d="M281.392 123.206H271.965C267.688 123.206 264.222 119.739 264.222 115.463C264.222 111.187 267.688 107.721 271.965 107.721H281.392C285.668 107.721 289.134 111.187 289.134 115.463C289.134 119.739 285.668 123.206 281.392 123.206Z" fill="#FF633F"/>
<path d="M343.307 346.21H332.897C328.62 346.21 325.154 342.743 325.154 338.467C325.154 334.192 328.62 330.725 332.897 330.725H343.307C347.583 330.725 351.049 334.192 351.049 338.467C351.049 342.743 347.582 346.21 343.307 346.21Z" fill="#FF3D39"/>
<path d="M225.216 211.905C248.334 193.676 254.733 163.247 239.509 143.94C224.285 124.633 193.202 123.759 170.085 141.988C146.967 160.218 140.568 190.647 155.792 209.954C171.016 229.261 202.098 230.134 225.216 211.905Z" fill="#FF3D39"/>
</svg>
