<svg width="140" height="140" viewBox="0 0 140 140" fill="none" xmlns="http://www.w3.org/2000/svg">
<path d="M140 70C140 108.66 108.66 140 70 140C31.3401 140 0 108.66 0 70C0 31.3401 31.3401 0 70 0C108.66 0 140 31.3401 140 70Z" fill="#61D4FF"/>
<path d="M42.9615 53.0967C42.9615 53.0967 37.2615 45.4176 37.4225 34.4647C37.4225 34.4647 40.6451 35.2317 43.4895 34.4647C49.0645 32.9614 54.5498 21.901 64.2143 21.5787C73.8787 21.2565 75.7528 25.7666 75.7528 25.7666C75.7528 25.7666 79.308 23.6533 84.6168 24.3707C92.5631 25.4446 99.543 37.5504 92.4489 54.1807" fill="#E5907B"/>
<path d="M83.641 46.509C80.1912 43.3264 76.3508 37.8207 74.8082 35.5213C74.4541 34.9934 73.7025 34.9442 73.273 35.4131C65.4908 43.9127 55.4105 46.7452 50.8998 47.6262C49.5256 47.8946 48.5365 49.1002 48.5365 50.5004V59.5993C48.5365 69.8032 56.8084 78.075 67.0123 78.075C77.2162 78.075 85.4881 69.8032 85.4881 59.5993V50.7789C85.4881 49.1618 84.8297 47.6055 83.641 46.509V46.509Z" fill="#FDD4BB"/>
<path d="M67.0123 74.5595C56.8084 74.5595 48.5365 66.2876 48.5365 56.0837V59.5994C48.5365 69.8033 56.8084 78.0751 67.0123 78.0751C77.2162 78.0751 85.4881 69.8033 85.4881 59.5994V56.0837C85.4881 66.2875 77.2162 74.5595 67.0123 74.5595Z" fill="#F7C4A8"/>
<path d="M48.5366 59.5992V53.0742C47.7153 52.6226 46.7719 52.365 45.7684 52.365C42.5907 52.365 40.0145 54.9412 40.0145 58.1189C40.0145 61.2966 42.5907 63.8728 45.7684 63.8728C46.9008 63.8728 47.9559 63.5443 48.8461 62.9794C48.6436 61.8835 48.5366 60.7539 48.5366 59.5992Z" fill="#EBBAA1"/>
<path d="M85.4881 59.5992V53.0742C86.3094 52.6226 87.2525 52.365 88.2562 52.365C91.434 52.365 94.0101 54.9412 94.0101 58.1189C94.0101 61.2966 91.434 63.8728 88.2562 63.8728C87.1238 63.8728 86.0687 63.5443 85.1785 62.9794C85.3812 61.8835 85.4881 60.7539 85.4881 59.5992Z" fill="#EBBAA1"/>
<path d="M45.7684 60.3577C43.2038 60.3577 41.0321 58.6795 40.2889 56.3616C40.1112 56.9159 40.0145 57.5061 40.0145 58.1194C40.0145 61.2971 42.5907 63.8733 45.7684 63.8733C46.9008 63.8733 47.9559 63.5448 48.8461 62.9799C48.6461 61.8985 48.5405 60.7842 48.5376 59.6456C47.7159 60.0983 46.7729 60.3577 45.7684 60.3577V60.3577Z" fill="#E8A990"/>
<path d="M88.2562 60.3577C87.2517 60.3577 86.3088 60.0983 85.4871 59.6456C85.4844 60.7842 85.3785 61.8985 85.1785 62.9799C86.0687 63.5448 87.1238 63.8733 88.2562 63.8733C91.434 63.8733 94.0101 61.2971 94.0101 58.1194C94.0101 57.5061 93.9133 56.9159 93.7355 56.3616C92.9926 58.6795 90.8207 60.3577 88.2562 60.3577V60.3577Z" fill="#E8A990"/>
<path d="M75.6672 75.9265C73.0858 77.2976 70.1409 78.0755 67.0141 78.0755C63.8874 78.0755 60.9424 77.2976 58.361 75.9265C45.8934 78.5365 36.5295 89.5916 36.5295 102.835V118.438H97.4989V102.835C97.4987 89.5916 88.1348 78.5367 75.6672 75.9265V75.9265Z" fill="#F4594E"/>
<path d="M36.5295 114.922H97.4989V118.437H36.5295V114.922Z" fill="#E84642"/>
<path d="M67.0123 78.0752C63.8621 78.0752 60.8965 77.286 58.3012 75.8958C58.2834 76.1229 58.2717 76.3516 58.2717 76.5834C58.2717 81.4106 62.185 85.3239 67.0121 85.3239C71.8395 85.3239 75.7525 81.4106 75.7525 76.5834C75.7525 76.3518 75.7408 76.1229 75.723 75.8958C73.1279 77.286 70.1625 78.0752 67.0123 78.0752Z" fill="#EBBAA1"/>
<path d="M83.4893 109.525H97.4969V118.437H83.4893V109.525Z" fill="#FDD4BB"/>
<path d="M50.5352 118.437H36.5276V109.525H50.5352V118.437Z" fill="#FDD4BB"/>
<path d="M83.4893 114.922H97.4969V118.437H83.4893V114.922Z" fill="#F7C4A8"/>
<path d="M36.5295 114.922H50.5371V118.437H36.5295V114.922Z" fill="#F7C4A8"/>
<path d="M83.1172 68.6579C81.2889 66.5708 74.7674 59.8088 67.0123 59.8088C59.2571 59.8088 52.7358 66.5706 50.9073 68.6579C54.0756 74.2786 60.1002 78.0751 67.0123 78.0751C73.9245 78.0749 79.9489 74.2786 83.1172 68.6579Z" fill="#EBF2F8"/>
<path d="M67.0123 74.5595C60.9869 74.5595 55.636 71.6748 52.2633 67.2117C51.6836 67.7937 51.2237 68.2968 50.9073 68.6582C54.0756 74.2789 60.1002 78.0753 67.0123 78.0753C73.9245 78.0753 79.9489 74.2791 83.1172 68.6582C82.8008 68.297 82.3409 67.7937 81.7612 67.2119C78.3885 71.6746 73.0375 74.5595 67.0123 74.5595V74.5595Z" fill="#D6E3ED"/>
<path d="M58.6094 57.9223C59.4199 57.9223 60.0771 57.2653 60.0771 56.4545V53.8362C60.0771 53.0256 59.4199 52.3684 58.6094 52.3684C57.7988 52.3684 57.1416 53.0256 57.1416 53.8362V56.4545C57.1416 57.2653 57.7988 57.9223 58.6094 57.9223Z" fill="black"/>
<path d="M75.4152 57.9223C76.2258 57.9223 76.883 57.2653 76.883 56.4545V53.8362C76.883 53.0256 76.226 52.3684 75.4152 52.3684C74.6047 52.3684 73.9474 53.0256 73.9474 53.8362V56.4545C73.9474 57.2653 74.6047 57.9223 75.4152 57.9223Z" fill="black"/>
<path d="M93.6785 86.114C93.209 85.4533 92.2928 85.2982 91.632 85.7677C90.9711 86.2373 90.816 87.1535 91.2855 87.8142C94.4279 92.2371 96.0889 97.4533 96.0889 102.899V108.135H84.9892V101.21C84.9892 100.4 84.332 99.7423 83.5215 99.7423C82.7109 99.7423 82.0537 100.4 82.0537 101.21V109.602V117.065H64.48C63.6695 117.065 63.0123 117.722 63.0123 118.532C63.0123 119.343 63.6695 120 64.48 120H97.5564C98.367 120 99.0242 119.343 99.0242 118.532V102.899C99.0242 96.8404 97.1758 91.0363 93.6785 86.114V86.114ZM96.0889 117.065H84.9892V111.07H96.0889V117.065Z" fill="black"/>
<path d="M58.6094 117.065H51.9709V109.602V101.21C51.9709 100.4 51.3139 99.7423 50.5031 99.7423C49.6926 99.7423 49.0354 100.4 49.0354 101.21V108.135H37.9357V102.899C37.9357 96.8753 40.0377 90.9999 43.8545 86.355C47.2291 82.2482 51.7975 79.2617 56.8621 77.816C57.4672 82.881 61.7869 86.8216 67.0121 86.8216C72.2375 86.8216 76.5572 82.8808 77.1623 77.8156C81.0278 78.9167 84.6063 80.9101 87.5987 83.6449C88.1953 84.1906 89.1241 84.1511 89.6723 83.5517C90.2192 82.9533 90.1774 82.0249 89.5791 81.4781C86.5764 78.7337 83.041 76.663 79.2196 75.3845C82.5553 72.8021 85.0553 69.19 86.2365 65.0281C86.9016 65.2259 87.5947 65.3292 88.2977 65.3292C92.286 65.3292 95.5307 62.0847 95.5307 58.0964C95.5307 56.5355 95.0321 55.0898 94.1879 53.9066C97.811 44.9128 97.8278 36.1636 94.2065 29.7892C91.9786 25.8675 88.5676 23.33 84.8479 22.8273C80.9375 22.2988 77.8836 23.1765 76.2733 23.8249C75.8553 23.3388 75.2569 22.7732 74.4192 22.23C71.9332 20.6179 68.4819 19.8728 64.16 20.0177C60.5785 20.137 57.2127 21.5488 53.5678 24.4605C52.9344 24.9663 52.8313 25.89 53.3371 26.5234C53.8428 27.1566 54.7662 27.2599 55.4 26.754C58.5258 24.257 61.3404 23.0488 64.258 22.9515C72.3522 22.6847 74.2895 26.014 74.4211 26.2613C74.7139 27.0939 75.7865 27.4261 76.5199 26.9425C76.5512 26.9238 79.6975 25.0937 84.4549 25.7367C87.2588 26.1156 89.8828 28.1212 91.6543 31.2394C93.1258 33.8296 95.952 40.8482 91.8569 51.8038C90.8053 51.2068 89.5912 50.8638 88.2979 50.8638C87.859 50.8638 87.4217 50.9054 86.992 50.9843V50.7421C86.992 48.6995 86.1451 46.7468 84.6688 45.3849C81.3158 42.2917 77.5192 36.8382 76.0422 34.637C75.217 33.3335 73.2125 33.1917 72.2028 34.3552C64.5897 42.6703 54.55 45.3687 50.5869 46.1429C48.5275 46.5453 47.0326 48.362 47.0326 50.4632V50.9845C46.6029 50.9056 46.1658 50.864 45.727 50.864C44.9371 50.864 44.177 50.9931 43.4648 51.2283C42.1426 49.0685 39.1719 43.448 38.8563 36.1134C40.1859 36.2492 42.0539 36.291 43.8256 35.813C46.3943 35.1204 48.8043 32.822 51.135 30.5992C51.7215 30.0398 51.7436 29.1107 51.184 28.5242C50.6246 27.9376 49.6957 27.9156 49.109 28.4751C47.0441 30.4445 44.909 32.4808 43.0613 32.979C40.6199 33.637 37.7311 32.9745 37.7043 32.9683C36.8238 32.7351 35.8871 33.4634 35.8971 34.3745C35.7664 43.2603 39.2734 50.0281 40.9164 52.7017C39.4313 54.0273 38.4939 55.9542 38.4939 58.097C38.4939 62.0853 41.7385 65.3298 45.7268 65.3298C46.4295 65.3298 47.1227 65.2267 47.7877 65.0288C48.9688 69.19 51.4682 72.8015 54.8029 75.3839C49.669 77.107 45.0588 80.2663 41.5863 84.4923C37.3391 89.6609 35 96.1982 35 102.9V118.533C35 119.344 35.657 120.001 36.4678 120.001H58.609C59.4195 120.001 60.0768 119.344 60.0768 118.533C60.077 117.722 59.4199 117.065 58.6094 117.065V117.065ZM79.8112 63.4787L84.0565 57.5884V59.5794C84.0565 61.8884 83.594 64.0913 82.7584 66.1015C81.9719 65.3179 80.9774 64.4027 79.8112 63.4787V63.4787ZM88.2977 53.7988C90.6672 53.7988 92.5952 55.7265 92.5952 58.0962C92.5952 60.466 90.6672 62.3937 88.2977 62.3937C87.7932 62.3937 87.2969 62.305 86.8291 62.1345C86.9364 61.2976 86.9918 60.4449 86.9918 59.5792V54.0023C87.4121 53.8687 87.8533 53.7988 88.2977 53.7988ZM51.1498 49.0234C55.3266 48.2074 65.8043 45.3929 73.951 36.7847C75.6766 39.322 79.3399 44.4622 82.6783 47.5421C83.5541 48.3501 84.0565 49.5163 84.0565 50.7419V52.5679L77.4278 61.7652C74.511 59.8796 70.9196 58.3218 67.0123 58.3218C63.1047 58.3218 59.5135 59.8796 56.5967 61.765L49.9682 52.5677V50.4626C49.9682 49.7624 50.465 49.1572 51.1498 49.0234ZM51.2662 66.1013C50.4305 64.0912 49.968 61.8884 49.968 59.5792V57.5882L54.2133 63.4785C53.0471 64.4027 52.0525 65.3179 51.2662 66.1013V66.1013ZM45.727 62.3937C43.3572 62.3937 41.4295 60.466 41.4295 58.0962C41.4295 55.7265 43.3572 53.7988 45.727 53.7988C46.1713 53.7988 46.6123 53.8685 47.0326 54.0023V59.5792C47.0326 60.4449 47.0881 61.2976 47.1955 62.1345C46.7275 62.305 46.2315 62.3937 45.727 62.3937V62.3937ZM52.7031 68.8294C53.774 67.6956 55.4438 66.1001 57.5506 64.6464C60.8102 62.3976 63.9936 61.2572 67.0123 61.2572C73.3778 61.2572 78.96 66.3318 81.3211 68.8296C78.2809 73.5163 73.003 76.6234 67.0123 76.6234C61.0217 76.6236 55.7436 73.5163 52.7031 68.8294V68.8294ZM67.0123 79.5589C69.5108 79.5589 71.903 79.0966 74.1096 78.2552C73.3565 81.4779 70.4613 83.8863 67.0123 83.8863C63.5635 83.8863 60.6684 81.4779 59.9151 78.2552C62.1217 79.0966 64.5139 79.5589 67.0123 79.5589ZM49.0354 117.065H37.9357V111.07H49.0354V117.065Z" fill="black"/>
</svg>
