<svg width="100" height="120" viewBox="0 0 100 120" fill="none" xmlns="http://www.w3.org/2000/svg">
<rect width="100" height="120" rx="6" fill="#00BA00"/>
<path d="M50.9805 46.0477C49.5533 46.0477 48.1581 45.6244 46.9714 44.8315C45.7847 44.0386 44.8598 42.9116 44.3136 41.593C43.7674 40.2744 43.6245 38.8234 43.903 37.4236C44.1814 36.0238 44.8687 34.738 45.8779 33.7288C46.8871 32.7196 48.1729 32.0323 49.5727 31.7539C50.9725 31.4755 52.4235 31.6184 53.7421 32.1645C55.0606 32.7107 56.1877 33.6356 56.9806 34.8223C57.7735 36.009 58.1967 37.4042 58.1967 38.8315C58.1955 40.7449 57.4348 42.5796 56.0817 43.9327C54.7287 45.2857 52.894 46.0464 50.9805 46.0477ZM50.9805 33.2433C49.874 33.2433 48.7924 33.5715 47.8723 34.1862C46.9523 34.8009 46.2352 35.6747 45.8118 36.697C45.3884 37.7193 45.2776 38.8441 45.4934 39.9294C45.7093 41.0146 46.2421 42.0115 47.0246 42.7939C47.807 43.5763 48.8038 44.1092 49.8891 44.325C50.9743 44.5409 52.0992 44.4301 53.1215 44.0067C54.1438 43.5832 55.0175 42.8662 55.6323 41.9461C56.247 41.0261 56.5751 39.9444 56.5751 38.8379C56.5751 37.3542 55.9857 35.9312 54.9365 34.882C53.8873 33.8328 52.4643 33.2433 50.9805 33.2433Z" fill="white"/>
<path d="M50.9805 33.2433C49.874 33.2433 48.7924 33.5715 47.8723 34.1862C46.9523 34.8009 46.2352 35.6747 45.8118 36.697C45.3884 37.7193 45.2776 38.8441 45.4934 39.9294C45.7093 41.0146 46.2421 42.0115 47.0246 42.7939C47.807 43.5763 48.8038 44.1092 49.8891 44.325C50.9743 44.5409 52.0992 44.4301 53.1215 44.0067C54.1438 43.5832 55.0175 42.8662 55.6323 41.9461C56.247 41.0261 56.5751 39.9444 56.5751 38.8379C56.5751 37.3542 55.9857 35.9312 54.9365 34.882C53.8873 33.8328 52.4643 33.2433 50.9805 33.2433Z" fill="white"/>
<path d="M59.5711 70.865H57.9803C57.7652 70.865 57.559 70.7796 57.407 70.6275C57.2549 70.4755 57.1695 70.2692 57.1695 70.0542C57.1695 69.8392 57.2549 69.6329 57.407 69.4809C57.559 69.3288 57.7652 69.2434 57.9803 69.2434H59.5703C60.4016 69.2425 61.1986 68.9119 61.7864 68.3241C62.3742 67.7363 62.7048 66.9393 62.7057 66.108V53.3515C62.7044 52.3975 62.325 51.483 61.6507 50.8082C60.9764 50.1334 60.0621 49.7534 59.1081 49.7515H42.8919C41.9374 49.7526 41.0222 50.1322 40.3472 50.8071C39.6722 51.4819 39.2924 52.397 39.2911 53.3515V66.112C39.293 66.9431 39.6244 67.7394 40.2127 68.3264C40.8009 68.9134 41.5979 69.2432 42.4289 69.2434H43.9614C44.1764 69.2434 44.3826 69.3288 44.5347 69.4809C44.6868 69.6329 44.7722 69.8392 44.7722 70.0542C44.7722 70.2692 44.6868 70.4755 44.5347 70.6275C44.3826 70.7796 44.1764 70.865 43.9614 70.865H42.4289C41.1677 70.8637 39.9585 70.3621 39.0666 69.4703C38.1748 68.5785 37.6732 67.3692 37.6719 66.108V53.3515C37.6736 51.9675 38.2241 50.6406 39.2026 49.6617C40.1811 48.6829 41.5079 48.132 42.8919 48.1299H59.1081C60.4926 48.1314 61.8199 48.682 62.799 49.6609C63.778 50.6398 64.3288 51.967 64.3306 53.3515V66.112C64.3282 67.373 63.8258 68.5816 62.9335 69.4726C62.0413 70.3636 60.8321 70.8644 59.5711 70.865Z" fill="white"/>
<path d="M54.476 88.3781C53.3394 88.3768 52.2498 87.9247 51.4462 87.1211C50.6425 86.3175 50.1905 85.2279 50.1892 84.0913V70.5808C50.1892 70.3657 50.2746 70.1595 50.4267 70.0075C50.5787 69.8554 50.785 69.77 51 69.77C51.2151 69.77 51.4213 69.8554 51.5733 70.0075C51.7254 70.1595 51.8108 70.3657 51.8108 70.5808V84.0913C51.8108 84.7982 52.0916 85.4761 52.5914 85.9759C53.0912 86.4757 53.7691 86.7565 54.476 86.7565C55.1828 86.7565 55.8607 86.4757 56.3605 85.9759C56.8603 85.4761 57.1411 84.7982 57.1411 84.0913V58.4802C57.1411 58.2652 57.2265 58.059 57.3786 57.9069C57.5306 57.7549 57.7369 57.6694 57.9519 57.6694C58.1669 57.6694 58.3732 57.7549 58.5252 57.9069C58.6773 58.059 58.7627 58.2652 58.7627 58.4802V84.0913C58.7614 85.2279 58.3094 86.3175 57.5057 87.1211C56.7021 87.9247 55.6125 88.3768 54.476 88.3781Z" fill="white"/>
<path d="M47.5241 88.3781C46.3875 88.3768 45.2979 87.9247 44.4943 87.1211C43.6906 86.3175 43.2386 85.2279 43.2373 84.0913V58.4802C43.2373 58.2652 43.3227 58.059 43.4748 57.9069C43.6268 57.7549 43.8331 57.6694 44.0481 57.6694C44.2632 57.6694 44.4694 57.7549 44.6214 57.9069C44.7735 58.059 44.8589 58.2652 44.8589 58.4802V84.0913C44.8589 84.7982 45.1397 85.4761 45.6395 85.9759C46.1393 86.4757 46.8172 86.7565 47.5241 86.7565C48.2309 86.7565 48.9088 86.4757 49.4086 85.9759C49.9084 85.4761 50.1892 84.7982 50.1892 84.0913V70.5808C50.1892 70.3657 50.2746 70.1595 50.4267 70.0075C50.5787 69.8554 50.785 69.77 51 69.77C51.215 69.77 51.4213 69.8554 51.5733 70.0075C51.7254 70.1595 51.8108 70.3657 51.8108 70.5808V84.0913C51.8095 85.2279 51.3575 86.3175 50.5538 87.1211C49.7502 87.9247 48.6606 88.3768 47.5241 88.3781Z" fill="white"/>
</svg>
