<svg width="142" height="130" viewBox="0 0 142 130" fill="none" xmlns="http://www.w3.org/2000/svg">
<path d="M0 6C0 2.68629 2.68629 0 6 0H136C139.314 0 142 2.68629 142 6V130H0V6Z" fill="#4FC0FF"/>
<path d="M100.468 126.371V113.894C100.468 100.223 90.8022 88.8118 77.9322 86.1174C75.2674 87.5327 72.2276 88.3356 69 88.3356C65.7723 88.3356 62.7326 87.5327 60.0678 86.1174C47.1981 88.8118 37.532 100.223 37.532 113.894V120.8L39.2899 126.371L69 128.129L100.468 126.371Z" fill="#B3E59F"/>
<path d="M53.317 130H83.899L92.7645 128.242L100.468 130V126.371H53.317L51.5592 128.186L53.317 130Z" fill="#95D6A4"/>
<path d="M37.532 126.371L44.7617 128.129L51.9914 126.371V120.8H37.532V126.371Z" fill="#FDD4BB"/>
<path d="M37.532 126.371H50.293L52.0508 128.186L50.293 130H38.5086C37.9693 130 37.532 129.563 37.532 129.023V126.371Z" fill="#F7C4A8"/>
<path d="M80.8252 126.371L89.8678 128.129L97.3213 126.371L82.6785 109.215C82.6785 109.215 86.8168 103.625 84.2365 101.045C81.6564 98.4645 78.8363 102.394 78.8363 102.394C78.8363 102.394 75.9096 95.8184 69 95.8184C61.6748 95.8184 56.3297 109.841 71.9711 115.917L80.8252 126.371Z" fill="#FDD4BB"/>
<path d="M53.317 126.371V112.154C53.317 111.319 52.6401 110.642 51.8049 110.642C50.9697 110.642 50.2928 111.319 50.2928 112.154V126.371L51.8049 128.185L53.317 126.371Z" fill="#95D6A4"/>
<path d="M50.2938 126.371H53.318V130H50.2938V126.371Z" fill="#78C2A4"/>
<path d="M44.1734 62.5518C44.1734 62.5518 38.6949 55.1709 38.4602 44.4951C38.4471 43.8979 38.9764 43.433 39.5682 43.5145C40.792 43.6828 42.8356 43.8264 44.7188 43.3186C50.4736 41.7668 56.1359 30.3496 66.1119 30.017C76.0881 29.6844 78.0227 34.3401 78.0227 34.3401C78.0227 34.3401 81.6926 32.1584 87.1727 32.899C95.3752 34.0074 102.58 46.5039 95.2572 63.6707L44.1734 62.5518Z" fill="#565E75"/>
<path d="M41.4147 65.9217C41.4147 69.6234 44.4235 71.8045 47.0709 71.8045L49.9293 69.3117C49.9293 69.2959 52.4227 65.9377 52.4227 65.9217L49.9281 62.5287C49.0803 62.0625 48.1067 61.7969 47.0707 61.7969C44.4235 61.7967 42.1817 63.5291 41.4147 65.9217Z" fill="#EBBAA1"/>
<path d="M47.0709 70.0469C44.4237 70.0469 42.1819 68.3145 41.4149 65.9219C41.2315 66.4939 41.1315 67.1033 41.1315 67.7363C41.1315 71.0166 43.7906 73.6758 47.0709 73.6758C48.2399 73.6758 49.3289 73.3367 50.2479 72.7537L51.8049 70.6775L49.9293 69.3119C49.0811 69.7791 48.1076 70.0469 47.0709 70.0469Z" fill="#E8A990"/>
<path d="M96.5854 65.9217C96.5854 69.6234 93.5766 71.8045 90.9291 71.8045L88.0707 69.3117C88.0707 69.2959 85.5774 65.9377 85.5774 65.9217L88.0719 62.5287C88.9198 62.0625 89.8934 61.7969 90.9293 61.7969C93.5766 61.7967 95.8184 63.5291 96.5854 65.9217Z" fill="#EBBAA1"/>
<path d="M90.9293 70.0469C93.5766 70.0469 95.8186 68.3145 96.5855 65.9219C96.7689 66.4939 96.8689 67.1033 96.8689 67.7363C96.8689 71.0166 94.2098 73.6758 90.9295 73.6758C89.7605 73.6758 88.6715 73.3367 87.7525 72.7537L86.1953 70.6775L88.0709 69.3119C88.9189 69.7791 89.8924 70.0469 90.9293 70.0469V70.0469Z" fill="#E8A990"/>
<path d="M69 86.4648C79.533 86.4648 88.0719 79.0646 88.0719 65.6353V60.1595C88.0719 58.4899 87.3922 56.8837 86.1652 55.7517C82.6041 52.4665 78.6399 46.7831 77.0475 44.4097C76.6818 43.8648 75.9061 43.814 75.4629 44.298C67.4297 53.0716 57.024 55.9954 52.368 56.905C50.9494 57.1821 49.9285 58.4267 49.9285 59.872V65.6353C49.9281 78.3081 58.467 86.4648 69 86.4648V86.4648Z" fill="#FDD4BB"/>
<path d="M60.008 86.0862C59.9898 86.3208 59.9775 86.5569 59.9775 86.7959C59.9775 91.779 64.017 95.8184 69 95.8184C73.983 95.8184 78.0225 91.779 78.0225 86.7959C78.0225 86.5569 78.0104 86.3206 77.992 86.0862H60.008Z" fill="#EBBAA1"/>
<path d="M69 84.7069C58.467 84.7069 49.9282 76.1683 49.9282 65.6353V69.2644C49.9282 79.7974 58.4668 88.336 68.9998 88.336C79.5328 88.336 88.0715 79.7974 88.0715 69.2644V65.6353C88.0717 76.1681 79.533 84.7069 69 84.7069V84.7069Z" fill="#F7C4A8"/>
<path d="M80.8253 126.371L83.8991 130H100.419L97.3213 126.371H80.8253Z" fill="#F7C4A8"/>
<path d="M60.8061 62.0029C59.1918 63.5882 57.2772 64.1498 57.234 64.1623C56.4295 64.3851 55.9563 65.217 56.1762 66.0228C56.3602 66.697 56.9713 67.1404 57.6383 67.1404C57.7705 67.1404 57.9047 67.123 58.0385 67.0865C58.1471 67.0568 60.7229 66.3359 62.9313 64.1666C63.5287 63.5797 63.5373 62.6195 62.9506 62.022C62.3639 61.4246 61.4035 61.4156 60.8061 62.0029V62.0029Z" fill="#565E75"/>
<path d="M79.9615 67.0869C80.0949 67.1232 80.2291 67.1408 80.3609 67.1408C81.0248 67.1408 81.632 66.7 81.8185 66.0289C82.0418 65.2244 81.5697 64.3898 80.7664 64.1627C80.7471 64.1572 78.8182 63.5988 77.1938 62.0031C76.5963 61.4162 75.6363 61.4252 75.0492 62.0222C74.4623 62.6197 74.4709 63.58 75.0684 64.1668C77.2772 66.3365 79.8529 67.0574 79.9615 67.0869Z" fill="#565E75"/>
<path d="M70.4355 77.0933C70.4355 77.931 71.1145 78.6097 71.952 78.6097C72.7897 78.6097 73.4684 77.9308 73.4684 77.0933C73.4684 74.366 71.4637 72.1472 68.9998 72.1472C66.5357 72.1472 64.5312 74.366 64.5312 77.0933C64.5312 77.931 65.2102 78.6097 66.0477 78.6097C66.8852 78.6097 67.5641 77.9308 67.5641 77.0933C67.5641 76.0562 68.2215 75.1802 68.9998 75.1802C69.7781 75.18 70.4355 76.0562 70.4355 77.0933V77.0933Z" fill="#F4594E"/>
<path d="M41.1449 86.6248C42.2193 86.6248 43.2447 86.0675 44.2377 85.5279C45.0008 85.113 45.866 84.6429 46.4252 84.6429C47.5908 84.6429 48.3021 85.2414 48.3318 85.2669C48.6055 85.5355 48.9799 85.7015 49.3936 85.7015C50.2311 85.7015 50.91 85.0226 50.91 84.1851C50.91 83.7121 50.6932 83.2896 50.3535 83.0115C50.1316 82.8107 48.7096 81.6101 46.4252 81.6101C45.0949 81.6101 43.8699 82.2759 42.7893 82.8634C42.2809 83.1396 41.4383 83.6068 41.1436 83.5921C40.308 83.5574 39.5988 84.204 39.5623 85.041C39.5256 85.8777 40.1742 86.5857 41.0109 86.6224C41.0559 86.624 41.1004 86.6248 41.1449 86.6248V86.6248Z" fill="#F4594E"/>
<path d="M55.8496 92.8402C55.3652 92.8337 53.65 92.9136 52.0178 94.2581C50.9933 95.1019 50.4711 96.3925 50.0516 97.4294C49.7375 98.2058 50.1121 99.0898 50.8883 99.404C51.6449 99.7161 52.549 99.3515 52.8629 98.5673C53.1385 97.8862 53.516 96.9534 53.9459 96.5993C54.8461 95.8581 55.7893 95.8689 55.7893 95.8689C56.6502 95.9179 57.3805 95.2165 57.3777 94.356C57.3777 93.5544 56.7553 92.8997 55.9678 92.8449C55.9678 92.845 55.8611 92.839 55.8496 92.8402Z" fill="#F4594E"/>
<path d="M96.8549 86.6248C95.7805 86.6248 94.7551 86.0675 93.7621 85.5279C92.999 85.113 92.1338 84.6429 91.5746 84.6429C90.409 84.6429 89.6977 85.2414 89.668 85.2669C89.3943 85.5355 89.0199 85.7015 88.6063 85.7015C87.7688 85.7015 87.0898 85.0226 87.0898 84.1851C87.0898 83.7121 87.3066 83.2896 87.6463 83.0115C87.8682 82.8107 89.2902 81.6101 91.5746 81.6101C92.9049 81.6101 94.1299 82.2759 95.2106 82.8634C95.719 83.1396 96.5615 83.6068 96.8563 83.5921C97.6918 83.5574 98.401 84.204 98.4375 85.041C98.4742 85.8777 97.8256 86.5857 96.9889 86.6224C96.944 86.624 96.8994 86.6248 96.8549 86.6248V86.6248Z" fill="#F4594E"/>
<path d="M83.4023 92.8402C83.8867 92.8337 85.602 92.9136 87.2342 94.2581C88.2586 95.1019 88.7809 96.3925 89.2004 97.4294C89.5145 98.2058 89.1398 99.0898 88.3637 99.404C87.607 99.7161 86.7029 99.3515 86.3891 98.5673C86.1135 97.8862 85.7359 96.9534 85.3061 96.5993C84.4059 95.8581 83.4627 95.8689 83.4627 95.8689C82.6018 95.9179 81.8715 95.2165 81.8742 94.356C81.8742 93.5544 82.4967 92.8997 83.2842 92.8449C83.284 92.845 83.3908 92.839 83.4023 92.8402V92.8402Z" fill="#F4594E"/>
</svg>
