<svg width="155" height="130" viewBox="0 0 155 130" fill="none" xmlns="http://www.w3.org/2000/svg">
<rect width="155" height="130" rx="8" fill="#FF706D"/>
<circle cx="77.5" cy="64.5" r="47.5" fill="#FF8482"/>
<path d="M69.8436 112.906C88.9821 112.906 104.497 97.3913 104.497 78.2528C104.497 59.1143 88.9821 43.5995 69.8436 43.5995C50.7051 43.5995 35.1902 59.1143 35.1902 78.2528C35.1902 97.3913 50.7051 112.906 69.8436 112.906Z" fill="#EDEBDC"/>
<path d="M68.6055 113.603L40.5197 85.5172C36.5075 81.5049 36.5075 74.9999 40.5197 70.9877L68.6055 42.9019C72.6178 38.8896 79.1228 38.8896 83.135 42.9019L111.221 70.9877C115.233 74.9999 115.233 81.5049 111.221 85.5172L83.135 113.603C79.1228 117.615 72.6178 117.615 68.6055 113.603V113.603Z" fill="#9DC1E4"/>
<path d="M75.8703 118.119C72.7232 118.119 69.7656 116.893 67.541 114.668L39.4545 86.5831C37.2299 84.3585 36.0042 81.3994 36.0042 78.2531C36.0042 75.1068 37.2299 72.1477 39.4545 69.9231L67.541 41.8381C69.7656 39.6128 72.7232 38.3871 75.8703 38.3871C79.0162 38.3871 81.9749 39.6128 84.1995 41.8381L112.286 69.9231C116.878 74.5166 116.878 81.9896 112.286 86.5831L84.1995 114.668C81.9749 116.893 79.0158 118.119 75.8703 118.119V118.119ZM75.8703 41.3997C73.5278 41.3997 71.3269 42.312 69.6715 43.9678L41.5846 72.0532C38.1667 75.4718 38.1667 81.0337 41.5846 84.4523L69.6711 112.537C71.3265 114.193 73.5274 115.105 75.8699 115.105C78.2109 115.105 80.4121 114.193 82.0687 112.537L110.155 84.4523C113.572 81.0337 113.572 75.4718 110.155 72.0532L82.0691 43.9678C80.4121 42.312 78.2112 41.3997 75.8703 41.3997V41.3997Z" fill="#4C241D"/>
<path d="M41.2169 43.5994C40.3841 43.5994 39.7103 42.9248 39.7103 42.0928V39.0794C39.7103 38.2474 40.3841 37.5728 41.2169 37.5728C42.0497 37.5728 42.7236 38.2474 42.7236 39.0794V42.0928C42.7236 42.9248 42.0497 43.5994 41.2169 43.5994Z" fill="#4C241D"/>
<path d="M41.2169 52.6395C40.3841 52.6395 39.7103 51.9648 39.7103 51.1328V48.1195C39.7103 47.2874 40.3841 46.6128 41.2169 46.6128C42.0497 46.6128 42.7236 47.2874 42.7236 48.1195V51.1328C42.7236 51.9648 42.0497 52.6395 41.2169 52.6395Z" fill="#4C241D"/>
<path d="M38.2036 46.6128H35.1903C34.3575 46.6128 33.6836 45.9382 33.6836 45.1062C33.6836 44.2741 34.3575 43.5995 35.1903 43.5995H38.2036C39.0364 43.5995 39.7103 44.2741 39.7103 45.1062C39.7103 45.9382 39.0364 46.6128 38.2036 46.6128Z" fill="#4C241D"/>
<path d="M47.2436 46.6128H44.2303C43.3975 46.6128 42.7236 45.9382 42.7236 45.1062C42.7236 44.2741 43.3975 43.5995 44.2303 43.5995H47.2436C48.0764 43.5995 48.7503 44.2741 48.7503 45.1062C48.7503 45.9382 48.0764 46.6128 47.2436 46.6128Z" fill="#4C241D"/>
<path d="M105.25 121.946C102.343 121.946 99.977 119.58 99.977 116.673C99.977 113.765 102.343 111.399 105.25 111.399C108.158 111.399 110.524 113.765 110.524 116.673C110.524 119.58 108.158 121.946 105.25 121.946ZM105.25 114.413C104.004 114.413 102.99 115.426 102.99 116.673C102.99 117.919 104.004 118.933 105.25 118.933C106.497 118.933 107.51 117.919 107.51 116.673C107.51 115.426 106.496 114.413 105.25 114.413Z" fill="#4C241D"/>
<path d="M118.285 103.26C118.285 104.15 117.564 104.871 116.674 104.871C115.784 104.871 115.064 104.15 115.064 103.26C115.064 102.37 115.784 101.649 116.674 101.649C117.564 101.649 118.285 102.371 118.285 103.26Z" fill="#4C241D"/>
<path d="M52.1591 85.7604L73.7892 64.1303C75.2461 62.6734 77.6078 62.6734 79.0648 64.1303C80.5217 65.5873 80.5217 67.949 79.0648 69.4059L67.8981 80.5726L83.7249 96.3993L70.9352 109.189C67.5817 112.542 63.884 115.533 59.9034 118.11L50.9281 123.92L34.2222 107.215C34.2222 107.215 39.7506 99.0778 40.6877 94.1401L47.0824 71.467C47.4768 69.3886 49.3887 67.9527 51.4947 68.1527C53.7724 68.3693 55.4312 70.4097 55.1781 72.684L52.1591 85.7604Z" fill="white"/>
<path d="M50.9278 125.427C50.5394 125.427 50.1537 125.277 49.8625 124.986L33.1566 108.28C32.6447 107.769 32.5694 106.966 32.9758 106.368C33.0289 106.289 38.3388 98.43 39.207 93.8591L45.6311 71.0576C46.1445 68.3253 48.7299 66.3787 51.637 66.6525C53.1437 66.796 54.4989 67.5222 55.4538 68.6963C56.4086 69.8711 56.8414 71.3462 56.6749 72.8506C56.6674 72.9078 56.6587 72.9654 56.6456 73.0227L54.8093 80.9805L72.7243 63.0655C74.7033 61.0842 78.1536 61.0873 80.1296 63.0655C81.1183 64.0543 81.6641 65.3696 81.6641 66.7681C81.6641 68.1675 81.1183 69.4828 80.1296 70.4715L70.0289 80.573L84.7897 95.3342C85.3781 95.9225 85.3781 96.8762 84.7897 97.4646L72.0007 110.254C68.5799 113.676 64.7853 116.744 60.723 119.375L51.7463 125.185C51.4958 125.348 51.2103 125.427 50.9278 125.427V125.427ZM36.1553 107.017L51.1323 121.994L59.0848 116.846C62.969 114.33 66.5975 111.396 69.8699 108.124L81.5937 96.3998L66.8329 81.6386C66.2445 81.0502 66.2445 80.0965 66.8329 79.5081L77.9992 68.3415C78.4184 67.9215 78.6508 67.3629 78.6508 66.7685C78.6508 66.1749 78.4184 65.6163 77.9992 65.1963C77.1592 64.3567 75.6981 64.3541 74.8547 65.1963L53.2243 86.826C52.7474 87.3021 52.0133 87.4042 51.4291 87.0784C50.8407 86.7526 50.5405 86.0772 50.6905 85.4218L53.6861 72.44C53.7418 71.7722 53.5403 71.1201 53.1151 70.5977C52.6736 70.0549 52.0468 69.7193 51.3508 69.653C49.9853 69.5193 48.8128 70.4271 48.5612 71.7481L42.1371 94.5496C41.3729 98.5987 37.7064 104.608 36.1553 107.017V107.017Z" fill="#4C241D"/>
<path d="M63.1498 85.3208L83.4608 65.0098C84.9178 63.5529 87.2795 63.5529 88.7364 65.0098C90.1934 66.4668 90.1934 68.8285 88.7364 70.2854L68.4254 90.5964" fill="white"/>
<path d="M68.425 92.1031C68.0397 92.1031 67.654 91.9558 67.3598 91.6616C66.7715 91.0733 66.7715 90.1196 67.3598 89.5312L87.672 69.2198C88.0912 68.7999 88.3225 68.2413 88.3225 67.6476C88.3225 67.0533 88.0916 66.4947 87.672 66.0747C86.8037 65.208 85.3943 65.208 84.526 66.0747L64.2154 86.386C63.6271 86.9744 62.6734 86.9744 62.085 86.386C61.4966 85.7977 61.4966 84.844 62.085 84.2556L82.3956 63.9442C84.4364 61.9042 87.7556 61.9005 89.8024 63.9435C90.7911 64.933 91.3354 66.2483 91.3354 67.6476C91.3354 69.0462 90.7911 70.3615 89.8024 71.3503L69.4903 91.6616C69.1961 91.9562 68.8108 92.1031 68.425 92.1031V92.1031Z" fill="#4C241D"/>
<path d="M68.4254 90.5964L83.4254 75.5964C84.902 74.1199 87.2957 74.1199 88.7722 75.5964C90.2488 77.0729 90.2488 79.4667 88.7722 80.9432L73.7726 95.9432" fill="white"/>
<path d="M73.7722 97.4503C73.3869 97.4503 73.0012 97.303 72.707 97.0089C72.1186 96.4205 72.1186 95.4668 72.707 94.8784L87.7074 79.8781C88.5933 78.9914 88.5933 77.548 87.7074 76.6617C86.8188 75.7758 85.3766 75.7758 84.491 76.6617L69.4906 91.6621C68.9023 92.2504 67.9486 92.2504 67.3602 91.6621C66.7719 91.0737 66.7719 90.12 67.3602 89.5316L82.3606 74.5313C84.4191 72.4705 87.7737 72.4698 89.8382 74.5305C91.8997 76.5928 91.8997 79.9474 89.8382 82.0089L74.8378 97.0092C74.5429 97.303 74.1575 97.4503 73.7722 97.4503Z" fill="#4C241D"/>
<path d="M72.9635 96.7524L84.4473 85.2686C85.8843 83.8312 88.2144 83.8312 89.6517 85.2686C91.0891 86.7056 91.0891 89.036 89.6517 90.473L76.6029 103.522" fill="white"/>
<path d="M76.6029 105.028C76.2175 105.028 75.8318 104.881 75.5377 104.587C74.9493 103.999 74.9493 103.045 75.5377 102.457L88.5858 89.4077C88.9964 88.9971 89.2227 88.4513 89.2227 87.8709C89.2227 87.2905 88.996 86.7447 88.5858 86.3349C87.7631 85.5115 86.3318 85.5137 85.5122 86.3341L74.0284 97.8172C73.44 98.4055 72.4863 98.4055 71.8979 97.8172C71.3096 97.2288 71.3096 96.2751 71.8979 95.6867L83.3818 84.2037C85.3416 82.2439 88.7594 82.2431 90.7166 84.2044C91.6967 85.183 92.2364 86.4852 92.2364 87.8709C92.2364 89.2563 91.6963 90.5584 90.7166 91.5381L77.6685 104.587C77.3739 104.881 76.9886 105.028 76.6029 105.028V105.028Z" fill="#4C241D"/>
<path d="M103.571 54.4758L112.834 57.2153L103.571 59.9548L101.534 68.5153L99.4967 59.9548L90.2337 57.2153L99.4967 54.4758L101.534 45.9153L103.571 54.4758Z" fill="#FFCE56"/>
<path d="M101.534 70.0219C100.836 70.0219 100.23 69.5432 100.068 68.864L98.2333 61.1525L89.8069 58.6601C89.167 58.471 88.727 57.8827 88.727 57.2152C88.727 56.5478 89.167 55.9594 89.8069 55.7703L98.2333 53.2779L100.068 45.5664C100.23 44.8873 100.836 44.4086 101.534 44.4086C102.231 44.4086 102.837 44.8873 102.999 45.5664L104.836 53.2779L113.26 55.7703C113.9 55.9594 114.34 56.5478 114.34 57.2152C114.34 57.8827 113.9 58.471 113.26 58.6601L104.836 61.1525L102.999 68.864C102.837 69.5432 102.231 70.0219 101.534 70.0219ZM95.5466 57.2152L99.9238 58.5102C100.442 58.6631 100.838 59.0812 100.963 59.6063L101.534 62.0068L102.106 59.6063C102.231 59.0809 102.627 58.6631 103.145 58.5102L107.522 57.2152L103.145 55.9203C102.627 55.7673 102.231 55.3492 102.106 54.8242L101.534 52.4237L100.963 54.8245C100.838 55.35 100.442 55.7677 99.9238 55.9206L95.5466 57.2152Z" fill="#4C241D"/>
</svg>
