<svg width="155" height="131" viewBox="0 0 155 131" fill="none" xmlns="http://www.w3.org/2000/svg">
<rect width="155" height="130" rx="8" fill="#8598FF"/>
<circle cx="77.5" cy="64.5" r="47.5" fill="#91A2FF"/>
<path d="M45.1643 97.7389L31.5194 84.6471C30.7713 83.9597 30.6125 82.8607 31.1667 82.2062C33.8757 79.0065 38.5582 78.2839 42.8806 80.3986L55.5102 89.3053L45.1643 97.7389Z" fill="#FF2C5C"/>
<path d="M49.639 103.192L59.8432 119.163C60.3713 120.031 61.4182 120.401 62.1682 119.986L63.1101 119.464C66.2118 117.745 67.5842 113.98 66.5435 110.045L59.9574 94.7246L49.639 103.192Z" fill="#FF2C5C"/>
<path d="M47.4285 83.6057L38.2403 91.0956L45.1643 97.7391L55.5104 89.3053L47.4285 83.6057Z" fill="#E62753"/>
<path d="M53.6619 52.5684C51.9873 50.5278 52.1321 47.5534 53.9923 45.6805C56.653 43.0016 59.9465 40.0512 61.9062 38.4431C64.5872 36.243 64.7717 36.5556 67.5367 35.2142C67.9438 35.0167 68.4336 35.1223 68.7206 35.472L73.369 41.1366C73.656 41.4864 73.6637 41.9874 73.3907 42.3481C71.5354 44.7981 71.806 45.0398 69.125 47.2399C67.1652 48.848 63.6287 51.5022 60.482 53.5889C58.2818 55.0475 55.3362 54.6091 53.6619 52.5684Z" fill="#C3D3DB"/>
<path d="M95.6269 103.709C93.9524 101.668 94.0971 98.6935 95.9573 96.8207C98.618 94.1417 101.912 91.1913 103.871 89.5832C106.552 87.3832 106.737 87.6957 109.502 86.3544C109.909 86.1568 110.399 86.2624 110.686 86.6122L115.334 92.2768C115.621 92.6265 115.629 93.1275 115.356 93.4882C113.5 95.9382 113.771 96.18 111.09 98.3802C109.13 99.9883 105.594 102.643 102.447 104.729C100.247 106.188 97.3015 105.749 95.6269 103.709Z" fill="#C3D3DB"/>
<path d="M75.2164 72.4465L95.2636 55.9959L40.4827 32.6635C39.3479 32.2516 38.1628 32.4206 37.3168 33.1148L32.0701 37.4202C30.313 38.862 30.7105 41.8618 32.8491 43.2968L75.2164 72.4465Z" fill="#FF2C5C"/>
<path d="M82.8851 50.7238L64.9884 65.4098L75.2157 72.4463L95.2629 55.9957L82.8851 50.7238Z" fill="#E62753"/>
<path d="M80.3386 78.6892L100.386 62.2386L112.577 120.52C112.759 121.713 112.362 122.843 111.516 123.537L106.269 127.842C104.512 129.284 101.648 128.309 100.658 125.931L80.3386 78.6892Z" fill="#FF2C5C"/>
<path d="M117.338 56.163L83.6587 83.7994C78.0075 88.4367 72.0657 92.696 65.9071 96.5241L50.2181 106.276C46.586 108.534 42.539 108.452 40.5932 106.08C38.6475 103.709 39.3565 99.724 42.2799 96.6025L54.9068 83.1188C59.8634 77.8259 65.2004 72.8299 70.8518 68.1924L104.531 40.5561C109.135 36.7781 114.292 33.7605 119.613 31.8643C124.196 30.2314 128.978 29.3967 131.016 31.8804C133.054 34.3642 131.302 38.8913 128.806 43.0668C125.908 47.9159 121.942 52.385 117.338 56.163Z" fill="#E0F3FC"/>
<path d="M131.016 31.8806C130.298 31.0064 129.24 30.5445 127.971 30.3828C127.831 32.7464 126.515 35.6321 124.881 38.367C121.982 43.2157 118.016 47.685 113.412 51.463L79.7333 79.0994C74.0821 83.7366 68.1403 87.9959 61.9817 91.8239L46.2927 101.576C43.9825 103.012 41.5052 103.5 39.5067 103.056C39.5481 104.193 39.9025 105.238 40.5932 106.08C42.539 108.451 46.586 108.534 50.2181 106.276L65.9071 96.5239C72.0657 92.6957 78.0073 88.4366 83.6587 83.7992L117.337 56.163C121.942 52.385 125.908 47.9157 128.806 43.067C131.302 38.8914 133.054 34.3643 131.016 31.8806Z" fill="#C3D3DB"/>
<path d="M120.456 50.5423L119.306 51.486C118.238 52.3624 108.434 40.4149 109.502 39.5384L110.652 38.5947C111.377 37.9998 112.366 37.8873 113.121 38.3139C116.879 40.4397 119.862 44.0751 121.214 48.1764C121.484 48.9993 121.181 49.9474 120.456 50.5423Z" fill="#51C4F5"/>
<path d="M44.0884 104.552C43.7155 104.516 43.3563 104.337 43.0998 104.024C42.5866 103.398 42.6775 102.475 43.3029 101.962L57.288 90.4864C57.9134 89.9732 58.8364 90.0642 59.3494 90.6895C59.8627 91.315 59.7717 92.238 59.1463 92.751L45.1613 104.227C44.8487 104.484 44.4616 104.589 44.0884 104.552Z" fill="#E62753"/>
</svg>
