<svg width="140" height="140" viewBox="0 0 140 140" fill="none" xmlns="http://www.w3.org/2000/svg">
<circle cx="70" cy="70" r="70" fill="#FF97C3"/>
<path d="M87.3766 90.7374L73.8453 82.9249L87.3766 90.7374L90.0828 92.2999C90.4591 92.5137 90.8755 92.6476 91.3059 92.6931C91.7363 92.7386 92.1715 92.6948 92.5842 92.5644C92.9969 92.434 93.3783 92.2199 93.7045 91.9353C94.0306 91.6508 94.2945 91.302 94.4797 90.9108C94.7939 90.171 94.8223 89.3409 94.5593 88.5813C94.2963 87.8218 93.7607 87.187 93.0562 86.7999L90.5016 85.3249L76.9703 77.5124L90.5016 85.3249C90.8779 85.5387 91.2943 85.6726 91.7247 85.7181C92.1551 85.7636 92.5903 85.7198 93.003 85.5894C93.4157 85.459 93.7971 85.2449 94.1232 84.9603C94.4494 84.6758 94.7133 84.327 94.8984 83.9358C95.2127 83.1958 95.2412 82.3654 94.9782 81.6056C94.7152 80.8458 94.1795 80.2107 93.475 79.8233L91.6234 78.7499L74.6828 68.9749L78.5391 68.5999L78.5016 68.5452L78.5391 68.5999L82.5531 68.2108C83.2306 68.145 83.8856 67.9325 84.4727 67.588C85.0597 67.2435 85.5647 66.7752 85.9525 66.2159C86.3403 65.6565 86.6016 65.0193 86.7183 64.3487C86.835 63.6781 86.8042 62.9902 86.6281 62.3327L86.3453 61.2733L65.75 62.603C64.5188 62.6821 63.2918 62.395 62.2234 61.778L50.3297 54.9124L39.3922 73.8561L49.9328 79.9405C51.0012 80.5579 51.8629 81.4778 52.4094 82.5842L53.2297 84.2405C53.7761 85.3469 54.6378 86.2668 55.7062 86.8842L75.7141 98.4374C76.4332 98.8455 77.2841 98.9543 78.0828 98.7403C78.8815 98.5263 79.564 98.0066 79.9828 97.2936C80.3951 96.5754 80.5062 95.7231 80.2919 94.9232C80.0775 94.1233 79.5552 93.4407 78.8391 93.0249L70.7141 88.3374L78.8391 93.0249L84.2516 96.1499C84.9707 96.558 85.8216 96.6668 86.6203 96.4528C87.419 96.2388 88.1015 95.7191 88.5203 95.0061C88.9326 94.2879 89.0437 93.4356 88.8294 92.6357C88.615 91.8358 88.0927 91.1532 87.3766 90.7374V90.7374ZM88.2141 76.7874L80.0891 72.0999L88.2141 76.7874Z" fill="#FFB8A5"/>
<path d="M79.6453 96.0343C79.2503 96.1452 78.8371 96.1756 78.4301 96.1235C78.0232 96.0714 77.6309 95.938 77.2765 95.7312L57.264 84.178C56.1956 83.5606 55.3339 82.6407 54.7875 81.5343L53.9672 79.878C53.4207 78.7716 52.559 77.8517 51.4906 77.2343L40.95 71.1499L39.3875 73.8562L49.9281 79.9405C50.9965 80.558 51.8582 81.4779 52.4047 82.5843L53.225 84.2405C53.7714 85.3469 54.6331 86.2668 55.7015 86.8843L75.714 98.4374C76.188 98.7163 76.7276 98.8641 77.2775 98.8656C77.8275 98.8672 78.3679 98.7224 78.8434 98.4461C79.3189 98.1699 79.7124 97.7721 79.9835 97.2937C80.2545 96.8152 80.3934 96.2732 80.3859 95.7233C80.1542 95.8598 79.905 95.9644 79.6453 96.0343V96.0343Z" fill="#FF9478"/>
<path d="M84.2516 96.1501C84.7255 96.429 85.2651 96.5768 85.8151 96.5783C86.365 96.5799 86.9054 96.4351 87.3809 96.1589C87.8565 95.8826 88.2499 95.4848 88.521 95.0064C88.792 94.5279 88.931 93.9859 88.9234 93.436C88.6918 93.5731 88.4426 93.6782 88.1828 93.7485C87.7879 93.8595 87.3746 93.8899 86.9676 93.8378C86.5607 93.7857 86.1684 93.6523 85.8141 93.4454L72.2828 85.6329C71.924 85.4257 71.4975 85.3696 71.0972 85.4768C70.6969 85.5841 70.3557 85.8459 70.1484 86.2048C69.9413 86.5637 69.8851 86.9901 69.9924 87.3904C70.0996 87.7907 70.3615 88.132 70.7203 88.3392L84.2516 96.1501Z" fill="#FF9478"/>
<path d="M90.0828 92.3001C90.5568 92.579 91.0964 92.7268 91.6463 92.7283C92.1963 92.7299 92.7367 92.5851 93.2122 92.3088C93.6877 92.0326 94.0812 91.6348 94.3522 91.1564C94.6233 90.6779 94.7622 90.1359 94.7547 89.586C94.2829 89.8607 93.747 90.0061 93.2011 90.0075C92.6551 90.0089 92.1185 89.8662 91.6453 89.5939L75.4078 80.2189C75.0489 80.0117 74.6225 79.9555 74.2222 80.0628C73.8219 80.17 73.4807 80.4319 73.2734 80.7907C73.0663 81.1496 73.0101 81.5761 73.1174 81.9763C73.2246 82.3766 73.4865 82.7179 73.8453 82.9251L90.0828 92.3001Z" fill="#FF9478"/>
<path d="M90.5016 85.3249C90.9755 85.6038 91.5151 85.7516 92.0651 85.7531C92.615 85.7547 93.1554 85.6099 93.6309 85.3337C94.1064 85.0574 94.4999 84.6597 94.771 84.1812C95.042 83.7027 95.1809 83.1607 95.1734 82.6108C94.9411 82.7466 94.6922 82.8516 94.4328 82.9233C94.0378 83.0343 93.6246 83.0647 93.2176 83.0126C92.8107 82.9605 92.4184 82.8271 92.0641 82.6202L78.5328 74.8077C78.1739 74.6005 77.7475 74.5444 77.3472 74.6516C76.9469 74.7589 76.6057 75.0207 76.3984 75.3796C76.1913 75.7385 76.1351 76.165 76.2424 76.5652C76.3496 76.9655 76.6115 77.3068 76.9703 77.514L90.5016 85.3249Z" fill="#FF9478"/>
<path d="M41.0625 45.9563L27 70.3126L37.825 76.5626L39.3875 73.8563L50.325 54.9126L51.8875 52.2063L41.0625 45.9563Z" fill="#006DF0"/>
<path d="M75.4375 106.25H117.625V115.625H75.4375V106.25Z" fill="#005ECE"/>
<path d="M89.5 103.125H92.625C93.0578 103.122 93.4854 103.03 93.8809 102.854C94.2765 102.678 94.6315 102.423 94.9237 102.104C95.2159 101.784 95.439 101.408 95.579 100.998C95.7191 100.589 95.773 100.155 95.7375 99.7234C95.6401 98.9256 95.2498 98.1924 94.6423 97.6661C94.0349 97.1398 93.2536 96.8578 92.45 96.875H89.5C89.9328 96.8722 90.3604 96.78 90.7559 96.6042C91.1515 96.4284 91.5065 96.1729 91.7987 95.8535C92.0909 95.5342 92.314 95.158 92.454 94.7484C92.5941 94.3389 92.648 93.9048 92.6125 93.4734C92.5151 92.6756 92.1248 91.9424 91.5173 91.4161C90.9099 90.8898 90.1286 90.6078 89.325 90.625H67.625L70.7781 88.3734L70.7187 88.3438L70.7781 88.3734L74.0594 86.0297C74.6129 85.6345 75.0738 85.1236 75.4101 84.5324C75.7464 83.9412 75.95 83.2839 76.0068 82.6061C76.0635 81.9284 75.9722 81.2464 75.739 80.6075C75.5057 79.9686 75.1363 79.3881 74.6562 78.9062L73.875 78.125L56.7 89.575C55.6733 90.2596 54.4669 90.625 53.2328 90.625H39.5V112.5H51.6703C52.9044 112.5 54.1108 112.865 55.1375 113.55L56.675 114.575C57.7017 115.26 58.9081 115.625 60.1422 115.625H83.25C84.0769 115.619 84.8682 115.288 85.4529 114.703C86.0377 114.118 86.3689 113.327 86.375 112.5C86.3725 111.672 86.0425 110.879 85.457 110.293C84.8715 109.708 84.078 109.377 83.25 109.375H89.5C90.3269 109.369 91.1182 109.038 91.7029 108.453C92.2877 107.868 92.6189 107.077 92.625 106.25C92.6225 105.422 92.2925 104.629 91.707 104.043C91.1215 103.458 90.328 103.127 89.5 103.125V103.125Z" fill="#FFCBBE"/>
<path d="M70.9344 86.0281L64.5 90.625H67.625L74.0594 86.0281C74.6126 85.6329 75.0733 85.1221 75.4094 84.531C75.7455 83.94 75.949 83.2829 76.0058 82.6053C76.0626 81.9278 75.9713 81.2459 75.7383 80.6072C75.5052 79.9685 75.136 79.388 74.6562 78.9062L73.875 78.125L71.9375 79.4172C72.3137 79.9141 72.5865 80.4813 72.7399 81.0854C72.8933 81.6894 72.9241 82.3181 72.8306 82.9343C72.7371 83.5505 72.5212 84.1417 72.1955 84.673C71.8698 85.2044 71.441 85.6652 70.9344 86.0281V86.0281Z" fill="#FFAC96"/>
<path d="M85.4531 111.578C85.1666 111.872 84.8239 112.105 84.4454 112.263C84.0669 112.422 83.6603 112.502 83.25 112.5H60.1422C58.9081 112.5 57.7017 112.135 56.675 111.45L55.1375 110.425C54.1108 109.74 52.9044 109.375 51.6703 109.375H39.5V112.5H51.6703C52.9044 112.5 54.1108 112.865 55.1375 113.55L56.675 114.575C57.7017 115.26 58.9081 115.625 60.1422 115.625H83.25C83.8001 115.63 84.3415 115.488 84.8187 115.214C85.2959 114.941 85.6917 114.545 85.9654 114.068C86.2391 113.591 86.381 113.049 86.3763 112.499C86.3717 111.949 86.2208 111.41 85.9391 110.938C85.8063 111.172 85.6429 111.387 85.4531 111.578Z" fill="#FFAC96"/>
<path d="M89.5 109.375C90.0501 109.38 90.5915 109.238 91.0687 108.964C91.5459 108.691 91.9417 108.295 92.2154 107.818C92.4891 107.341 92.631 106.799 92.6263 106.249C92.6217 105.699 92.4708 105.16 92.1891 104.688C91.9178 105.161 91.5264 105.555 91.0543 105.83C90.5822 106.104 90.046 106.249 89.5 106.25H73.875C73.4606 106.25 73.0632 106.415 72.7701 106.708C72.4771 107.001 72.3125 107.398 72.3125 107.813C72.3125 108.227 72.4771 108.624 72.7701 108.917C73.0632 109.21 73.4606 109.375 73.875 109.375H89.5Z" fill="#FFAC96"/>
<path d="M92.625 103.125C93.1751 103.13 93.7165 102.988 94.1937 102.714C94.6709 102.441 95.0667 102.045 95.3404 101.568C95.6141 101.091 95.756 100.549 95.7513 99.999C95.7467 99.4489 95.5958 98.91 95.3141 98.4375C95.0428 98.9114 94.6514 99.3054 94.1793 99.5797C93.7072 99.8541 93.171 99.999 92.625 100H73.875C73.4606 100 73.0632 100.165 72.7701 100.458C72.4771 100.751 72.3125 101.148 72.3125 101.563C72.3125 101.977 72.4771 102.374 72.7701 102.667C73.0632 102.96 73.4606 103.125 73.875 103.125H92.625Z" fill="#FFAC96"/>
<path d="M89.5 96.875C90.0501 96.8797 90.5915 96.7379 91.0687 96.4642C91.5459 96.1906 91.9417 95.7948 92.2154 95.3177C92.4891 94.8405 92.631 94.2991 92.6263 93.749C92.6217 93.1989 92.4708 92.66 92.1891 92.1875C91.9178 92.6614 91.5264 93.0554 91.0543 93.3297C90.5822 93.6041 90.046 93.749 89.5 93.75H73.875C73.4606 93.75 73.0632 93.9146 72.7701 94.2076C72.4771 94.5007 72.3125 94.8981 72.3125 95.3125C72.3125 95.7269 72.4771 96.1243 72.7701 96.4174C73.0632 96.7104 73.4606 96.875 73.875 96.875H89.5Z" fill="#FFAC96"/>
<path d="M27 87.5V115.625H39.5V112.5V90.625V87.5H27Z" fill="#006DF0"/>
<path d="M87.1562 42.1875C86.5346 42.1875 85.9385 42.4344 85.499 42.874C85.0594 43.3135 84.8125 43.9096 84.8125 44.5312C84.8125 45.1529 85.0594 45.749 85.499 46.1885C85.9385 46.6281 86.5346 46.875 87.1562 46.875H98.0938C98.7154 46.875 99.3115 46.6281 99.751 46.1885C100.191 45.749 100.438 45.1529 100.438 44.5312C100.438 43.9096 100.191 43.3135 99.751 42.874C99.3115 42.4344 98.7154 42.1875 98.0938 42.1875H87.1562Z" fill="#FF5023"/>
<path d="M102.781 25C98.8444 25 95.0689 26.5639 92.2851 29.3476C89.5014 32.1314 87.9375 35.9069 87.9375 39.8438V42.1875H97.3125V39.8438C97.3125 38.3933 97.8887 37.0023 98.9143 35.9768C99.9399 34.9512 101.331 34.375 102.781 34.375C104.232 34.375 105.623 34.9512 106.648 35.9768C107.674 37.0023 108.25 38.3933 108.25 39.8438V106.25H117.625V39.8438C117.625 35.9069 116.061 32.1314 113.277 29.3476C110.494 26.5639 106.718 25 102.781 25V25Z" fill="#FF9811"/>
<path d="M99.6562 34.375C98.2058 34.375 96.8149 34.9512 95.7893 35.9768C94.7637 37.0023 94.1875 38.3933 94.1875 39.8438V42.1875H97.3125V39.8438C97.3152 38.6699 97.6969 37.5283 98.4008 36.5888C99.1046 35.6493 100.093 34.9622 101.219 34.6297C100.713 34.4683 100.187 34.3825 99.6562 34.375V34.375Z" fill="#EE8700"/>
<path d="M102.781 25C102.259 25.0007 101.738 25.0284 101.219 25.0828C104.865 25.4687 108.239 27.1902 110.691 29.9156C113.143 32.641 114.5 36.1775 114.5 39.8438V106.25H117.625V39.8438C117.625 35.9069 116.061 32.1314 113.277 29.3476C110.494 26.5639 106.718 25 102.781 25V25Z" fill="#EE8700"/>
<path d="M97.3125 75C98.5557 75 99.748 74.5061 100.627 73.6271C101.506 72.748 102 71.5557 102 70.3125C102 67.7234 97.3125 64.0625 97.3125 64.0625C97.3125 64.0625 92.625 67.7234 92.625 70.3125C92.625 71.5557 93.1189 72.748 93.9979 73.6271C94.877 74.5061 96.0693 75 97.3125 75Z" fill="#2488FF"/>
<path d="M92.625 51.5625C92.625 51.5625 89.5 54.5234 89.5 56.25C89.5 57.0788 89.8292 57.8737 90.4153 58.4597C91.0013 59.0458 91.7962 59.375 92.625 59.375C93.4538 59.375 94.2487 59.0458 94.8347 58.4597C95.4208 57.8737 95.75 57.0788 95.75 56.25C95.75 54.5312 92.625 51.5625 92.625 51.5625Z" fill="#57A4FF"/>
<path d="M77.3578 68.7157L74.6828 68.9751L78.5391 68.6001L77.3578 68.7157Z" fill="#FFB8A5"/>
<path d="M82.5531 68.2109C82.5719 68.2109 82.5875 68.2015 82.6063 68.2C82.5672 68.2 82.5281 68.214 82.4891 68.2171L82.5531 68.2109Z" fill="#FFB8A5"/>
<path d="M78.5391 68.6L79.8969 68.4688L78.5391 68.6Z" fill="#FFB8A5"/>
<path d="M82.4891 68.2173L79.8969 68.4688L82.4891 68.2173Z" fill="#FF977C"/>
<path d="M81.9172 66.0828L74.1047 66.8406C73.5917 67.7293 72.9087 68.5082 72.0946 69.1329C71.2805 69.7575 70.3514 70.2157 69.3603 70.4812C68.3691 70.7467 67.3354 70.8144 66.318 70.6804C65.3007 70.5463 64.3198 70.2132 63.4312 69.7L64.0047 71.8344C65.799 72.8703 67.9314 73.1511 69.9328 72.6148C71.9342 72.0786 73.6405 70.7693 74.6766 68.975L77.3516 68.7156L78.5328 68.6L78.4953 68.5453L78.5328 68.6L79.8906 68.4688L82.4828 68.2172C82.5219 68.2172 82.5609 68.2047 82.6 68.2C83.2716 68.1269 83.9195 67.9094 84.4992 67.5625C85.079 67.2157 85.5769 66.7476 85.9588 66.1904C86.3408 65.6331 86.5978 64.9999 86.7123 64.3341C86.8267 63.6683 86.7959 62.9856 86.6219 62.3328L86.3391 61.2734L86.1375 61.2875C86.1706 62.4723 85.7537 63.6256 84.9706 64.5153C84.1876 65.4051 83.0966 65.9651 81.9172 66.0828V66.0828Z" fill="#FF977C"/>
<path d="M33.25 104.688C32.8356 104.688 32.4382 104.852 32.1451 105.145C31.8521 105.438 31.6875 105.836 31.6875 106.25V109.375C31.6875 109.789 31.8521 110.187 32.1451 110.48C32.4382 110.773 32.8356 110.938 33.25 110.938C33.6644 110.938 34.0618 110.773 34.3549 110.48C34.6479 110.187 34.8125 109.789 34.8125 109.375V106.25C34.8125 105.836 34.6479 105.438 34.3549 105.145C34.0618 104.852 33.6644 104.688 33.25 104.688Z" fill="#F1F2F2"/>
<path d="M37.8812 63.9657C37.5234 63.7589 37.0982 63.7024 36.6988 63.8084C36.2994 63.9144 35.9582 64.1743 35.75 64.5313L34.1875 67.2375C34.0833 67.4153 34.0153 67.6119 33.9873 67.8161C33.9594 68.0202 33.9722 68.2279 34.0248 68.4271C34.0775 68.6263 34.1691 68.8132 34.2942 68.9769C34.4194 69.1406 34.5757 69.2779 34.7542 69.3809C34.9326 69.4839 35.1297 69.5507 35.334 69.5772C35.5384 69.6038 35.746 69.5897 35.9448 69.5357C36.1437 69.4817 36.3299 69.3889 36.4928 69.2626C36.6556 69.1364 36.7919 68.9792 36.8937 68.8L38.4562 66.0938C38.6612 65.7351 38.7158 65.3098 38.608 64.911C38.5002 64.5122 38.2389 64.1723 37.8812 63.9657V63.9657Z" fill="#F1F2F2"/>
</svg>
